<?xml version="1.0" encoding="utf-8"?>
<!-- Generator: Adobe Illustrator 24.1.2, SVG Export Plug-In . SVG Version: 6.00 Build 0)  -->
<svg version="1.1" id="Layer_1" xmlns="http://www.w3.org/2000/svg" xmlns:xlink="http://www.w3.org/1999/xlink" x="0px" y="0px"
	 viewBox="0 0 48.6 66.7" style="enable-background:new 0 0 48.6 66.7;" xml:space="preserve">
<style type="text/css">
	.st0{fill:none;}
	.st1{fill:#FFE155;}
	.st2{fill:#00A64E;}
	.st3{fill:#0B6F55;}
	.st4{fill:#FFFFFF;}
	.st5{fill:none;stroke:#000000;stroke-width:3;stroke-linecap:round;stroke-miterlimit:10;}
	.st6{fill:none;stroke:#000000;stroke-width:3;stroke-miterlimit:10;}
</style>
<rect x="-16.7" y="-6.6" class="st0" width="80" height="80"/>
<g id="XMLID_2_">
	<g>
		<path class="st1" d="M47.1,45.7v4l0,0H22.5c-2.4,0-4.2-1.1-4.5-3.5l-0.3-2.8h27.2C46.1,43.5,47.1,44.5,47.1,45.7z"/>
		<path class="st2" d="M15.3,21.6l0.9,7.6h-2.7c-1,0-2,0.4-2.6,1.1c-0.1,0.1-0.2,0.2-0.2,0.3c-0.1,0.2-0.3,0.4-0.4,0.6L10,31.9
			c-0.1,0.2-0.1,0.5-0.2,0.7c0,0.1,0,0.3,0,0.4c0,0.1,0,0.3,0,0.4c0,0.3,0.1,0.5,0.2,0.7s0.2,0.5,0.3,0.7c0.1,0.2,0.3,0.4,0.4,0.6
			c0.1,0.1,0.2,0.2,0.2,0.3c0.2,0.2,0.3,0.3,0.5,0.5c0.6,0.4,1.3,0.6,2.1,0.6H17l0.3,3l0.4,3.8l0.3,2.7c0.3,2.4,2.1,3.5,4.5,3.5
			h24.7l0,0v2.4c0,3.3-2.7,6-6,6h-2H19.4H19h-2.2c-0.7,0-1.4-0.1-2.1-0.2C9.6,57.1,5.6,52.9,5,47.6L1.5,16.9V4.3
			c0-1.5,1.2-2.6,2.6-2.6h3.5h1.1c3.6,0,6,1.1,6,6v9.2L15.3,21.6z"/>
		<path class="st3" d="M40,29.3c2,0,3.7,1.7,3.7,3.7c0,1-0.4,2-1.1,2.6c-0.7,0.7-1.6,1.1-2.6,1.1H17h-3.5c2.1,0,3.7-1.7,3.7-3.7
			c0-2.1-1.7-3.7-3.7-3.7h2.7C16.2,29.3,40,29.3,40,29.3z"/>
		<path class="st3" d="M39.1,58.1l1.1,7.1h-29l3.5-7.3c0.7,0.1,1.4,0.2,2.1,0.2H19h0.4C19.4,58.1,39.1,58.1,39.1,58.1z"/>
		<path class="st1" d="M20.2,7.4v9.3c0,2.7-2.2,5-4.9,5l-0.5-4.9V7.6c0-4.9-2.4-6-6-6h5.7C17.6,1.6,20.2,4.2,20.2,7.4z"/>
		<path class="st4" d="M13.5,29.3c2.1,0,3.7,1.7,3.7,3.7c0,2.1-1.7,3.7-3.7,3.7c-0.8,0-1.5-0.2-2.1-0.6c-0.2-0.1-0.4-0.3-0.5-0.5
			c-0.1-0.1-0.2-0.2-0.2-0.3c-0.1-0.2-0.3-0.4-0.4-0.6c-0.1-0.2-0.2-0.4-0.3-0.7c-0.1-0.2-0.1-0.5-0.2-0.7c0-0.1,0-0.3,0-0.4
			c0-0.1,0-0.3,0-0.4c0-0.3,0.1-0.5,0.2-0.7l0.3-0.7c0.1-0.2,0.3-0.4,0.4-0.6c0.1-0.1,0.2-0.2,0.2-0.3
			C11.5,29.7,12.4,29.3,13.5,29.3z"/>
		<path class="st4" d="M10.8,35.6c0.2,0.2,0.4,0.3,0.5,0.5C11.2,36,11,35.8,10.8,35.6z"/>
		<path class="st4" d="M10.6,30.6c-0.1,0.2-0.3,0.4-0.4,0.6C10.3,31,10.4,30.8,10.6,30.6z"/>
		<path class="st4" d="M10.2,34.8c0.1,0.2,0.3,0.4,0.4,0.6C10.4,35.2,10.3,35,10.2,34.8z"/>
		<path class="st4" d="M9.9,31.9c-0.1,0.2-0.1,0.5-0.2,0.7C9.8,32.4,9.8,32.1,9.9,31.9z"/>
		<path class="st4" d="M9.8,33.4c0,0.3,0.1,0.5,0.2,0.7C9.8,33.9,9.8,33.6,9.8,33.4z"/>
	</g>
	<g>
		<polyline class="st5" points="14.7,57.9 11.2,65.2 40.2,65.2 39.1,58.1 		"/>
		<line class="st6" x1="17.3" y1="39.7" x2="17" y2="36.7"/>
		<path class="st6" d="M7.6,1.6H4.1c-1.5,0-2.6,1.2-2.6,2.6v12.5L5,47.4c0.6,5.3,4.6,9.5,9.7,10.4c0.7,0.1,1.4,0.2,2.1,0.2H19h0.4
			h19.7h2c3.3,0,6-2.7,6-6v-2.4v-4c0-1.3-1-2.3-2.3-2.3H17.6"/>
		<path class="st6" d="M16.1,29.3l-0.8-7.7l-0.5-4.9V7.5c0-4.9-2.4-6-6-6"/>
		<path class="st6" d="M13.5,29.3h2.7H40c2,0,3.7,1.7,3.7,3.7c0,1-0.4,2-1.1,2.6c-0.7,0.7-1.6,1.1-2.6,1.1H17h-3.5"/>
		<path class="st6" d="M17.3,39.7l0.4,3.8l0.3,2.7c0.3,2.4,2.1,3.5,4.5,3.5h24.7"/>
		<path class="st6" d="M7.6,1.6h1.1h5.7c3.2,0,5.8,2.6,5.8,5.8v9.3c0,2.7-2.2,5-4.9,5c0,0,0,0-0.1,0"/>
		<path class="st6" d="M13.5,29.3c2.1,0,3.7,1.7,3.7,3.7c0,2.1-1.7,3.7-3.7,3.7c-0.8,0-1.5-0.2-2.1-0.6c-0.2-0.1-0.4-0.3-0.5-0.5
			c-0.1-0.1-0.2-0.2-0.2-0.3c-0.1-0.2-0.3-0.4-0.4-0.6c-0.1-0.2-0.2-0.4-0.3-0.7c-0.1-0.2-0.1-0.5-0.2-0.7c0-0.1,0-0.3,0-0.4
			c0-0.1,0-0.3,0-0.4c0-0.3,0.1-0.5,0.2-0.7l0.3-0.7c0.1-0.2,0.3-0.4,0.4-0.6c0.1-0.1,0.2-0.2,0.2-0.3
			C11.5,29.7,12.4,29.3,13.5,29.3z"/>
	</g>
</g>
</svg>
