<?xml version="1.0" encoding="utf-8"?>
<!-- Generator: Adobe Illustrator 24.1.2, SVG Export Plug-In . SVG Version: 6.00 Build 0)  -->
<svg version="1.1" id="Layer_1" xmlns="http://www.w3.org/2000/svg" xmlns:xlink="http://www.w3.org/1999/xlink" x="0px" y="0px"
	 viewBox="0 0 74.3 40.3" style="enable-background:new 0 0 74.3 40.3;" xml:space="preserve">
<style type="text/css">
	.st0{fill:none;}
	.st1{fill:#00A64E;}
	.st2{fill:#0B6F55;}
	.st3{fill:#FFE155;}
	.st4{fill:#FFFFFF;}
</style>
<g>
	<rect x="-1.7" y="-20" class="st0" width="80" height="80"/>
	<g>
		<path d="M6.1,15.8C2.7,15.8,0,13.2,0,10V1.6c0-0.8,0.7-1.5,1.5-1.5S3,0.8,3,1.6V10c0,1.6,1.4,2.8,3.1,2.8s3.1-1.3,3.1-2.8V1.6
			c0-0.8,0.7-1.5,1.5-1.5c0.8,0,1.5,0.7,1.5,1.5V10C12.2,13.2,9.5,15.8,6.1,15.8z"/>
		<path d="M6.1,40.3c-0.8,0-1.5-0.7-1.5-1.5V1.5C4.6,0.7,5.3,0,6.1,0s1.5,0.7,1.5,1.5v37.2C7.6,39.6,7,40.3,6.1,40.3z"/>
	</g>
	<g>
		<path d="M72.8,40.3c-0.8,0-1.5-0.7-1.5-1.5V1.9c0-0.8,0.7-1.5,1.5-1.5s1.5,0.7,1.5,1.5v36.9C74.3,39.6,73.6,40.3,72.8,40.3z"/>
		<path d="M74.3,25H66V5.9c0-3.2,2.6-5.8,5.8-5.8h2.5V25z M69,22h2.3V3.1C70,3.4,69,4.5,69,5.8V22z"/>
	</g>
	<g>
		<path class="st1" d="M20,3c-1.4,0-2.5,1.1-2.5,2.5v29c0,1.4,1.1,2.5,2.5,2.5h36.9c1.4,0,2.5-1.1,2.5-2.5v-29
			c0-1.4-1.1-2.5-2.5-2.5H20z"/>
		<path d="M56.8,40.1H20c-3,0-5.5-2.5-5.5-5.5v-29c0-3,2.5-5.5,5.5-5.5h36.9c3,0,5.5,2.5,5.5,5.5v29C62.4,37.6,59.9,40.1,56.8,40.1z
			 M20,3c-1.4,0-2.5,1.1-2.5,2.5v29c0,1.4,1.1,2.5,2.5,2.5h36.9c1.4,0,2.5-1.1,2.5-2.5v-29c0-1.4-1.1-2.5-2.5-2.5H20z"/>
		<g>
			<rect x="22.3" y="7.8" class="st2" width="15" height="24.4"/>
			<path d="M38.8,33.8h-18V6.3h18V33.8z M23.8,30.8h12V9.3h-12V30.8z"/>
		</g>
		<path d="M54.4,18.1c-0.4,0-0.9-0.2-1.2-0.5l0,0l-8.7-8.1C44,9,43.8,8.2,44,7.5c0.3-0.7,0.9-1.1,1.7-1.1h7c1.9,0,3.5,1.6,3.5,3.5
			v6.4c0,0.7-0.4,1.3-1.1,1.6C54.8,18,54.6,18.1,54.4,18.1z M48.7,9.4l4.4,4.1V9.9c0-0.3-0.2-0.5-0.5-0.5H48.7z"/>
		<g>
			<circle class="st3" cx="48.6" cy="26.7" r="6"/>
			<path d="M48.6,34.2c-4.2,0-7.5-3.4-7.5-7.5s3.4-7.5,7.5-7.5s7.5,3.4,7.5,7.5S52.8,34.2,48.6,34.2z M48.6,22.2
				c-2.5,0-4.5,2-4.5,4.5s2,4.5,4.5,4.5s4.5-2,4.5-4.5S51.1,22.2,48.6,22.2z"/>
		</g>
	</g>
	<path class="st4" d="M48.7,9.4l4.4,4.1V9.9c0-0.3-0.2-0.5-0.5-0.5H48.7z"/>
</g>
<path class="st4" d="M69,22h2.3V3.1C70,3.4,69,4.5,69,5.8V22z"/>
</svg>
