<?xml version="1.0" encoding="utf-8"?>
<!-- Generator: Adobe Illustrator 24.1.2, SVG Export Plug-In . SVG Version: 6.00 Build 0)  -->
<svg version="1.1" id="Layer_1" xmlns="http://www.w3.org/2000/svg" xmlns:xlink="http://www.w3.org/1999/xlink" x="0px" y="0px"
	 viewBox="0 0 47.3 72" style="enable-background:new 0 0 47.3 72;" xml:space="preserve">
<style type="text/css">
	.st0{fill:#0B6F55;}
	.st1{fill:#00A64E;}
	.st2{fill:none;}
	.st3{fill:#FFE155;}
	.st4{fill:#FFFFFF;}
</style>
<path class="st0" d="M7.5,12C5,12,3,14,3,16.5v43C3,62,5,64,7.5,64h32.3c2.5,0,4.5-2,4.5-4.5v-43c0-2.5-2-4.5-4.5-4.5H7.5z"/>
<rect x="3" y="20.1" class="st1" width="41.3" height="35.9"/>
<rect x="-16.3" y="-4" class="st2" width="80" height="80"/>
<g>
	<path d="M39.9,67.1H7.5c-4.1,0-7.5-3.4-7.5-7.5v-43c0-4.1,3.4-7.5,7.5-7.5h32.3c4.1,0,7.5,3.4,7.5,7.5v43
		C47.4,63.7,44,67.1,39.9,67.1z M7.5,12C5,12,3,14,3,16.5v43C3,62,5,64,7.5,64h32.3c2.5,0,4.5-2,4.5-4.5v-43c0-2.5-2-4.5-4.5-4.5
		H7.5z"/>
	<path d="M35.1,10.5h-3v-6c0-0.8-0.7-1.5-1.5-1.5H16.8c-0.8,0-1.5,0.7-1.5,1.5v6.1h-3V4.5c0-2.5,2-4.5,4.5-4.5h13.9
		c2.5,0,4.5,2,4.5,4.5L35.1,10.5L35.1,10.5z"/>
	<g>
		<path d="M8.5,72c-2.8,0-5-2.3-5-5c0-0.8,0.2-1.5,0.5-2.2l2.7,1.3c-0.1,0.3-0.2,0.6-0.2,0.9c0,1.1,0.9,2,2,2s2-0.9,2-2
			c0-0.3-0.1-0.6-0.2-0.8l2.8-1.2c0.3,0.6,0.4,1.3,0.4,2C13.5,69.8,11.3,72,8.5,72z"/>
		<path d="M38.9,72c-2.8,0-5-2.3-5-5c0-0.7,0.1-1.3,0.4-2l2.8,1.2c-0.1,0.3-0.2,0.5-0.2,0.8c0,1.1,0.9,2,2,2s2-0.9,2-2
			c0-0.3-0.1-0.6-0.2-0.9l2.7-1.3c0.3,0.7,0.5,1.5,0.5,2.2C44,69.8,41.7,72,38.9,72z"/>
	</g>
	<g>
		<rect x="1.5" y="17.1" width="44.3" height="3"/>
		<rect x="1.5" y="56" width="44.3" height="3"/>
	</g>
</g>
<g>
	<path class="st3" d="M37.4,41.7l-5.6-1.4c-0.2-0.1-0.4,0-0.6,0.1l-4.3,3.8c-0.4,0.4-1.1,0.1-1.1-0.5L25.4,38c0-0.2-0.1-0.4-0.3-0.5
		l-5-3c-0.5-0.3-0.4-1,0.1-1.2l5.4-2.1c0.2-0.1,0.4-0.3,0.4-0.5l1.3-5.6c0.1-0.5,0.8-0.7,1.2-0.3l3.7,4.4c0.1,0.2,0.4,0.3,0.6,0.2
		l5.7-0.5c0.5,0,0.9,0.6,0.6,1L36,34.8c-0.1,0.2-0.1,0.4,0,0.6l2.3,5.3C38.4,41.3,37.9,41.8,37.4,41.7z"/>
	<path d="M26.4,46c-0.3,0-0.6-0.1-0.9-0.2c-0.8-0.3-1.4-1.1-1.4-2l-0.3-5.2l-4.5-2.7c-0.8-0.5-1.2-1.3-1.1-2.2
		c0.1-0.9,0.6-1.6,1.4-2l4.9-1.9l1.2-5.1c0.2-0.9,0.9-1.5,1.7-1.7c0.9-0.2,1.8,0.1,2.3,0.8l3.4,4l5.2-0.5c0.9-0.1,1.7,0.3,2.2,1.1
		c0.5,0.8,0.5,1.7,0,2.4l-2.8,4.4l2.1,4.8c0.3,0.8,0.2,1.7-0.4,2.4c-0.6,0.7-1.5,1-2.3,0.7L31.9,42l-4,3.5C27.5,45.8,27,46,26.4,46z
		 M22.7,34.1l3.2,1.9c0.6,0.4,1.1,1.1,1.1,1.8l0.2,3.8l2.8-2.5c0.6-0.5,1.3-0.7,2.1-0.5l3.7,0.9L34.3,36c-0.3-0.7-0.2-1.5,0.2-2.1
		l2-3.2L32.7,31c-0.8,0.1-1.5-0.2-2-0.8l-2.4-2.9L27.5,31c-0.2,0.7-0.7,1.3-1.4,1.6L22.7,34.1z M32.3,41.6L32.3,41.6L32.3,41.6z
		 M24.2,38.9L24.2,38.9L24.2,38.9z M37.3,35.7L37.3,35.7L37.3,35.7z M33.3,28.2L33.3,28.2L33.3,28.2z M32.5,27.9L32.5,27.9
		L32.5,27.9z M28.8,25.5L28.8,25.5L28.8,25.5z"/>
</g>
<g>
	<circle class="st4" cx="13" cy="45.9" r="4.7"/>
	<path d="M13,52.2c-3.4,0-6.2-2.8-6.2-6.2s2.8-6.2,6.2-6.2s6.2,2.8,6.2,6.2S16.4,52.2,13,52.2z M13,42.7c-1.8,0-3.2,1.5-3.2,3.2
		s1.5,3.2,3.2,3.2c1.8,0,3.2-1.5,3.2-3.2S14.7,42.7,13,42.7z"/>
</g>
</svg>
