<?xml version="1.0" encoding="utf-8"?>
<!-- Generator: Adobe Illustrator 24.1.2, SVG Export Plug-In . SVG Version: 6.00 Build 0)  -->
<svg version="1.1" id="Layer_1" xmlns="http://www.w3.org/2000/svg" xmlns:xlink="http://www.w3.org/1999/xlink" x="0px" y="0px"
	 viewBox="0 0 912.9 215.8" style="enable-background:new 0 0 912.9 215.8;" xml:space="preserve">
<style type="text/css">
	.st0{fill:#00A64E;}
	.st1{fill:none;}
	.st2{fill:#FFFFFF;}
</style>
<path class="st0" d="M230.8,3.6c15.6,13.8-9.5,65.6-14.2,75.4c-12.3-15.6-28.4-27.8-46.8-35.4C174.6,36.8,211.1-13.7,230.8,3.6z"/>
<path class="st1" d="M221.3,0c3.5,0,6.9,1.3,9.5,3.6c15.6,13.8-9.5,65.6-14.2,75.4c-12.3-15.6-28.4-27.8-46.8-35.4
	C173.9,37.8,201.1,0,221.3,0 M221.2-5.5L221.2-5.5c-22,0-48.4,35.1-55.9,45.9l-3.9,5.6l6.3,2.6c17.5,7.2,32.8,18.9,44.5,33.7l5.5,7
	l3.8-8l0.2-0.5c2.8-5.8,10.1-21.2,15-37.2c6.8-22.3,6-36.7-2.4-44.1C230.7-3.7,226.1-5.5,221.2-5.5L221.2-5.5z"/>
<path class="st2" d="M227.7,13.3c7.5,6.2-7.9,43.3-15.5,60.5c-8.4-9.5-18.4-17.6-29.5-23.9C191.7,38.4,218.1,5.3,227.7,13.3z"/>
<path class="st0" d="M5.7,3.6C-9.9,17.4,15.2,69.2,19.9,79c12.3-15.6,28.4-27.8,46.7-35.4C61.9,36.8,25.4-13.7,5.7,3.6z"/>
<path class="st1" d="M15.2,0c20.1,0,47.4,37.8,51.4,43.6C48.2,51.2,32.1,63.4,19.9,79C15.2,69.2-10,17.4,5.7,3.6
	C8.3,1.3,11.7,0,15.2,0 M15.2-5.5c-4.8,0-9.5,1.7-13.1,5c-8.4,7.4-9.2,21.8-2.4,44.1c4.9,16,12.3,31.4,15,37.2l0.2,0.5l3.8,8l5.4-7
	c11.7-14.9,27.1-26.5,44.6-33.8l6.3-2.6l-3.9-5.6C63.6,29.7,37.1-5.5,15.2-5.5L15.2-5.5z"/>
<path class="st2" d="M118.2,33.3c49.6,0,95.2,26.7,113.2,71.6c1.6,4,1.6,8.6,0,12.6c-18,45-63.5,65.7-113.2,65.7S23,162.4,5,117.5
	c-1.6-4-1.6-8.6,0-12.6C23.1,60,68.6,33.3,118.2,33.3z"/>
<path class="st2" d="M8.8,13.3c-7.5,6.2,7.9,43.3,15.5,60.5c8.4-9.5,18.4-17.6,29.5-23.9C44.8,38.4,18.4,5.3,8.8,13.3z"/>
<path class="st0" d="M105.7,110.6C98,90.2,66.4,83.3,35.1,95.1c-11.6,4.2-22.2,11-30.9,19.8c0.2,0.8,0.4,1.6,0.7,2.4
	c10.1,25.3,28.9,42.9,52.3,53.5c1.9-0.6,3.8-1.2,5.7-1.9C94.3,157,113.4,130.9,105.7,110.6z"/>
<path class="st0" d="M231.4,117.3c0.3-0.8,0.5-1.5,0.7-2.4c-8.7-8.8-19.2-15.6-30.9-19.9c-31.3-11.8-62.9-4.9-70.5,15.5
	s11.4,46.5,42.7,58.3c1.9,0.7,3.8,1.4,5.8,2C202.5,160.2,221.3,142.5,231.4,117.3z"/>
<path class="st0" d="M65,52.1c25.6,0,48.6,20.8,48.6,46.4v45.2h9.4V98.5c0-25.6,23-46.4,48.6-46.4l0,0c10.4,0,20.6,3.5,28.8,10
	c-22-18.5-51.2-28.8-82-28.8s-60.2,10.4-82.3,29C44.3,55.7,54.5,52.1,65,52.1L65,52.1z"/>
<circle cx="89.4" cy="117.9" r="8.8"/>
<circle cx="118.2" cy="151.2" r="13.7"/>
<path class="st0" d="M118.2,186.7c-55.8,0-99.3-25.4-116.4-67.9c-2-4.9-2-10.3,0-15.1c18-44.8,63.6-73.8,116.4-73.8
	s98.4,29,116.4,73.8c2,4.9,2,10.3,0,15.1C217.6,161.3,174.1,186.7,118.2,186.7z M118.2,36.7c-49.9,0-93.1,27.3-110,69.5
	c-1.3,3.2-1.3,6.8,0,10c15.9,39.8,57.1,63.5,110,63.5s94-23.8,110-63.5c1.3-3.2,1.3-6.8,0-10C211.3,64,168.1,36.7,118.2,36.7z"/>
<circle cx="146.9" cy="117.9" r="8.8"/>
<path class="st0" d="M291.9,146.5V99l-6.2-0.7c-0.7-0.1-1.3-0.4-1.9-0.9c-0.5-0.4-0.8-1-0.8-1.7v-4h8.8v-5.4c0-2.9,0.4-5.8,1.4-8.5
	c0.8-2.3,2.1-4.5,3.9-6.3c1.7-1.7,3.7-3.1,6-3.9c2.5-0.9,5.2-1.4,7.9-1.3c2.3,0,4.7,0.4,6.9,1.1l-0.1,4.9c0,0.8-0.6,1.4-1.4,1.4
	c0,0,0,0-0.1,0c-0.9,0.1-2.1,0.1-3.6,0.1c-1.6,0-3.1,0.2-4.6,0.7c-1.3,0.4-2.6,1.2-3.6,2.1c-1.1,1.1-1.8,2.5-2.3,3.9
	c-0.6,1.9-0.8,4-0.8,6v5.1h16.1v7.1h-15.7v47.8H291.9z"/>
<path class="st0" d="M339.3,65.2v81.3h-9.8V65.2H339.3z"/>
<path class="st0" d="M403.5,90.6L372.3,163c-0.3,0.7-0.7,1.3-1.2,1.8c-0.7,0.5-1.5,0.7-2.3,0.7h-7.3l10.2-22.2l-23.1-52.6h8.5
	c0.7,0,1.4,0.2,2,0.6c0.5,0.4,0.8,0.9,1,1.4l15,35.2c0.6,1.6,1.1,3.2,1.5,4.9c0.5-1.7,1.1-3.4,1.7-4.9l14.5-35.1
	c0.2-0.6,0.6-1.1,1.1-1.5s1.2-0.6,1.8-0.6L403.5,90.6z"/>
<path class="st0" d="M425.6,73.1c0,0.9-0.2,1.8-0.6,2.7c-0.4,0.8-0.9,1.6-1.5,2.2c-0.7,0.6-1.4,1.2-2.3,1.5
	c-0.9,0.4-1.8,0.6-2.7,0.5c-0.9,0-1.8-0.2-2.7-0.5c-0.8-0.4-1.6-0.9-2.2-1.5c-0.6-0.6-1.1-1.4-1.5-2.2c-0.4-0.8-0.6-1.8-0.5-2.7
	c0-0.9,0.2-1.9,0.5-2.7c0.4-0.8,0.9-1.6,1.5-2.3c0.6-0.6,1.4-1.2,2.2-1.5c0.8-0.4,1.8-0.6,2.7-0.5c0.9,0,1.9,0.2,2.7,0.5
	c0.8,0.4,1.6,0.9,2.3,1.5s1.2,1.4,1.5,2.3C425.4,71.2,425.6,72.1,425.6,73.1z M423.5,90.6v55.9h-9.8V90.6H423.5z"/>
<path class="st0" d="M452.6,98.7c1.2-1.3,2.5-2.6,3.9-3.7c1.3-1.1,2.8-2,4.3-2.8s3.2-1.4,4.8-1.8c1.8-0.4,3.7-0.6,5.5-0.6
	c2.8-0.1,5.5,0.5,8.1,1.5c2.3,1,4.3,2.4,5.8,4.3c1.6,2,2.8,4.2,3.6,6.7c0.8,2.8,1.3,5.7,1.2,8.7v35.5h-9.9v-35.6
	c0-4.2-1-7.5-2.9-9.9c-1.9-2.3-4.9-3.5-8.8-3.5c-2.8,0-5.7,0.7-8.1,2.1c-2.6,1.5-5,3.4-7,5.7v41.2h-9.9V90.6h5.9
	c1.3-0.1,2.4,0.8,2.6,2L452.6,98.7z"/>
<path class="st0" d="M553.8,92.8v3.7c0,1.2-0.8,2-2.3,2.3l-6.3,0.8c2.4,4.9,2.5,10.5,0.3,15.5c-1,2.2-2.5,4.1-4.3,5.7
	c-1.9,1.6-4.2,2.9-6.6,3.6c-2.7,0.9-5.5,1.3-8.4,1.3c-2.5,0-5-0.3-7.4-0.9c-1,0.6-1.9,1.4-2.7,2.4c-0.6,0.7-0.9,1.6-0.9,2.5
	c0,1.2,0.6,2.4,1.6,3c1.3,0.8,2.8,1.3,4.3,1.5c2,0.3,4,0.5,6,0.6c2.3,0.1,4.6,0.2,7,0.4c2.3,0.2,4.6,0.5,7,0.9c2.1,0.4,4.1,1,6,2
	c1.7,0.9,3.2,2.2,4.3,3.8c1.2,1.9,1.7,4.1,1.6,6.3c0,2.4-0.6,4.8-1.8,7c-1.3,2.3-3,4.4-5.2,6c-2.5,1.9-5.3,3.3-8.3,4.2
	c-3.6,1.1-7.3,1.6-11,1.6c-3.6,0.1-7.2-0.4-10.7-1.2c-2.7-0.7-5.3-1.8-7.6-3.3c-1.9-1.2-3.4-2.8-4.5-4.7c-1-1.7-1.5-3.6-1.5-5.6
	c-0.1-2.6,0.9-5.1,2.6-7c2-2.1,4.4-3.6,7.1-4.6c-1.5-0.6-2.9-1.7-3.9-3c-1.5-2.2-1.8-5-1-7.5c0.3-0.9,0.8-1.8,1.3-2.6
	c0.6-0.9,1.4-1.7,2.2-2.5c0.9-0.8,2-1.5,3.1-2c-2.7-1.4-4.9-3.6-6.5-6.1c-1.6-2.7-2.4-5.8-2.3-8.9c0-2.6,0.5-5.1,1.6-7.4
	c1-2.2,2.5-4.1,4.4-5.7c2-1.6,4.3-2.8,6.7-3.6c2.8-0.9,5.6-1.3,8.5-1.3c2.3,0,4.6,0.3,6.8,0.8c2,0.5,3.9,1.3,5.7,2.3L553.8,92.8z
	 M543.8,149.5c0.1-1.2-0.4-2.4-1.2-3.3c-0.9-0.9-1.9-1.6-3.1-2c-1.5-0.5-3-0.8-4.5-1c-1.7-0.2-3.6-0.4-5.5-0.5l-5.9-0.3
	c-2-0.1-3.9-0.3-5.7-0.5c-1.9,0.9-3.6,2.1-5,3.6c-1.3,1.4-2,3.2-2,5.1c0,1.2,0.4,2.4,1,3.5c0.7,1.2,1.7,2.1,3,2.8
	c1.6,0.9,3.2,1.5,5,1.9c4.7,0.9,9.5,0.9,14.2,0c1.9-0.4,3.7-1.1,5.3-2c1.3-0.8,2.5-1.8,3.3-3.1C543.5,152.4,543.9,151,543.8,149.5
	L543.8,149.5z M526.1,119.2c1.8,0,3.6-0.2,5.2-0.8c1.4-0.5,2.7-1.3,3.8-2.3c1-1,1.8-2.2,2.3-3.6c0.5-1.5,0.8-3,0.8-4.5
	c0.1-3-1-6-3.1-8.2c-2.1-2-5.1-3-9-3s-7,1-9.1,3c-2.1,2.2-3.3,5.1-3.1,8.2c0,1.6,0.3,3.1,0.9,4.6c0.5,1.3,1.3,2.6,2.3,3.6
	c1.1,1,2.4,1.8,3.8,2.3C522.6,118.9,524.4,119.2,526.1,119.2L526.1,119.2z"/>
<path class="st0" d="M583.9,98.1c1.5-2.8,3.6-5.3,6.1-7.3c2.3-1.8,5.1-2.7,7.9-2.6c2.2-0.1,4.4,0.5,6.3,1.8l-1.1,12.6
	c-0.1,0.6-0.4,1.2-0.9,1.6c-0.5,0.3-1.1,0.5-1.7,0.4c-0.3,0-0.7,0-1.2,0s-1-0.1-1.5-0.1l-1.6-0.2c-0.5-0.1-1-0.1-1.5-0.1
	c-2.2-0.1-4.3,0.6-6,2c-1.6,1.5-2.9,3.4-3.8,5.5v34.8h-17.1V89.3H578c0.7,0,1.4,0.1,2.1,0.2c0.5,0.1,1,0.4,1.4,0.7
	c0.4,0.3,0.7,0.8,0.9,1.3c0.2,0.6,0.4,1.2,0.5,1.9L583.9,98.1z"/>
<path class="st0" d="M610.6,97.2c3.4-3,7.3-5.3,11.5-6.8c4.4-1.5,8.9-2.3,13.5-2.2c3.2,0,6.4,0.5,9.3,1.7c5.4,2.1,9.6,6.4,11.5,11.8
	c1,2.9,1.6,5.9,1.5,9v35.8h-7.8c-1.3,0.1-2.5-0.2-3.7-0.7c-1-0.6-1.7-1.6-2.1-2.8l-1.2-3.1c-1.4,1.2-2.8,2.3-4.1,3.2
	c-1.3,0.9-2.7,1.7-4.1,2.3c-1.4,0.7-3,1.1-4.5,1.4c-1.8,0.3-3.5,0.5-5.3,0.5c-2.4,0-4.8-0.3-7.1-1c-2-0.6-3.9-1.6-5.4-3
	s-2.7-3-3.5-4.9c-0.9-2.2-1.3-4.5-1.2-6.8c0-2.2,0.6-4.3,1.5-6.3c1.3-2.4,3.1-4.4,5.3-5.8c3.2-2,6.6-3.5,10.3-4.4
	c5.3-1.3,10.8-2,16.3-2v-2.4c0-3.3-0.7-5.8-2.1-7.3c-1.5-1.6-3.7-2.4-5.9-2.2c-1.7-0.1-3.4,0.2-5,0.7c-1.2,0.4-2.3,0.9-3.4,1.5
	c-1,0.5-2,1-3,1.5c-1.1,0.5-2.2,0.7-3.4,0.7c-1.1,0-2.1-0.3-3-0.9c-0.8-0.6-1.5-1.3-2-2.1L610.6,97.2z M641.4,123.2
	c-2.8,0.1-5.7,0.4-8.4,0.9c-1.8,0.3-3.6,0.9-5.2,1.7c-1.1,0.5-2,1.3-2.7,2.3c-0.5,0.8-0.8,1.8-0.8,2.8c0,2,0.5,3.3,1.6,4.1
	c1.4,0.9,3,1.3,4.7,1.2c2,0,4-0.4,5.8-1.2c1.9-0.9,3.6-2.2,5-3.8L641.4,123.2z"/>
<path class="st0" d="M714.3,102.9c-0.4,0.6-0.9,1.1-1.5,1.5s-1.3,0.6-2,0.5c-0.8,0-1.6-0.2-2.3-0.6s-1.4-0.9-2.3-1.4
	c-1-0.5-2-1-3-1.4c-1.4-0.4-2.8-0.6-4.2-0.6c-1.9-0.1-3.7,0.3-5.4,1.2c-1.5,0.8-2.8,1.9-3.8,3.4c-1.1,1.6-1.8,3.4-2.2,5.3
	c-0.5,2.3-0.7,4.6-0.7,7c0,5.5,1.1,9.7,3.2,12.6c2,2.9,5.3,4.5,8.8,4.4c1.6,0.1,3.2-0.2,4.7-0.7c1.1-0.4,2.1-1,3-1.7l2.2-1.7
	c0.7-0.5,1.6-0.8,2.6-0.8c1.2-0.1,2.4,0.5,3.1,1.5l5,6.1c-1.6,1.9-3.5,3.6-5.6,4.9c-1.9,1.2-3.9,2.2-6,3c-2,0.7-4.1,1.2-6.2,1.5
	c-2,0.3-4,0.4-6,0.4c-3.4,0-6.8-0.7-10-2s-6-3.3-8.4-5.8c-2.5-2.7-4.5-5.8-5.7-9.3c-1.5-4-2.2-8.3-2.1-12.6c0-3.9,0.6-7.8,1.8-11.6
	c1.2-3.5,3-6.6,5.5-9.3c2.5-2.7,5.5-4.8,8.9-6.2c3.9-1.6,8.1-2.3,12.3-2.3c4-0.1,8.1,0.6,11.8,2.1c3.4,1.5,6.5,3.6,9.2,6.3
	L714.3,102.9z"/>
<path class="st0" d="M753.6,88.4c4-0.1,8.1,0.6,11.9,2c3.4,1.3,6.6,3.3,9.2,5.9c2.6,2.6,4.7,5.8,6,9.2c1.5,3.9,2.2,8.1,2.1,12.3
	c0.1,4.2-0.7,8.4-2.1,12.3c-1.3,3.5-3.4,6.7-6,9.3c-2.6,2.6-5.7,4.6-9.2,5.9c-7.7,2.8-16.1,2.8-23.8,0c-3.5-1.3-6.6-3.3-9.3-5.9
	c-2.6-2.6-4.7-5.8-6-9.3c-1.5-3.9-2.2-8.1-2.1-12.3c-0.1-4.2,0.6-8.3,2.1-12.3c1.3-3.5,3.4-6.6,6-9.2s5.8-4.6,9.3-5.9
	C745.5,89,749.6,88.3,753.6,88.4z M753.6,134.7c3.9,0,6.8-1.4,8.7-4.2c1.9-2.8,2.8-7,2.8-12.7s-0.9-9.9-2.8-12.6s-4.8-4.1-8.7-4.1
	c-4.1,0-7,1.4-8.9,4.1c-1.9,2.8-2.8,7-2.8,12.6c0,5.7,0.9,9.9,2.8,12.7C746.6,133.3,749.6,134.7,753.6,134.7z"/>
<path class="st0" d="M820.5,88.4c4-0.1,8.1,0.6,11.9,2c3.4,1.3,6.6,3.3,9.2,5.9c2.6,2.6,4.6,5.8,6,9.2c1.5,3.9,2.2,8,2.1,12.2
	c0.1,4.2-0.7,8.4-2.1,12.3c-1.3,3.5-3.3,6.7-6,9.3c-2.6,2.6-5.7,4.6-9.2,5.9c-3.8,1.4-7.8,2.1-11.9,2.1c-4.1,0.1-8.1-0.6-11.9-2.1
	c-3.5-1.3-6.6-3.3-9.3-5.9c-2.6-2.6-4.7-5.8-6-9.3c-1.5-3.9-2.2-8.1-2.1-12.3c-0.1-4.2,0.6-8.3,2.1-12.2c1.3-3.5,3.4-6.6,6-9.2
	s5.8-4.6,9.3-5.9C812.4,89,816.4,88.3,820.5,88.4z M820.5,134.7c3.9,0,6.8-1.4,8.7-4.2c1.9-2.8,2.8-7,2.8-12.7s-0.9-9.9-2.8-12.6
	c-1.9-2.8-4.8-4.1-8.7-4.1c-4,0-7,1.4-8.9,4.1s-2.8,7-2.8,12.6c0,5.7,0.9,9.9,2.8,12.7C813.5,133.3,816.4,134.7,820.5,134.7z"/>
<path class="st0" d="M876.7,95.5c1.1-1,2.2-2,3.4-2.9c1.2-0.9,2.4-1.6,3.8-2.2s2.9-1.1,4.4-1.4c1.7-0.4,3.4-0.5,5.1-0.5
	c2.9-0.1,5.7,0.5,8.3,1.6c2.3,1,4.4,2.6,6.1,4.5c1.7,2,3,4.4,3.8,6.9c0.9,2.8,1.3,5.7,1.3,8.7v36.3h-17.1v-36.4
	c0.1-2.3-0.5-4.6-1.9-6.5c-1.4-1.6-3.5-2.5-5.7-2.4c-1.8,0-3.6,0.4-5.3,1.2c-1.7,0.9-3.3,1.9-4.8,3.2v40.9H861V89.3h10.6
	c1.9-0.2,3.7,1,4.2,2.9L876.7,95.5z"/>
<path class="st0" d="M714,187.2h-40c-0.5,0-0.7,0.1-0.8,0.2c-0.2,0.2-0.2,0.5-0.2,0.7v4.2c0,0.3,0,0.5,0.2,0.8
	c0.2,0.1,0.5,0.2,0.8,0.2h40c0.5,0,0.7-0.1,0.8-0.2c0.2-0.2,0.2-0.5,0.2-0.7v-4.2c0-0.5-0.1-0.6-0.2-0.7
	C714.6,187.2,714.3,187.2,714,187.2z"/>
<path class="st0" d="M677.9,212.7c0.8,0.6,1.6,1,2.6,1.2c1.2,0.3,2.5,0.4,3.7,0.4c2.8,0,5.4,0,7.9,0s4.7-0.1,6.8-0.2
	s4.3-0.2,6.3-0.3s4.2-0.3,6.3-0.5c0.3,0,0.6-0.1,0.9-0.2c0.1-0.1,0.2-0.2,0.1-0.5l-0.4-3.6c0-0.4-0.1-0.5-0.2-0.6s-0.1-0.1-0.6-0.1
	c-1.8,0.2-3.7,0.3-5.6,0.4s-3.9,0.2-5.8,0.2s-4.1,0.1-6.4,0.1s-4.8,0-7.3,0c-0.6,0-1.2,0-1.8-0.2c-0.5-0.2-0.8-0.6-0.8-1.2v-1h27.3
	c0.3,0,0.6,0,0.8-0.2s0.2-0.5,0.2-0.7v-9.4c0-0.5-0.1-0.6-0.2-0.7s-0.3-0.2-0.8-0.2h-34c-0.3,0-0.6,0-0.8,0.2
	c-0.1,0.1-0.2,0.3-0.2,0.8v2.6c0,0.8,0.3,1.1,1,1.1h27.3v1.9h-27.4c-0.5,0-0.6,0.1-0.8,0.2c-0.2,0.2-0.2,0.4-0.2,0.7v4.3
	c0,1.1,0.1,2.3,0.5,3.3C676.8,211.4,677.3,212.1,677.9,212.7z"/>
<path class="st0" d="M711.2,169.7h-34.4c-0.3,0-0.5,0-0.8,0.2c-0.1,0.1-0.2,0.3-0.2,0.8v3.9c0,0.3,0,0.5,0.2,0.8
	c0.1,0.1,0.3,0.2,0.8,0.2h4.9v3.9h-5.1c-0.5,0-0.7,0.1-0.8,0.2c-0.2,0.2-0.2,0.5-0.2,0.7v3.9c0,0.3,0,0.5,0.2,0.7
	c0.1,0.1,0.3,0.2,0.8,0.2h34.9c0.5,0,0.7-0.1,0.8-0.2c0.2-0.2,0.2-0.5,0.2-0.7v-3.9c0-0.3,0-0.5-0.2-0.7s-0.5-0.2-0.8-0.2h-5.1v-4
	h4.8c0.3,0,0.6,0,0.8-0.2s0.2-0.5,0.2-0.7v-3.9c0-0.3-0.1-0.5-0.2-0.7C711.9,169.8,711.7,169.7,711.2,169.7z M697.8,179.3h-7.5v-3.8
	h7.5V179.3z"/>
<path class="st0" d="M762.3,169.9c-0.1-0.1-0.3-0.2-0.8-0.2h-6.6c-0.5,0-0.7,0.1-0.8,0.2c-0.2,0.2-0.2,0.5-0.2,0.7v41.7
	c0,0.5,0.1,0.6,0.2,0.8c0.2,0.2,0.5,0.2,0.8,0.2h6.6c0.3,0,0.6,0,0.8-0.2c0.1-0.1,0.2-0.2,0.2-0.7v-19.2h4.6c0.5,0,0.7-0.1,0.8-0.2
	c0.2-0.2,0.3-0.5,0.2-0.7v-5.5c0-0.3,0-0.5-0.2-0.7s-0.5-0.2-0.8-0.2h-4.6v-15.2C762.5,170.4,762.5,170.1,762.3,169.9z"/>
<path class="st0" d="M750.4,209.8c0.1-0.2,0.2-0.4,0.2-0.6l-0.5-5.5c-0.1-0.5-0.2-0.7-0.3-0.8c-0.2-0.1-0.4-0.2-0.7-0.1
	c-2.4,0.2-4.6,0.4-6.8,0.5s-4.4,0.2-6.7,0.3c-1,0.1-2-0.2-2.8-0.8c-0.6-0.8-0.8-1.7-0.8-2.7V195c-0.1-0.4,0.1-0.8,0.4-1.1
	c0.3-0.2,0.7-0.3,1.1-0.3h14.1c0.3,0,0.6-0.1,0.8-0.3c0.2-0.2,0.3-0.4,0.2-0.7v-15c0-1.2-0.1-2.5-0.3-3.7c-0.2-0.9-0.6-1.7-1.1-2.4
	c-0.5-0.6-1.2-1.1-2-1.3c-1-0.3-2-0.4-3-0.4h-17.8c-0.5,0-0.6,0.1-0.8,0.2c-0.2,0.2-0.2,0.5-0.2,0.7v5.3c0,0.3,0,0.5,0.2,0.8
	c0.1,0.1,0.3,0.2,0.8,0.2h12.9c0.7-0.1,1.4,0.1,2,0.5c0.5,0.4,0.7,1.3,0.7,2.5v4.9c0.1,0.4-0.1,0.8-0.4,1.1
	c-0.3,0.2-0.7,0.3-1.1,0.3h-14.1c-0.3,0-0.6,0-0.8,0.2c-0.1,0.1-0.2,0.3-0.2,0.7v13.6c0,3.5,0.7,6.1,1.9,7.6s3.4,2.4,6.3,2.4
	s6-0.1,8.9-0.2s5.9-0.3,9-0.6C749.9,210.1,750.2,210,750.4,209.8z"/>
<path class="st0" d="M860,169.9c-0.1-0.1-0.3-0.2-0.8-0.2h-6.6c-0.5,0-0.7,0.1-0.8,0.2c-0.2,0.2-0.2,0.5-0.2,0.7v41.7
	c0,0.5,0.1,0.6,0.2,0.8c0.2,0.2,0.5,0.2,0.8,0.2h6.6c0.5,0,0.6-0.1,0.8-0.2s0.2-0.2,0.2-0.7v-19.2h4.6c0.5,0,0.7-0.1,0.8-0.2
	s0.2-0.4,0.2-0.7v-5.5c0-0.3,0-0.5-0.2-0.7s-0.5-0.2-0.8-0.2h-4.6v-15.2C860.2,170.4,860.2,170.1,860,169.9z"/>
<path class="st0" d="M848.1,209.8c0.1-0.2,0.2-0.4,0.2-0.6l-0.5-5.5c-0.1-0.5-0.2-0.7-0.3-0.8c-0.2-0.1-0.4-0.2-0.7-0.1
	c-2.3,0.2-4.6,0.4-6.8,0.5s-4.4,0.2-6.7,0.3c-1,0.1-2-0.2-2.8-0.8c-0.6-0.8-0.8-1.7-0.8-2.7V195c-0.1-0.4,0.1-0.8,0.4-1.1
	c0.3-0.2,0.7-0.3,1.1-0.3h14.1c0.3,0,0.6-0.1,0.8-0.3c0.2-0.2,0.3-0.4,0.2-0.7v-15c0-1.2-0.1-2.5-0.3-3.7c-0.2-0.9-0.6-1.7-1.1-2.4
	c-0.5-0.6-1.2-1.1-1.9-1.3c-1-0.3-2-0.4-3-0.4h-17.8c-0.5,0-0.6,0.1-0.8,0.2c-0.2,0.2-0.2,0.5-0.2,0.7v5.3c0,0.3,0,0.5,0.2,0.8
	c0.1,0.1,0.3,0.2,0.8,0.2h12.9c0.7-0.1,1.4,0.1,2,0.5c0.5,0.4,0.7,1.3,0.7,2.5v4.9c0.1,0.4-0.1,0.8-0.4,1.1
	c-0.3,0.2-0.7,0.3-1.1,0.3h-14.1c-0.3,0-0.5,0-0.8,0.2c-0.1,0.1-0.2,0.3-0.2,0.7v13.6c0,3.5,0.6,6.1,1.9,7.6s3.4,2.4,6.3,2.4
	s6-0.1,8.9-0.2s5.9-0.3,9-0.6C847.6,210.1,847.9,210,848.1,209.8z"/>
<path class="st0" d="M784.3,212.8c1.4,1,3,1.8,4.7,2.2c4.6,1.1,9.4,1.1,13.9,0c1.7-0.4,3.3-1.2,4.7-2.2c1.1-0.8,2-1.9,2.6-3.2
	c0.5-1.2,0.8-2.6,0.8-3.9s-0.3-2.7-0.8-3.9c-0.6-1.3-1.5-2.3-2.6-3.2c-1.4-1-3-1.7-4.6-2.1c-4.5-1.1-9.3-1.1-13.8,0
	c-1.7,0.4-3.3,1.2-4.7,2.2c-1.1,0.8-2,1.9-2.6,3.2c-0.6,1.2-0.8,2.6-0.8,3.9s0.3,2.7,0.8,3.9C782.3,210.9,783.2,212,784.3,212.8z
	 M789.9,204.1c0.4-0.4,0.9-0.8,1.5-1c0.7-0.3,1.4-0.4,2.1-0.5c1.6-0.2,3.2-0.2,4.8,0c0.7,0.1,1.4,0.2,2.1,0.5c0.6,0.2,1.1,0.6,1.5,1
	s0.6,1,0.6,1.6s-0.2,1.2-0.6,1.6c-0.4,0.4-0.9,0.8-1.5,1c-0.7,0.2-1.4,0.4-2.1,0.5c-1.6,0.2-3.2,0.2-4.8,0c-0.7-0.1-1.4-0.2-2.1-0.5
	c-0.6-0.2-1.1-0.6-1.5-1s-0.6-1-0.6-1.6S789.5,204.5,789.9,204.1z"/>
<path class="st0" d="M796.3,173.5c-1.2-1.3-2.6-2.3-4.2-2.9c-4.3-1.5-9.1-1.5-13.4,0c-1.6,0.6-3,1.6-4.2,2.9c-1,1.1-1.7,2.4-2.2,3.8
	c-0.4,1.3-0.6,2.7-0.6,4.1s0.2,2.8,0.6,4.1c0.4,1.4,1.1,2.7,2.1,3.9c1.2,1.3,2.6,2.3,4.2,2.9c4.4,1.5,9.1,1.5,13.5,0
	c1.6-0.6,3-1.6,4.2-2.9c1-1.1,1.7-2.4,2.1-3.9c0.4-1.3,0.6-2.7,0.6-4.1s-0.2-2.7-0.6-4.1C798.1,175.9,797.3,174.6,796.3,173.5z
	 M790.3,183.5c-0.3,0.6-0.8,1.1-1.3,1.5s-1.1,0.7-1.7,0.8c-1.2,0.4-2.5,0.4-3.7,0c-0.6-0.2-1.2-0.5-1.7-0.8c-0.5-0.4-1-0.9-1.3-1.5
	c-0.4-0.7-0.5-1.4-0.5-2.2c0-0.8,0.2-1.5,0.5-2.2c0.3-0.6,0.8-1.1,1.3-1.5s1.1-0.6,1.7-0.8c1.2-0.4,2.5-0.4,3.7,0
	c0.6,0.2,1.2,0.5,1.7,0.8c0.5,0.4,1,0.9,1.3,1.5C791,180.5,791,182.2,790.3,183.5L790.3,183.5z"/>
<path class="st0" d="M812,170.7c0-0.3,0-0.5-0.2-0.7c-0.1-0.1-0.3-0.2-0.8-0.2h-6.6c-0.3,0-0.5,0-0.8,0.2c-0.2,0.2-0.2,0.5-0.2,0.8
	v22.5c0,0.3,0,0.5,0.2,0.7s0.5,0.2,0.8,0.2h6.6c0.5,0,0.6-0.1,0.8-0.2s0.2-0.4,0.2-0.7V170.7z"/>
<path class="st0" d="M909.7,213.5c0.6-0.1,0.8-0.2,0.9-0.3c0.1-0.2,0.2-0.5,0.1-0.7l0,0l-0.5-5.4c-0.1-0.6-0.2-0.7-0.3-0.8
	c-0.2-0.1-0.5-0.2-0.8-0.1c-3.9,0.3-7.8,0.6-11.6,0.7s-7.6,0.1-11.4,0c-1.6,0.3-3.2-0.7-3.6-2.3c-0.1-0.4-0.1-0.8,0-1.2v-2.3
	c0-0.3,0-0.5-0.2-0.7c-0.2-0.1-0.3-0.2-0.8-0.2h-6.6c-0.3,0-0.6,0-0.8,0.2s-0.2,0.5-0.2,0.7v3.2c0,3.5,0.6,6,1.9,7.6
	s3.4,2.3,6.3,2.4c4.7,0.1,9.3,0.1,13.9,0S905.2,214,909.7,213.5z"/>
<path class="st0" d="M912.6,197.3c0.2-0.2,0.3-0.5,0.2-0.7v-5.5c0-0.3,0-0.5-0.2-0.7c-0.1-0.1-0.3-0.2-0.8-0.2h-3v-0.3
	c0.2-2.7,0.3-5.4,0.4-8s0.2-4.8,0.2-6.7c0.1-1.5-0.3-3-1.2-4.1c-1-0.9-2.3-1.4-3.7-1.3h-29.3c-0.5,0-0.7,0.1-0.8,0.2
	c-0.2,0.2-0.2,0.5-0.2,0.7v4.9c0,0.3,0.1,0.5,0.2,0.8c0.2,0.1,0.3,0.2,0.8,0.2h23.7c0.5,0,1.1,0.1,1.5,0.5c0.4,0.5,0.6,1.1,0.5,1.8
	v1.2h-26.2c-0.5,0-0.6,0.1-0.8,0.2c-0.2,0.2-0.3,0.5-0.2,0.7v4.9c0,0.5,0.1,0.6,0.2,0.7c0.2,0.2,0.5,0.2,0.8,0.2h26l-0.2,3.3h-28.7
	c-0.3,0-0.6,0-0.8,0.2c-0.2,0.1-0.2,0.4-0.2,0.7v5.5c0,0.3,0,0.5,0.2,0.7c0.1,0.1,0.3,0.2,0.8,0.2H888v5.5c0,0.3,0,0.5,0.2,0.7
	s0.5,0.3,0.8,0.2h6.6c0.3,0,0.6,0,0.8-0.2c0.2-0.1,0.2-0.3,0.2-0.7v-5.4h15.2C912.3,197.5,912.5,197.4,912.6,197.3z"/>
</svg>
