<svg xmlns="http://www.w3.org/2000/svg" width="288.513" height="210.561" viewBox="989.603 71.885 288.513 210.561"><path d="M1254.864 282.445h-242.007c-12.844 0-23.253-10.453-23.253-23.253V95.138c0-12.8 10.408-23.253 23.253-23.253h242.007c12.8 0 23.253 10.453 23.253 23.253v164.055c0 12.844-10.453 23.252-23.253 23.252zM1012.856 82.957c-6.732 0-12.18 5.448-12.18 12.18v164.055c0 6.732 5.448 12.18 12.18 12.18h242.007c6.732 0 12.18-5.448 12.18-12.18V95.138c0-6.732-5.448-12.18-12.18-12.18h-242.007z"/><path d="M1106.178 225.132v-95.935l83.046 47.967-83.046 47.968zm11.073-76.756v57.579l49.828-28.789-49.828-28.79zm-86.014-70.955h11.073v199.488h-11.073zm194.173 0h11.073v199.488h-11.073z"/><path fill="none" d="M956.695 0h354.33v354.33h-354.33z"/></svg>