<svg xmlns="http://www.w3.org/2000/svg" width="215.477" height="294.891" viewBox="1030.573 29.719 215.477 294.891"><path d="M1216.729 324.611h-147.224l20.285-41.9c1.594-3.322 5.581-4.695 8.858-3.1 3.322 1.595 4.695 5.581 3.1 8.858l-11.029 22.81h110.374l-3.853-23.829c-.576-3.632 1.86-7.042 5.492-7.618 3.632-.576 7.042 1.86 7.618 5.492l6.379 39.287z"/><path fill="none" d="M956.695 0h354.33v354.33h-354.33z"/><path d="M1212.787 293.075h-107.761c-30.251 0-55.586-22.633-58.996-52.707l-15.458-136.816V48.1c0-10.143 8.238-18.381 18.381-18.381h20.374c18.337 0 33.218 14.926 33.218 33.218v40.261l6.245 54.965-13.199 1.506-6.289-56.073V62.982c0-10.984-8.947-19.931-19.931-19.931h-20.374c-2.79 0-5.094 2.303-5.094 5.093v55.054l15.369 135.664c2.657 23.297 22.323 40.881 45.797 40.881h107.761c10.984 0 19.931-8.947 19.931-19.931v-22.101a3.365 3.365 0 0 0-3.366-3.366h-125.344l-4.739-41.678 13.199-1.506 3.41 29.897h113.474c9.168 0 16.654 7.485 16.654 16.654v22.101c.001 18.336-14.925 33.262-33.262 33.262z"/><path d="M1207.738 198.558h-117.46c-12.756 0-23.164-10.364-23.164-23.164 0-12.756 10.364-23.164 23.164-23.164h117.46c12.756 0 23.164 10.364 23.164 23.164s-10.408 23.164-23.164 23.164zm-117.461-32.997c-5.448 0-9.877 4.429-9.877 9.877s4.429 9.877 9.877 9.877h117.46c5.448 0 9.877-4.429 9.877-9.877s-4.429-9.877-9.877-9.877h-117.46z"/></svg>