<svg xmlns="http://www.w3.org/2000/svg" width="209.586" height="319.251" viewBox="1029.067 17.539 209.586 319.251"><path fill="none" d="M956.695 0h354.33v354.33h-354.33z"/><path d="M1205.435 314.822h-143.149c-18.337 0-33.218-14.882-33.218-33.218V90.974c0-18.337 14.882-33.218 33.218-33.218h143.149c18.337 0 33.218 14.882 33.218 33.218v190.63c0 18.336-14.882 33.218-33.218 33.218zm-143.15-243.779c-10.984 0-19.931 8.947-19.931 19.931v190.63c0 10.984 8.947 19.931 19.931 19.931h143.149c10.984 0 19.931-8.947 19.931-19.931V90.974c0-10.984-8.947-19.931-19.931-19.931h-143.149z"/><path d="M1184.485 64.399h-13.287V37.47a6.636 6.636 0 0 0-6.644-6.644h-61.388a6.636 6.636 0 0 0-6.644 6.644v26.929h-13.287V37.47c0-10.984 8.947-19.931 19.931-19.931h61.432c10.984 0 19.931 8.947 19.931 19.931v26.929h-.044zm-118.036 272.392c-12.313 0-22.367-10.054-22.367-22.367 0-3.499.797-6.821 2.347-9.966l11.914 5.935a8.977 8.977 0 0 0-.93 4.031c0 5.005 4.075 9.08 9.08 9.08s9.08-4.075 9.08-9.08c0-1.24-.266-2.436-.753-3.588l12.224-5.226a22.265 22.265 0 0 1 1.816 8.814c-.044 12.313-10.054 22.367-22.411 22.367zm134.822 0c-12.313 0-22.367-10.054-22.367-22.367 0-3.012.576-5.935 1.772-8.725l12.224 5.182c-.487 1.107-.709 2.303-.709 3.543 0 5.005 4.075 9.08 9.08 9.08s9.08-4.075 9.08-9.08c0-1.417-.31-2.79-.93-4.031l11.914-5.935a22.137 22.137 0 0 1 2.347 9.966c-.044 12.313-10.098 22.367-22.411 22.367zm-165.56-243.248h196.299v13.287h-196.299zm0 172.249h196.299v13.287h-196.299zm108.336-39.729c-1.284 0-2.569-.266-3.809-.753-3.499-1.462-5.846-4.695-6.068-8.504l-1.727-26.398-22.721-13.553c-3.233-1.949-5.094-5.492-4.784-9.257.31-3.765 2.657-6.998 6.201-8.415l24.582-9.788 5.846-25.778a9.917 9.917 0 0 1 7.352-7.441c3.676-.886 7.485.399 9.921 3.278l16.919 20.33 26.309-2.392c3.809-.31 7.352 1.462 9.345 4.695a9.791 9.791 0 0 1-.089 10.453l-14.129 22.323 10.408 24.316c1.506 3.499.886 7.441-1.594 10.32a9.865 9.865 0 0 1-9.965 3.145l-25.645-6.511-19.887 17.406a9.448 9.448 0 0 1-6.465 2.524zm-21.57-57.092l18.337 10.94c2.79 1.683 4.606 4.606 4.783 7.84l1.373 21.304 16.078-14.04c2.48-2.126 5.802-2.923 8.947-2.126l20.684 5.271-8.415-19.621a9.899 9.899 0 0 1 .709-9.168l11.383-18.027-21.26 1.949c-3.278.266-6.422-1.019-8.504-3.543l-13.642-16.432-4.739 20.817a9.844 9.844 0 0 1-5.979 6.998l-19.755 7.838zm76.845 30.871zm-2.834-26.575zm-110.197 75.517c-15.236 0-27.638-12.402-27.638-27.638 0-15.236 12.402-27.638 27.638-27.638 15.236 0 27.638 12.402 27.638 27.638 0 15.236-12.402 27.638-27.638 27.638zm0-41.988c-7.928 0-14.35 6.422-14.35 14.35s6.422 14.35 14.35 14.35 14.35-6.422 14.35-14.35c.001-7.928-6.466-14.35-14.35-14.35z"/></svg>