<svg xmlns="http://www.w3.org/2000/svg" width="275.89" height="279.046" viewBox="994.918 24.305 275.89 279.046"><path d="M1252.118 303.351h-81.983a6.635 6.635 0 0 1-6.644-6.644 6.636 6.636 0 0 1 6.644-6.644h69.803l16.388-191.072h-96.51l5.138 59.793a6.62 6.62 0 0 1-6.068 7.175c-3.632.31-6.865-2.392-7.175-6.068l-6.334-74.188h125.433l-18.692 217.648z"/><path d="M1208.048 133.361a6.636 6.636 0 0 1-6.644-6.644V61.831l35.566-35.566c2.613-2.613 6.821-2.613 9.39 0 2.569 2.613 2.613 6.821 0 9.39l-31.668 31.668v59.395a6.635 6.635 0 0 1-6.644 6.643z"/><path d="M1260.577 133.361h-105.015c-3.676 0-6.644-2.968-6.644-6.644s2.967-6.644 6.644-6.644h105.059c3.676 0 6.644 2.968 6.644 6.644s-3.012 6.644-6.688 6.644zm-62.539 94.252h-188.459v-6.644c0-48.898 38.755-82.913 94.252-82.913s94.252 34.06 94.252 82.78v6.777h-.045zm-174.906-13.288h161.353c-3.499-43.45-42.254-62.982-80.699-62.982s-77.155 19.533-80.654 62.982zm144.921 89.026h-128.445c-16.565 0-29.985-13.465-29.985-29.985v-17.584a6.635 6.635 0 0 1 6.644-6.644 6.635 6.635 0 0 1 6.644 6.644v17.584c0 9.213 7.485 16.698 16.698 16.698h128.445c9.213 0 16.698-7.485 16.698-16.698v-17.584a6.636 6.636 0 0 1 6.644-6.644 6.635 6.635 0 0 1 6.644 6.644v17.584c-.002 16.564-13.422 29.985-29.987 29.985z"/><path d="M1185.769 262.426h-103.73a6.635 6.635 0 0 1-6.644-6.644 6.636 6.636 0 0 1 6.644-6.644h103.73c7.53 0 13.686-4.828 13.686-10.763s-6.112-10.763-13.686-10.763h-163.878c-7.53 0-13.686 4.828-13.686 10.763s6.112 10.763 13.686 10.763h17.672a6.635 6.635 0 0 1 6.644 6.644 6.636 6.636 0 0 1-6.644 6.644h-17.672c-14.882 0-26.973-10.807-26.973-24.05s12.091-24.05 26.973-24.05h163.878c14.882 0 26.973 10.807 26.973 24.05.001 13.243-12.135 24.05-26.973 24.05z"/><path d="M1060.779 286.387l-25.91-25.91c-2.613-2.613-2.613-6.821 0-9.39s6.821-2.613 9.39 0l16.521 16.521 16.521-16.521c2.613-2.613 6.821-2.613 9.39 0 2.569 2.613 2.613 6.821 0 9.39l-25.912 25.91z"/><circle cx="1205.435" cy="158.518" r="6.644"/><circle cx="1224.878" cy="180.177" r="6.644"/><circle cx="1235.021" cy="151.299" r="6.644"/><path fill="none" d="M956.695 0h354.33v354.33h-354.33z"/><path fill="none" d="M956.695 0h354.33v354.33h-354.33z"/></svg>