<svg xmlns="http://www.w3.org/2000/svg" width="210.147" height="319.251"><path fill="none" d="M-72.092-17.004h354.33v354.33h-354.33z"/><path d="M71.988 126.19c3.986 0 7.618.576 10.94 1.772 3.322 1.196 6.156 2.835 8.504 5.005s4.208 4.739 5.492 7.751c1.329 3.012 1.993 6.378 1.993 10.098 0 3.189-.487 6.156-1.417 8.858-.93 2.702-2.215 5.315-3.765 7.751a51.806 51.806 0 0 1-5.536 7.175 457.02 457.02 0 0 1-6.644 7.042l-19.488 19.931c1.905-.576 3.809-.974 5.625-1.284s3.588-.443 5.271-.443h22.19c1.594 0 2.879.443 3.809 1.329.93.886 1.417 2.082 1.417 3.543v8.858h-59.35v-4.916c0-.974.221-2.037.62-3.1s1.107-2.082 1.993-3.012l26.265-26.309a105.999 105.999 0 0 0 5.891-6.422c1.727-2.037 3.189-4.031 4.385-6.024s2.082-4.031 2.702-6.068c.62-2.037.93-4.208.93-6.467 0-2.082-.31-3.898-.886-5.492-.576-1.594-1.462-2.879-2.569-3.986a10.746 10.746 0 0 0-3.986-2.436c-1.55-.531-3.278-.797-5.182-.797-3.543 0-6.466.886-8.77 2.702-2.303 1.772-3.898 4.208-4.828 7.219-.443 1.506-1.107 2.613-1.993 3.278-.886.664-1.993.974-3.366.974-.576 0-1.24-.044-1.993-.177l-7.751-1.373c.576-4.163 1.772-7.795 3.455-10.896 1.727-3.145 3.853-5.758 6.422-7.84s5.536-3.676 8.858-4.739a38.536 38.536 0 0 1 10.762-1.505zm99.213 44.202c0 7.53-.797 14.085-2.436 19.621-1.595 5.581-3.853 10.143-6.688 13.775-2.835 3.632-6.201 6.334-10.098 8.105-3.898 1.772-8.061 2.657-12.579 2.657s-8.681-.886-12.534-2.657c-3.853-1.772-7.175-4.473-10.01-8.105-2.835-3.632-5.049-8.238-6.644-13.775s-2.392-12.092-2.392-19.621c0-7.574.797-14.129 2.392-19.665s3.809-10.143 6.644-13.775c2.835-3.632 6.156-6.334 10.01-8.105 3.853-1.772 8.017-2.657 12.534-2.657s8.681.886 12.579 2.657c3.898 1.772 7.264 4.473 10.098 8.105 2.835 3.632 5.094 8.194 6.688 13.775s2.436 12.091 2.436 19.665zm-15.281 0c0-6.245-.443-11.427-1.373-15.546s-2.126-7.397-3.676-9.788c-1.55-2.436-3.277-4.119-5.271-5.093-1.993-.974-4.075-1.462-6.201-1.462-2.126 0-4.163.487-6.112 1.462-1.993.974-3.72 2.702-5.226 5.093-1.506 2.436-2.702 5.714-3.632 9.788-.886 4.119-1.329 9.301-1.329 15.546 0 6.245.443 11.427 1.329 15.546s2.082 7.397 3.632 9.788c1.506 2.436 3.278 4.119 5.226 5.093 1.993.974 4.031 1.462 6.112 1.462 2.17 0 4.208-.487 6.201-1.462 1.993-.974 3.765-2.702 5.271-5.093 1.55-2.436 2.746-5.714 3.676-9.788.929-4.119 1.373-9.301 1.373-15.546z" fill="#00A64E"/><g fill="#00A64E"><path d="M176.649 297.818H33.499C15.162 297.818.28 282.936.28 264.6V73.97c0-18.337 14.882-33.218 33.219-33.218h143.149c18.337 0 33.218 14.882 33.218 33.218V264.6c0 18.336-14.882 33.218-33.217 33.218zM33.499 54.039c-10.984 0-19.931 8.947-19.931 19.931V264.6c0 10.984 8.947 19.931 19.931 19.931h143.149c10.984 0 19.931-8.947 19.931-19.931V73.97c0-10.984-8.947-19.931-19.931-19.931H33.499z"/><path d="M155.698 47.395h-13.287V20.466a6.636 6.636 0 0 0-6.644-6.644H74.379a6.636 6.636 0 0 0-6.644 6.644v26.929H54.448V20.466C54.448 9.482 63.395.535 74.379.535h61.432c10.984 0 19.931 8.947 19.931 19.931v26.929h-.044zM37.662 319.787c-12.313 0-22.367-10.054-22.367-22.367 0-3.499.797-6.821 2.347-9.966l11.914 5.935a8.977 8.977 0 0 0-.93 4.031c0 5.005 4.075 9.08 9.08 9.08s9.08-4.075 9.08-9.08c0-1.24-.266-2.436-.753-3.588l12.224-5.226a22.265 22.265 0 0 1 1.816 8.814c-.043 12.313-10.053 22.367-22.411 22.367zm134.822 0c-12.313 0-22.367-10.054-22.367-22.367 0-3.012.576-5.935 1.772-8.725l12.224 5.182c-.487 1.107-.709 2.303-.709 3.543 0 5.005 4.075 9.08 9.08 9.08s9.08-4.075 9.08-9.08c0-1.417-.31-2.79-.93-4.031l11.914-5.935a22.137 22.137 0 0 1 2.347 9.966c-.044 12.313-10.098 22.367-22.411 22.367zM6.924 76.539h196.299v13.287H6.924zm0 172.249h196.299v13.287H6.924z"/></g></svg>