<svg version="1.1" id="Layer_1" xmlns="http://www.w3.org/2000/svg" x="0" y="0" viewBox="0 0 63 63" xml:space="preserve"><style>.st0{fill:#00a64e}</style><path class="st0" d="M26.8 53.6C12 53.6 0 41.6 0 26.8S12 0 26.8 0s26.8 12 26.8 26.8-12 26.8-26.8 26.8zm0-50.6C13.7 3 3 13.7 3 26.8s10.7 23.8 23.8 23.8 23.8-10.7 23.8-23.8S39.9 3 26.8 3z"/><path class="st0" d="M57.7 63c-1.4 0-2.8-.6-3.8-1.6L40.7 48.2c-.6-.6-.6-1.5 0-2.1s1.5-.6 2.1 0L56 59.3c.9.9 2.4.9 3.3 0 .4-.4.7-1 .7-1.6 0-.6-.2-1.2-.7-1.6L46.1 42.9c-.6-.6-.6-1.5 0-2.1s1.5-.6 2.1 0L61.4 54c1 1 1.6 2.3 1.6 3.7s-.6 2.8-1.6 3.8-2.3 1.5-3.7 1.5zm-41-17.9c-.3 0-.5-.1-.8-.2C9.5 41 5.7 34.3 5.7 26.8c0-5.1 1.9-10.1 5.2-13.9.5-.6 1.5-.7 2.1-.1.6.5.7 1.5.1 2.1-2.9 3.3-4.5 7.5-4.5 12 0 6.4 3.3 12.2 8.8 15.5.7.4.9 1.3.5 2.1-.2.4-.7.6-1.2.6zm5.6 2.3H22c-.6-.1-1.2-.3-1.8-.5-.8-.3-1.2-1.1-1-1.9.3-.8 1.1-1.2 1.9-1 .5.2 1 .3 1.6.4.8.2 1.3 1 1.1 1.8-.2.8-.8 1.2-1.5 1.2z"/><path class="st0" d="M46.3 53.2c-.4 0-.8-.2-1.1-.4-.6-.6-.6-1.5 0-2.1l5.4-5.4c.6-.6 1.5-.6 2.1 0s.6 1.5 0 2.1l-5.4 5.4c-.3.2-.6.4-1 .4z"/><path fill="none" d="M-8.5-8.5h80v80h-80z"/></svg>