<svg version="1.1" id="Layer_1" xmlns="http://www.w3.org/2000/svg" x="0" y="0" viewBox="0 0 72.1 59.9" xml:space="preserve"><style>.st1{fill:#2fb66f}</style><path fill="none" d="M-4.6-11.1h80v80h-80z"/><path class="st1" d="M14.4 40.9c-4.1 0-8-2.5-9.7-6.4L.3 23.9c-.6-1.4-.4-2.9.4-4.1.9-1.2 2.2-1.9 3.7-1.8 1.1.1 2.1.5 2.8 1.3l5.5 5.7 20.1-5.4c.8-.2 1.6.3 1.8 1.1s-.3 1.6-1.1 1.8l-21.8 5.8-6.8-7c-.2-.2-.5-.4-.8-.4-.6-.1-1 .4-1.1.5s-.4.6-.1 1.2l4.5 10.6c1.4 3.4 5.3 5.3 8.8 4.3l49-13.1c2.7-.7 4.3-3.5 3.6-6.2-.3-1.3-1.2-2.4-2.4-3.1s-2.5-.9-3.8-.5l-14.8 4c-.8.2-1.6-.3-1.8-1.1-.2-.8.3-1.6 1.1-1.8l14.8-4c2.1-.5 4.3-.3 6.1.8s3.2 2.8 3.8 4.9c1.2 4.3-1.4 8.7-5.7 9.9l-49 13.1c-.9.4-1.8.5-2.7.5z"/><path class="st1" d="M33.3 22.6c-.5 0-.9-.2-1.2-.6l-11-14.7c-1-1.4-1.2-3.2-.4-4.8C21.5 1 23 0 24.7 0h.1c.9 0 1.8.3 2.6.9l21.1 15.2c.7.5.8 1.4.3 2.1s-1.4.8-2.1.3L25.6 3.3c-.3-.2-.6-.3-.9-.3-.6 0-1.1.3-1.4.8s-.2 1.1.1 1.6l11 14.7c.5.7.4 1.6-.3 2.1-.2.3-.5.4-.8.4z"/><path class="st1" d="M33.3 22.6c-.5 0-.9-.2-1.2-.6l-11-14.7c-1-1.4-1.2-3.2-.4-4.8C21.5 1 23 0 24.7 0h.1c.9 0 1.8.3 2.6.9l21.1 15.2c.7.5.8 1.4.3 2.1s-1.4.8-2.1.3L25.6 3.3c-.3-.2-.6-.3-.9-.3-.6 0-1.1.3-1.4.8s-.2 1.1.1 1.6l11 14.7c.5.7.4 1.6-.3 2.1-.2.3-.5.4-.8.4zm32.1 37.3h-60c-.8 0-1.5-.7-1.5-1.5s.7-1.5 1.5-1.5h60c.8 0 1.5.7 1.5 1.5s-.7 1.5-1.5 1.5z"/></svg>