<svg xmlns="http://www.w3.org/2000/svg" width="317.923" height="260.388"><g fill="#00A64E"><path d="M311.279 260.441H6.643a6.635 6.635 0 0 1-6.644-6.644 6.635 6.635 0 0 1 6.644-6.644h304.635a6.635 6.635 0 0 1 6.644 6.644 6.633 6.633 0 0 1-6.643 6.644zM160.158 52.449a6.558 6.558 0 0 1-3.942-1.284c-2.968-2.17-3.588-6.334-1.417-9.301 2.126-2.923 1.772-4.252-1.019-9.921a124.465 124.465 0 0 1-1.683-3.455c-3.1-6.909-4.651-17.495 5.581-28.435 2.48-2.702 6.688-2.835 9.39-.31a6.606 6.606 0 0 1 .31 9.39c-5.625 6.024-4.651 10.63-3.145 13.952.443 1.019.93 1.993 1.417 2.968 2.79 5.581 6.998 14.04-.177 23.74-1.241 1.726-3.279 2.656-5.315 2.656zm-24.539 1.24a6.558 6.558 0 0 1-3.942-1.284c-2.968-2.17-3.588-6.334-1.417-9.301 2.126-2.923 1.772-4.252-1.019-9.921a83.083 83.083 0 0 1-1.683-3.455c-3.1-6.909-4.651-17.495 5.581-28.435 2.525-2.702 6.732-2.835 9.39-.31a6.606 6.606 0 0 1 .31 9.39c-5.581 5.979-4.739 10.408-3.145 13.952.443 1.019.93 1.993 1.417 2.968 2.79 5.581 6.998 14.04-.177 23.74-1.24 1.726-3.276 2.656-5.315 2.656zm48.987-2.436a6.558 6.558 0 0 1-3.942-1.284c-2.968-2.17-3.588-6.334-1.417-9.301 2.126-2.923 1.772-4.252-1.019-9.921a61.987 61.987 0 0 1-1.683-3.455c-3.1-6.909-4.651-17.495 5.581-28.435 2.48-2.702 6.688-2.835 9.39-.31a6.606 6.606 0 0 1 .31 9.39c-5.581 5.979-4.739 10.408-3.145 13.952.443 1.019.93 1.993 1.417 2.968 2.79 5.581 6.998 14.04-.177 23.74a6.61 6.61 0 0 1-5.315 2.656z"/><circle cx="158.961" cy="73.222" r="12.712"/><path d="M297.548 236.701H20.374v-6.644c0-76.447 62.185-138.587 138.587-138.587s138.587 62.185 138.587 138.587v6.644zm-263.71-13.288h250.29c-3.499-65.994-58.287-118.656-125.167-118.656S37.293 157.419 33.838 223.413z"/><path d="M64.842 188.733c-1.019 0-2.082-.221-3.056-.753a6.629 6.629 0 0 1-2.879-8.947c14.926-28.966 41.545-49.916 73.125-57.49 3.543-.842 7.175 1.329 8.017 4.916.842 3.543-1.329 7.175-4.916 8.017-27.771 6.688-51.245 25.113-64.399 50.625a6.569 6.569 0 0 1-5.892 3.632zm-7.883 20.197a7.742 7.742 0 0 1-1.727-.221 6.622 6.622 0 0 1-4.651-8.15c.354-1.24.709-2.436 1.063-3.676a6.618 6.618 0 0 1 8.327-4.341c3.499 1.107 5.448 4.828 4.341 8.327l-.93 3.189c-.798 2.923-3.5 4.872-6.423 4.872z"/></g><path fill="none" d="M-18.204-40.917h354.33v354.33h-354.33z"/></svg>