<svg version="1.1" id="Layer_1" xmlns="http://www.w3.org/2000/svg" x="0" y="0" viewBox="0 0 48.7 66.6" xml:space="preserve"><style>.st0{fill:#2fb66f}</style><path class="st0" d="M42 66.6H8.8l4.6-9.5c.4-.8 1.3-1.1 2-.7.8.4 1.1 1.3.7 2l-2.5 5.2h24.9l-.9-5.4c-.1-.8.4-1.6 1.2-1.7.8-.1 1.6.4 1.7 1.2l1.5 8.9z"/><path fill="none" d="M-16.7-6.7h80v80h-80z"/><path class="st0" d="M41.1 59.5H16.8c-6.8 0-12.5-5.1-13.3-11.9L0 16.7V4.1C0 1.9 1.9 0 4.1 0h4.6c4.1 0 7.5 3.4 7.5 7.5v9.1L17.7 29l-3 .3-1.4-12.7V7.5c0-2.5-2-4.5-4.5-4.5H4.2C3.5 3 3 3.5 3 4.2v12.4l3.5 30.6c.6 5.3 5 9.2 10.3 9.2h24.3c2.5 0 4.5-2 4.5-4.5v-5c0-.4-.3-.8-.8-.8H16.6l-1.1-9.4 3-.3.8 6.8h25.6c2.1 0 3.8 1.7 3.8 3.8v5c0 4.1-3.4 7.5-7.6 7.5z"/><path class="st0" d="M40 38.1H13.5c-2.9 0-5.2-2.3-5.2-5.2 0-2.9 2.3-5.2 5.2-5.2H40c2.9 0 5.2 2.3 5.2 5.2s-2.3 5.2-5.2 5.2zm-26.5-7.4c-1.2 0-2.2 1-2.2 2.2 0 1.2 1 2.2 2.2 2.2H40c1.2 0 2.2-1 2.2-2.2 0-1.2-1-2.2-2.2-2.2H13.5z"/></svg>