<svg xmlns="http://www.w3.org/2000/svg" width="239.173" height="239.151" viewBox="1014.296 57.601 239.173 239.151"><path fill="#00A64E" d="M1244.588 296.751a8.828 8.828 0 0 1-6.245-2.613l-117.017-116.973 116.973-116.973c3.455-3.455 9.08-3.455 12.534 0s3.455 9.08 0 12.534l-104.439 104.439 104.483 104.483c3.455 3.455 3.455 9.08 0 12.534-1.771 1.684-4.03 2.569-6.289 2.569z"/><path fill="#00A64E" d="M1023.132 296.751a8.828 8.828 0 0 1-6.245-2.613c-3.455-3.455-3.455-9.08 0-12.534l104.439-104.439-104.439-104.483c-3.455-3.455-3.455-9.08 0-12.534 3.455-3.455 9.08-3.455 12.534 0l116.973 117.017-117.017 116.973a8.824 8.824 0 0 1-6.245 2.613z"/><path fill="none" d="M956.695 0h354.33v354.33h-354.33V0z"/></svg>