<svg xmlns="http://www.w3.org/2000/svg" width="209.586" height="319.251" viewBox="1029.067 17.539 209.586 319.251"><path d="M1080.268 219.552h17.539v-50.403c0-1.949.044-4.031.177-6.156l-12.446 10.408c-.531.443-1.063.753-1.594.886-.531.177-1.063.221-1.594.221a4.5 4.5 0 0 1-2.17-.531c-.664-.354-1.151-.709-1.462-1.152l-4.651-6.378 26.353-22.411h12.136v75.517h15.546v11.073h-47.835v-11.074zm108.69-69.139c0 2.126-.664 3.809-1.993 5.138s-3.543 1.993-6.688 1.993h-23.784l-3.1 18.071c3.898-.797 7.485-1.196 10.719-1.196 4.562 0 8.548.664 12.003 2.037 3.455 1.373 6.334 3.233 8.681 5.625 2.347 2.392 4.119 5.182 5.315 8.415 1.196 3.189 1.772 6.644 1.772 10.364 0 4.606-.797 8.77-2.436 12.534-1.594 3.765-3.853 7.042-6.732 9.7-2.879 2.702-6.289 4.783-10.187 6.245-3.898 1.462-8.194 2.215-12.844 2.215-2.702 0-5.271-.266-7.707-.842s-4.695-1.284-6.865-2.259c-2.126-.93-4.119-1.993-5.935-3.233-1.816-1.196-3.455-2.48-4.872-3.853l4.562-6.289c.974-1.373 2.215-2.037 3.809-2.037.974 0 1.993.31 3.012.974 1.019.62 2.214 1.329 3.543 2.082a29.753 29.753 0 0 0 4.739 2.082c1.772.62 3.986.974 6.511.974 2.702 0 5.094-.443 7.175-1.329 2.082-.886 3.809-2.082 5.182-3.676 1.373-1.594 2.392-3.455 3.1-5.625.709-2.17 1.063-4.518 1.063-7.087 0-4.695-1.373-8.371-4.075-11.029-2.702-2.657-6.732-3.986-12.047-3.986-4.163 0-8.371.753-12.623 2.259l-9.213-2.613 7.175-41.988h42.697v6.334h.043z"/><path fill="none" d="M956.695 0h354.33v354.33h-354.33z"/><path d="M1205.435 314.822h-143.149c-18.337 0-33.218-14.882-33.218-33.218V90.974c0-18.337 14.882-33.218 33.218-33.218h143.149c18.337 0 33.218 14.882 33.218 33.218v190.63c0 18.336-14.882 33.218-33.218 33.218zm-143.15-243.779c-10.984 0-19.931 8.947-19.931 19.931v190.63c0 10.984 8.947 19.931 19.931 19.931h143.149c10.984 0 19.931-8.947 19.931-19.931V90.974c0-10.984-8.947-19.931-19.931-19.931h-143.149z"/><path d="M1184.485 64.399h-13.287V37.47a6.636 6.636 0 0 0-6.644-6.644h-61.388a6.636 6.636 0 0 0-6.644 6.644v26.929h-13.287V37.47c0-10.984 8.947-19.931 19.931-19.931h61.432c10.984 0 19.931 8.947 19.931 19.931v26.929h-.044zm-118.036 272.392c-12.313 0-22.367-10.054-22.367-22.367 0-3.499.797-6.821 2.347-9.966l11.914 5.935a8.977 8.977 0 0 0-.93 4.031c0 5.005 4.075 9.08 9.08 9.08s9.08-4.075 9.08-9.08c0-1.24-.266-2.436-.753-3.588l12.224-5.226a22.265 22.265 0 0 1 1.816 8.814c-.044 12.313-10.054 22.367-22.411 22.367zm134.822 0c-12.313 0-22.367-10.054-22.367-22.367 0-3.012.576-5.935 1.772-8.725l12.224 5.182c-.487 1.107-.709 2.303-.709 3.543 0 5.005 4.075 9.08 9.08 9.08s9.08-4.075 9.08-9.08c0-1.417-.31-2.79-.93-4.031l11.914-5.935a22.137 22.137 0 0 1 2.347 9.966c-.044 12.313-10.098 22.367-22.411 22.367zm-165.56-243.248h196.299v13.287h-196.299zm0 172.249h196.299v13.287h-196.299z"/></svg>