<svg xmlns="http://www.w3.org/2000/svg" width="275.89" height="279.046"><g fill="#00A64E"><path d="M256.203 278.548H174.22a6.635 6.635 0 0 1-6.644-6.644 6.636 6.636 0 0 1 6.644-6.644h69.803l16.388-191.072h-96.51l5.138 59.793a6.62 6.62 0 0 1-6.068 7.175c-3.632.31-6.865-2.392-7.175-6.068L149.462 60.9h125.433l-18.692 217.648z"/><path d="M212.133 108.558a6.636 6.636 0 0 1-6.644-6.644V37.028l35.566-35.566c2.613-2.613 6.821-2.613 9.39 0s2.613 6.821 0 9.39L218.777 42.52v59.395a6.635 6.635 0 0 1-6.644 6.643z"/><path d="M264.662 108.558H159.647a6.636 6.636 0 0 1-6.644-6.644 6.635 6.635 0 0 1 6.644-6.644h105.059a6.636 6.636 0 0 1 6.644 6.644c0 3.676-3.012 6.644-6.688 6.644zm-62.539 94.252H13.664v-6.644c0-48.898 38.755-82.913 94.252-82.913s94.252 34.06 94.252 82.78v6.777h-.045zM27.217 189.522H188.57c-3.499-43.45-42.254-62.982-80.699-62.982s-77.155 19.533-80.654 62.982zm144.921 89.026H43.693c-16.565 0-29.985-13.465-29.985-29.985v-17.584a6.635 6.635 0 0 1 6.644-6.644 6.635 6.635 0 0 1 6.644 6.644v17.584c0 9.213 7.485 16.698 16.698 16.698h128.445c9.213 0 16.698-7.485 16.698-16.698v-17.584c0-3.676 2.968-6.644 6.644-6.644s6.644 2.967 6.644 6.644v17.584c-.002 16.564-13.422 29.985-29.987 29.985z"/><path d="M189.854 237.623H86.124a6.635 6.635 0 0 1-6.644-6.644 6.636 6.636 0 0 1 6.644-6.644h103.73c7.53 0 13.686-4.828 13.686-10.763s-6.112-10.763-13.686-10.763H25.976c-7.53 0-13.686 4.828-13.686 10.763s6.112 10.763 13.686 10.763h17.672a6.635 6.635 0 0 1 6.644 6.644 6.636 6.636 0 0 1-6.644 6.644H25.976c-14.882 0-26.973-10.807-26.973-24.05s12.091-24.05 26.973-24.05h163.878c14.882 0 26.973 10.807 26.973 24.05.001 13.243-12.135 24.05-26.973 24.05z"/><path d="M64.864 261.584l-25.91-25.91c-2.613-2.613-2.613-6.821 0-9.39s6.821-2.613 9.39 0l16.521 16.521 16.521-16.521c2.613-2.613 6.821-2.613 9.39 0s2.613 6.821 0 9.39l-25.912 25.91z"/><circle cx="209.52" cy="133.715" r="6.644"/><circle cx="228.963" cy="155.374" r="6.644"/><circle cx="239.106" cy="126.496" r="6.644"/></g><path fill="none" d="M-39.22-24.803h354.33v354.33H-39.22z"/><path fill="none" d="M-39.22-24.803h354.33v354.33H-39.22z"/></svg>