<svg version="1.1" id="Layer_1" xmlns="http://www.w3.org/2000/svg" x="0" y="0" viewBox="0 0 54.3 60.2" xml:space="preserve"><style>.st0{fill:#2fb66f}</style>
  <path class="st0"
    d="M48.7 60.2H5.5c-3 0-5.5-2.5-5.5-5.5V11.5C0 8.4 2.5 6 5.5 6h43.3c3 0 5.5 2.5 5.5 5.5v43.3c-.1 2.9-2.5 5.4-5.6 5.4zM5.5 9C4.1 9 3 10.1 3 11.5v43.3c0 1.4 1.1 2.5 2.5 2.5h43.3c1.4 0 2.5-1.1 2.5-2.5V11.5c0-1.4-1.1-2.5-2.5-2.5H5.5z"/>
  <path class="st0"
    d="M52.7 19.4H1.5c-.8 0-1.5-.7-1.5-1.5s.7-1.5 1.5-1.5h51.3c.8 0 1.5.7 1.5 1.5s-.7 1.5-1.6 1.5zm-42-6.3c-.8 0-1.5-.7-1.5-1.5V1.5c0-.8.7-1.5 1.5-1.5s1.5.7 1.5 1.5v10.1c0 .9-.7 1.5-1.5 1.5zm32.9 0c-.8 0-1.5-.7-1.5-1.5V1.5c0-.8.7-1.5 1.5-1.5s1.5.7 1.5 1.5v10.1c0 .9-.7 1.5-1.5 1.5zM13.2 34.8c-2.9 0-5.2-2.3-5.2-5.2 0-2.9 2.3-5.2 5.2-5.2 2.9 0 5.2 2.3 5.2 5.2.1 2.9-2.3 5.2-5.2 5.2zm0-7.4c-1.2 0-2.2 1-2.2 2.2s1 2.2 2.2 2.2 2.2-1 2.2-2.2-.9-2.2-2.2-2.2zm16.6 3.7h-5.2c-.8 0-1.5-.7-1.5-1.5s.7-1.5 1.5-1.5h5.2c.8 0 1.5.7 1.5 1.5s-.7 1.5-1.5 1.5zm12.9 0h-5.2c-.8 0-1.5-.7-1.5-1.5s.7-1.5 1.5-1.5h5.2c.8 0 1.5.7 1.5 1.5s-.7 1.5-1.5 1.5z"/>
  <path fill="none" d="M-12.9-7.7h80v80h-80z"/></svg>