<svg version="1.1" id="Layer_1" xmlns="http://www.w3.org/2000/svg" x="0" y="0" viewBox="0 0 63 63" xml:space="preserve"><style>.st0{fill:#00a64e}</style><path class="st0" d="M42.2 63c-.8 0-1.5-.2-2.2-.5l-8.5-3.7-8.5 3.7c-1.4.6-3 .6-4.4 0-1.4-.6-2.5-1.7-3.1-3.1l-3.4-8.6-8.6-3.4C2.1 46.8 1 45.7.4 44.3c-.6-1.4-.6-3 0-4.4l3.7-8.5L.5 23c-.6-1.4-.6-3 0-4.4.6-1.4 1.7-2.5 3.1-3.1l8.6-3.4 3.4-8.6c.6-1.4 1.6-2.5 3.1-3.1 1.4-.6 3-.6 4.4 0l8.5 3.7L40 .5c1.4-.6 3-.6 4.4 0 1.4.6 2.5 1.7 3.1 3.1l3.4 8.6 8.6 3.4c1.4.6 2.5 1.6 3.1 3.1.6 1.4.6 3 0 4.4l-3.7 8.5 3.7 8.5c.6 1.4.6 3 0 4.4-.6 1.4-1.7 2.5-3.1 3.1L50.9 51l-3.4 8.6c-.6 1.4-1.7 2.5-3.1 3.1-.7.2-1.4.3-2.2.3zm-10.7-7.4l9.7 4.2c.7.3 1.4.3 2 0 .7-.3 1.2-.8 1.4-1.4l3.9-9.8 9.8-3.9c.7-.3 1.2-.8 1.4-1.4.3-.7.3-1.4 0-2l-4.2-9.7 4.2-9.7c.3-.6.3-1.4 0-2-.3-.7-.8-1.2-1.4-1.4l-9.8-3.9-3.9-9.8c-.3-.7-.8-1.2-1.4-1.4-.7-.3-1.4-.3-2 0l-9.7 4.2-9.7-4.2c-.6-.3-1.4-.3-2 0-.7.3-1.2.8-1.4 1.4l-3.9 9.8-9.8 3.9c-.7.3-1.2.8-1.4 1.4-.3.7-.3 1.4 0 2l4.2 9.7-4.2 9.7c-.3.7-.3 1.4 0 2 .3.7.8 1.2 1.4 1.4l9.8 3.9 3.9 9.8c.3.7.8 1.2 1.4 1.4.7.3 1.4.3 2 0l9.7-4.2z"/><path class="st0" d="M21.3 45.2c-.3 0-.7-.1-1-.3-.6-.5-.7-1.5-.2-2.1l20.4-24.3c.5-.6 1.5-.7 2.1-.2.6.5.7 1.5.2 2.1L22.5 44.6c-.3.4-.7.6-1.2.6zm3.2-15.7c-3.5 0-6.4-2.9-6.4-6.4s2.9-6.4 6.4-6.4 6.4 2.9 6.4 6.4-2.9 6.4-6.4 6.4zm0-9.7c-1.9 0-3.4 1.5-3.4 3.4s1.5 3.4 3.4 3.4 3.4-1.5 3.4-3.4-1.6-3.4-3.4-3.4zm14 26.5c-3.5 0-6.4-2.9-6.4-6.4s2.9-6.4 6.4-6.4 6.4 2.9 6.4 6.4-2.8 6.4-6.4 6.4zm0-9.8c-1.9 0-3.4 1.5-3.4 3.4s1.5 3.4 3.4 3.4 3.4-1.5 3.4-3.4-1.5-3.4-3.4-3.4z"/><path fill="none" d="M-8.5-8.5h80v80h-80z"/></svg>