<svg xmlns="http://www.w3.org/2000/svg" width="326.559" height="175.836" viewBox="965.509 89.911 326.559 175.836"><path d="M988.895 157.588c-12.889 0-23.386-11.073-23.386-24.715V95.448a5.538 5.538 0 0 1 5.536-5.536 5.538 5.538 0 0 1 5.536 5.536v37.426c0 7.53 5.536 13.642 12.313 13.642 6.777 0 12.313-6.112 12.313-13.642V95.448c0-3.056 2.48-5.536 5.536-5.536s5.536 2.48 5.536 5.536v37.426c.046 13.641-10.451 24.714-23.384 24.714z"/><path d="M988.895 265.747a5.538 5.538 0 0 1-5.536-5.536V95.448c0-3.056 2.48-5.536 5.536-5.536s5.536 2.48 5.536 5.536v164.763a5.538 5.538 0 0 1-5.536 5.536zm297.637 0a5.538 5.538 0 0 1-5.536-5.536V96.954a5.538 5.538 0 0 1 5.536-5.536 5.538 5.538 0 0 1 5.536 5.536v163.258a5.538 5.538 0 0 1-5.536 5.535z"/><path d="M1292.068 198.292h-34.326v-83.799c0-13.553 11.028-24.582 24.582-24.582h9.744v108.381zm-23.253-11.073h12.18v-86.146c-6.821.664-12.18 6.422-12.18 13.42v72.726zm-52.795 77.864h-163.39c-12.844 0-23.253-10.453-23.253-23.253V113.164c0-12.8 10.408-23.253 23.253-23.253h163.39c12.8 0 23.253 10.453 23.253 23.253V241.83c0 12.8-10.408 23.253-23.253 23.253zm-163.39-164.099c-6.732 0-12.18 5.448-12.18 12.18V241.83c0 6.732 5.448 12.18 12.18 12.18h163.39c6.732 0 12.18-5.448 12.18-12.18V113.164c0-6.732-5.448-12.18-12.18-12.18h-163.39z"/><path d="M1134.967 237.002h-77.51V117.726h77.51v119.276zm-66.437-11.072h55.364v-97.131h-55.364v97.131zm136.329-53.637a6.89 6.89 0 0 1-4.739-1.86l-43.538-40.394c-2.126-1.949-2.79-4.961-1.772-7.618 1.063-2.702 3.588-4.429 6.467-4.429h34.99c8.548 0 15.502 6.954 15.502 15.502v31.845a6.99 6.99 0 0 1-4.163 6.378 6.65 6.65 0 0 1-2.747.576zm-33.041-43.228l28.922 26.796v-22.367a4.442 4.442 0 0 0-4.429-4.429h-24.493zm-7.751-7.131c.044 0 .044 0 0 0zm14.793 118.302c-17.761 0-32.2-14.439-32.2-32.2s14.439-32.2 32.2-32.2c17.761 0 32.2 14.439 32.2 32.2s-14.439 32.2-32.2 32.2zm0-53.283c-11.649 0-21.127 9.478-21.127 21.127s9.478 21.127 21.127 21.127 21.127-9.478 21.127-21.127c0-11.648-9.478-21.127-21.127-21.127z"/><path fill="none" d="M956.695 0h354.33v354.33h-354.33z"/></svg>