<svg xmlns="http://www.w3.org/2000/svg" width="209.586" height="319.251" viewBox="1029.067 17.539 209.586 319.251"><path fill="none" d="M956.695 0h354.33v354.33h-354.33z"/><path d="M1102.236 143.194c3.986 0 7.618.576 10.94 1.772 3.322 1.196 6.156 2.835 8.504 5.005 2.347 2.17 4.208 4.739 5.492 7.751 1.329 3.012 1.993 6.378 1.993 10.098 0 3.189-.487 6.156-1.417 8.858-.93 2.702-2.215 5.315-3.765 7.751a51.806 51.806 0 0 1-5.536 7.175 457.02 457.02 0 0 1-6.644 7.042l-19.488 19.931c1.905-.576 3.809-.974 5.625-1.284a31.361 31.361 0 0 1 5.271-.443h22.19c1.594 0 2.879.443 3.809 1.329.93.886 1.417 2.082 1.417 3.543v8.858h-59.35v-4.916c0-.974.221-2.037.62-3.1.399-1.063 1.107-2.082 1.993-3.012l26.265-26.309a105.999 105.999 0 0 0 5.891-6.422c1.727-2.037 3.189-4.031 4.385-6.024s2.082-4.031 2.702-6.068c.62-2.037.93-4.208.93-6.467 0-2.082-.31-3.898-.886-5.492s-1.462-2.879-2.569-3.986a10.746 10.746 0 0 0-3.986-2.436c-1.55-.531-3.278-.797-5.182-.797-3.543 0-6.467.886-8.77 2.702-2.303 1.772-3.898 4.208-4.828 7.219-.443 1.506-1.107 2.613-1.993 3.278-.886.664-1.993.974-3.366.974-.576 0-1.24-.044-1.993-.177l-7.751-1.373c.576-4.163 1.772-7.795 3.455-10.896 1.727-3.145 3.853-5.758 6.422-7.84 2.569-2.082 5.536-3.676 8.858-4.739a38.536 38.536 0 0 1 10.762-1.505zm67.057 0c3.986 0 7.574.576 10.807 1.683 3.233 1.107 5.935 2.702 8.238 4.739 2.259 2.037 4.031 4.385 5.226 7.087 1.196 2.702 1.816 5.625 1.816 8.77 0 2.746-.31 5.182-.93 7.264-.62 2.082-1.506 3.898-2.702 5.492a15.862 15.862 0 0 1-4.296 3.942 26.583 26.583 0 0 1-5.758 2.702c5.182 1.639 9.035 4.119 11.604 7.485 2.569 3.366 3.809 7.574 3.809 12.623 0 4.296-.797 8.105-2.392 11.427s-3.765 6.112-6.467 8.327c-2.702 2.259-5.846 3.942-9.434 5.094-3.588 1.152-7.352 1.727-11.339 1.727-4.341 0-8.15-.487-11.339-1.506-3.233-1.019-6.024-2.48-8.415-4.429s-4.429-4.341-6.112-7.175c-1.683-2.835-3.1-6.112-4.296-9.788l6.511-2.702a8.415 8.415 0 0 1 3.411-.709c1.019 0 1.949.221 2.79.664.797.443 1.462 1.063 1.86 1.905.709 1.417 1.506 2.79 2.347 4.119s1.905 2.569 3.1 3.632c1.196 1.063 2.613 1.905 4.208 2.569 1.594.664 3.543.974 5.758.974 2.525 0 4.695-.399 6.555-1.24 1.86-.797 3.455-1.86 4.695-3.189 1.24-1.329 2.17-2.79 2.79-4.385.62-1.594.93-3.233.93-4.872 0-2.082-.221-3.942-.664-5.669-.443-1.683-1.373-3.145-2.746-4.341-1.417-1.196-3.41-2.126-6.024-2.79-2.613-.664-6.112-1.019-10.497-1.019v-10.586c3.632 0 6.644-.31 9.035-.974 2.392-.62 4.296-1.506 5.714-2.657 1.417-1.152 2.392-2.48 2.968-4.075.576-1.594.841-3.366.841-5.271 0-4.119-1.107-7.219-3.366-9.301-2.215-2.082-5.271-3.145-9.168-3.145-3.499 0-6.422.93-8.725 2.79s-3.942 4.252-4.828 7.131c-.487 1.506-1.151 2.613-1.993 3.278-.842.664-1.949.974-3.278.974-.62 0-1.329-.044-2.037-.177l-7.751-1.373c.576-4.163 1.772-7.795 3.455-10.896 1.727-3.145 3.853-5.758 6.422-7.84 2.569-2.082 5.536-3.676 8.858-4.739 3.412-1.019 7-1.55 10.809-1.55z"/><path d="M1205.435 314.822h-143.149c-18.337 0-33.218-14.882-33.218-33.218V90.974c0-18.337 14.882-33.218 33.218-33.218h143.149c18.337 0 33.218 14.882 33.218 33.218v190.63c0 18.336-14.882 33.218-33.218 33.218zm-143.15-243.779c-10.984 0-19.931 8.947-19.931 19.931v190.63c0 10.984 8.947 19.931 19.931 19.931h143.149c10.984 0 19.931-8.947 19.931-19.931V90.974c0-10.984-8.947-19.931-19.931-19.931h-143.149z"/><path d="M1184.485 64.399h-13.287V37.47a6.636 6.636 0 0 0-6.644-6.644h-61.388a6.636 6.636 0 0 0-6.644 6.644v26.929h-13.287V37.47c0-10.984 8.947-19.931 19.931-19.931h61.432c10.984 0 19.931 8.947 19.931 19.931v26.929h-.044zm-118.036 272.392c-12.313 0-22.367-10.054-22.367-22.367 0-3.499.797-6.821 2.347-9.966l11.914 5.935a8.977 8.977 0 0 0-.93 4.031c0 5.005 4.075 9.08 9.08 9.08s9.08-4.075 9.08-9.08c0-1.24-.266-2.436-.753-3.588l12.224-5.226a22.265 22.265 0 0 1 1.816 8.814c-.044 12.313-10.054 22.367-22.411 22.367zm134.822 0c-12.313 0-22.367-10.054-22.367-22.367 0-3.012.576-5.935 1.772-8.725l12.224 5.182c-.487 1.107-.709 2.303-.709 3.543 0 5.005 4.075 9.08 9.08 9.08s9.08-4.075 9.08-9.08c0-1.417-.31-2.79-.93-4.031l11.914-5.935a22.137 22.137 0 0 1 2.347 9.966c-.044 12.313-10.098 22.367-22.411 22.367zm-165.56-243.248h196.299v13.287h-196.299zm0 172.249h196.299v13.287h-196.299z"/></svg>