<svg xmlns="http://www.w3.org/2000/svg" width="319.495" height="222.209" viewBox="974.068 67.721 319.495 222.209"><path d="M1288.082 142.662c-1.417 0-2.835-.531-3.898-1.639-40.172-40.128-93.543-62.229-150.324-62.229s-110.152 22.101-150.325 62.273a5.535 5.535 0 0 1-7.84 0 5.535 5.535 0 0 1 0-7.84c42.254-42.254 98.415-65.507 158.12-65.507 59.749 0 115.91 23.253 158.12 65.507a5.535 5.535 0 0 1 0 7.84c-1.018 1.064-2.436 1.595-3.853 1.595z"/><path d="M1253.801 176.944c-1.417 0-2.835-.531-3.898-1.639-31.004-31.004-72.195-48.056-116.043-48.056-43.848 0-85.039 17.052-116.043 48.056a5.535 5.535 0 0 1-7.84 0 5.535 5.535 0 0 1 0-7.84c33.086-33.041 77.111-51.289 123.883-51.289s90.797 18.204 123.883 51.289a5.535 5.535 0 0 1 0 7.84 5.536 5.536 0 0 1-3.942 1.639z"/><path d="M1048.201 211.225c-1.417 0-2.835-.531-3.898-1.639a5.535 5.535 0 0 1 0-7.84c23.917-23.917 55.763-37.116 89.601-37.116s65.684 13.199 89.601 37.116a5.535 5.535 0 0 1 0 7.84 5.535 5.535 0 0 1-7.84 0c-21.836-21.836-50.891-33.883-81.762-33.883s-59.926 12.047-81.762 33.883c-1.15 1.107-2.523 1.639-3.94 1.639zm137.081 34.281c-1.417 0-2.835-.531-3.898-1.639-12.667-12.667-29.542-19.665-47.48-19.665s-34.813 6.998-47.48 19.665a5.535 5.535 0 0 1-7.84 0 5.535 5.535 0 0 1 0-7.84c14.793-14.793 34.414-22.899 55.32-22.899 20.905 0 40.526 8.15 55.32 22.899a5.535 5.535 0 0 1 0 7.84c-1.107 1.064-2.525 1.639-3.942 1.639zm-51.422 44.424c-11.737 0-21.304-9.567-21.304-21.304s9.567-21.304 21.304-21.304 21.304 9.567 21.304 21.304c0 11.782-9.567 21.304-21.304 21.304zm0-31.491c-5.625 0-10.231 4.606-10.231 10.231s4.606 10.231 10.231 10.231 10.231-4.606 10.231-10.231c0-5.624-4.606-10.231-10.231-10.231z"/><path fill="none" d="M956.695 0h354.33v354.33h-354.33z"/></svg>