<svg xmlns="http://www.w3.org/2000/svg" viewBox="0 0 47.3 72"><path d="M7.5 12C5 12 3 14 3 16.5v43C3 62 5 64 7.5 64h32.3c2.5 0 4.5-2 4.5-4.5v-43c0-2.5-2-4.5-4.5-4.5H7.5z" fill="#0b6f55"/><path fill="#00a64e" d="M3 20.1h41.3V56H3z"/><path fill="none" d="M-16.3-4h80v80h-80z"/><path d="M39.9 67.1H7.5c-4.1 0-7.5-3.4-7.5-7.5v-43c0-4.1 3.4-7.5 7.5-7.5h32.3c4.1 0 7.5 3.4 7.5 7.5v43c.1 4.1-3.3 7.5-7.4 7.5zM7.5 12C5 12 3 14 3 16.5v43C3 62 5 64 7.5 64h32.3c2.5 0 4.5-2 4.5-4.5v-43c0-2.5-2-4.5-4.5-4.5H7.5z"/><path d="M35.1 10.5h-3v-6c0-.8-.7-1.5-1.5-1.5H16.8c-.8 0-1.5.7-1.5 1.5v6.1h-3V4.5c0-2.5 2-4.5 4.5-4.5h13.9c2.5 0 4.5 2 4.5 4.5l-.1 6zM8.5 72c-2.8 0-5-2.3-5-5 0-.8.2-1.5.5-2.2l2.7 1.3c-.1.3-.2.6-.2.9 0 1.1.9 2 2 2s2-.9 2-2c0-.3-.1-.6-.2-.8l2.8-1.2c.3.6.4 1.3.4 2 0 2.8-2.2 5-5 5zm30.4 0c-2.8 0-5-2.3-5-5 0-.7.1-1.3.4-2l2.8 1.2c-.1.3-.2.5-.2.8 0 1.1.9 2 2 2s2-.9 2-2c0-.3-.1-.6-.2-.9l2.7-1.3c.3.7.5 1.5.5 2.2.1 2.8-2.2 5-5 5zM1.5 17.1h44.3v3H1.5zm0 38.9h44.3v3H1.5z"/><path d="M37.4 41.7l-5.6-1.4c-.2-.1-.4 0-.6.1l-4.3 3.8c-.4.4-1.1.1-1.1-.5l-.4-5.7c0-.2-.1-.4-.3-.5l-5-3c-.5-.3-.4-1 .1-1.2l5.4-2.1c.2-.1.4-.3.4-.5l1.3-5.6c.1-.5.8-.7 1.2-.3l3.7 4.4c.1.2.4.3.6.2l5.7-.5c.5 0 .9.6.6 1L36 34.8c-.1.2-.1.4 0 .6l2.3 5.3c.1.6-.4 1.1-.9 1z" fill="#ffe155"/><path d="M26.4 46c-.3 0-.6-.1-.9-.2-.8-.3-1.4-1.1-1.4-2l-.3-5.2-4.5-2.7c-.8-.5-1.2-1.3-1.1-2.2.1-.9.6-1.6 1.4-2l4.9-1.9 1.2-5.1c.2-.9.9-1.5 1.7-1.7.9-.2 1.8.1 2.3.8l3.4 4 5.2-.5c.9-.1 1.7.3 2.2 1.1.5.8.5 1.7 0 2.4l-2.8 4.4 2.1 4.8c.3.8.2 1.7-.4 2.4-.6.7-1.5 1-2.3.7L31.9 42l-4 3.5c-.4.3-.9.5-1.5.5zm-3.7-11.9l3.2 1.9c.6.4 1.1 1.1 1.1 1.8l.2 3.8 2.8-2.5c.6-.5 1.3-.7 2.1-.5l3.7.9-1.5-3.5c-.3-.7-.2-1.5.2-2.1l2-3.2-3.8.3c-.8.1-1.5-.2-2-.8l-2.4-2.9-.8 3.7c-.2.7-.7 1.3-1.4 1.6l-3.4 1.5zm9.6 7.5zm-8.1-2.7zm13.1-3.2zm-4-7.5zm-.8-.3zm-3.7-2.4z"/><circle cx="13" cy="45.9" r="4.7" fill="#fff"/><path d="M13 52.2c-3.4 0-6.2-2.8-6.2-6.2s2.8-6.2 6.2-6.2 6.2 2.8 6.2 6.2-2.8 6.2-6.2 6.2zm0-9.5c-1.8 0-3.2 1.5-3.2 3.2s1.5 3.2 3.2 3.2c1.8 0 3.2-1.5 3.2-3.2s-1.5-3.2-3.2-3.2z"/></svg>