<svg xmlns="http://www.w3.org/2000/svg" width="70" height="70"><path fill="#CE3431" d="M33.57 35.367a3.535 3.535 0 0 0 3.534-3.531v-9.16c0-1.95-1.584-3.53-3.534-3.53h-1.986V6.347a3.532 3.532 0 0 0-3.533-3.532h-10.37a3.53 3.53 0 0 0-3.53 3.532v12.799h-1.213a3.531 3.531 0 0 0-3.532 3.53v9.16a3.533 3.533 0 0 0 3.532 3.531h1.213v17.764c0 15.445 12.799 16.105 12.799 16.105s4.194.568 6.401.441c2.576-.146 3.529-1.58 3.529-3.527v-9.488a3.53 3.53 0 0 0-3.529-3.531s-1.767 0-1.767-1.875V35.367h1.986z"/><path fill="#7BA44D" d="M46.13 21.89c.518 1.321 1.317 3.527-1.896 7.465-2.125 2.607-3.99 3.494-3.925 4.8.069 1.304 3.689 2.349 5.199 1.871 3.949-1.247 9.696-7.183 12.4-12.381 1.772-3.411 2.393-7.525 2.204-10.827-.216-3.774-1.349-7.907-4.6-10.437-4.324-3.366-8.957-1.773-10.298-1.17-2.899 1.312-4.721 4.228-5.286 5.902-.828 2.438-.728 5.184-.139 6.731 2.186 5.76 5.727 6.465 6.341 8.046z"/></svg>