<svg version="1.1" id="Layer_1" xmlns="http://www.w3.org/2000/svg" x="0" y="0" viewBox="0 0 912.9 215.8" xml:space="preserve"><style>.st0{fill:#00a64e}.st1{fill:none}.st2{fill:#fff}</style><path class="st0" d="M230.8 3.6c15.6 13.8-9.5 65.6-14.2 75.4-12.3-15.6-28.4-27.8-46.8-35.4 4.8-6.8 41.3-57.3 61-40z"/><path class="st1" d="M221.3 0c3.5 0 6.9 1.3 9.5 3.6 15.6 13.8-9.5 65.6-14.2 75.4-12.3-15.6-28.4-27.8-46.8-35.4C173.9 37.8 201.1 0 221.3 0m-.1-5.5c-22 0-48.4 35.1-55.9 45.9l-3.9 5.6 6.3 2.6c17.5 7.2 32.8 18.9 44.5 33.7l5.5 7 3.8-8 .2-.5c2.8-5.8 10.1-21.2 15-37.2 6.8-22.3 6-36.7-2.4-44.1-3.6-3.2-8.2-5-13.1-5z"/><path class="st2" d="M227.7 13.3c7.5 6.2-7.9 43.3-15.5 60.5-8.4-9.5-18.4-17.6-29.5-23.9 9-11.5 35.4-44.6 45-36.6z"/><path class="st0" d="M5.7 3.6C-9.9 17.4 15.2 69.2 19.9 79c12.3-15.6 28.4-27.8 46.7-35.4-4.7-6.8-41.2-57.3-60.9-40z"/><path class="st1" d="M15.2 0c20.1 0 47.4 37.8 51.4 43.6C48.2 51.2 32.1 63.4 19.9 79 15.2 69.2-10 17.4 5.7 3.6c2.6-2.3 6-3.6 9.5-3.6m0-5.5c-4.8 0-9.5 1.7-13.1 5-8.4 7.4-9.2 21.8-2.4 44.1 4.9 16 12.3 31.4 15 37.2l.2.5 3.8 8 5.4-7c11.7-14.9 27.1-26.5 44.6-33.8l6.3-2.6-3.9-5.6c-7.5-10.6-34-45.8-55.9-45.8z"/><path class="st2" d="M118.2 33.3c49.6 0 95.2 26.7 113.2 71.6 1.6 4 1.6 8.6 0 12.6-18 45-63.5 65.7-113.2 65.7S23 162.4 5 117.5c-1.6-4-1.6-8.6 0-12.6C23.1 60 68.6 33.3 118.2 33.3z"/><path class="st2" d="M8.8 13.3c-7.5 6.2 7.9 43.3 15.5 60.5 8.4-9.5 18.4-17.6 29.5-23.9-9-11.5-35.4-44.6-45-36.6z"/><path class="st0" d="M105.7 110.6C98 90.2 66.4 83.3 35.1 95.1c-11.6 4.2-22.2 11-30.9 19.8.2.8.4 1.6.7 2.4 10.1 25.3 28.9 42.9 52.3 53.5 1.9-.6 3.8-1.2 5.7-1.9 31.4-11.9 50.5-38 42.8-58.3zm125.7 6.7c.3-.8.5-1.5.7-2.4A84.28 84.28 0 0 0 201.2 95c-31.3-11.8-62.9-4.9-70.5 15.5s11.4 46.5 42.7 58.3c1.9.7 3.8 1.4 5.8 2 23.3-10.6 42.1-28.3 52.2-53.5z"/><path class="st0" d="M65 52.1c25.6 0 48.6 20.8 48.6 46.4v45.2h9.4V98.5c0-25.6 23-46.4 48.6-46.4 10.4 0 20.6 3.5 28.8 10-22-18.5-51.2-28.8-82-28.8s-60.2 10.4-82.3 29c8.2-6.6 18.4-10.2 28.9-10.2z"/><circle cx="89.4" cy="117.9" r="8.8"/><circle cx="118.2" cy="151.2" r="13.7"/><path class="st0" d="M118.2 186.7c-55.8 0-99.3-25.4-116.4-67.9-2-4.9-2-10.3 0-15.1 18-44.8 63.6-73.8 116.4-73.8s98.4 29 116.4 73.8c2 4.9 2 10.3 0 15.1-17 42.5-60.5 67.9-116.4 67.9zm0-150c-49.9 0-93.1 27.3-110 69.5-1.3 3.2-1.3 6.8 0 10 15.9 39.8 57.1 63.5 110 63.5s94-23.8 110-63.5c1.3-3.2 1.3-6.8 0-10-16.9-42.2-60.1-69.5-110-69.5z"/><circle cx="146.9" cy="117.9" r="8.8"/><path class="st0" d="M291.9 146.5V99l-6.2-.7c-.7-.1-1.3-.4-1.9-.9-.5-.4-.8-1-.8-1.7v-4h8.8v-5.4c0-2.9.4-5.8 1.4-8.5.8-2.3 2.1-4.5 3.9-6.3 1.7-1.7 3.7-3.1 6-3.9 2.5-.9 5.2-1.4 7.9-1.3 2.3 0 4.7.4 6.9 1.1l-.1 4.9c0 .8-.6 1.4-1.4 1.4h-.1c-.9.1-2.1.1-3.6.1-1.6 0-3.1.2-4.6.7-1.3.4-2.6 1.2-3.6 2.1-1.1 1.1-1.8 2.5-2.3 3.9-.6 1.9-.8 4-.8 6v5.1h16.1v7.1h-15.7v47.8h-9.9zm47.4-81.3v81.3h-9.8V65.2h9.8zm64.2 25.4L372.3 163c-.3.7-.7 1.3-1.2 1.8-.7.5-1.5.7-2.3.7h-7.3l10.2-22.2-23.1-52.6h8.5c.7 0 1.4.2 2 .6.5.4.8.9 1 1.4l15 35.2c.6 1.6 1.1 3.2 1.5 4.9.5-1.7 1.1-3.4 1.7-4.9l14.5-35.1c.2-.6.6-1.1 1.1-1.5s1.2-.6 1.8-.6l7.8-.1zm22.1-17.5c0 .9-.2 1.8-.6 2.7-.4.8-.9 1.6-1.5 2.2-.7.6-1.4 1.2-2.3 1.5-.9.4-1.8.6-2.7.5-.9 0-1.8-.2-2.7-.5-.8-.4-1.6-.9-2.2-1.5-.6-.6-1.1-1.4-1.5-2.2-.4-.8-.6-1.8-.5-2.7 0-.9.2-1.9.5-2.7.4-.8.9-1.6 1.5-2.3.6-.6 1.4-1.2 2.2-1.5.8-.4 1.8-.6 2.7-.5.9 0 1.9.2 2.7.5.8.4 1.6.9 2.3 1.5s1.2 1.4 1.5 2.3c.4.8.6 1.7.6 2.7zm-2.1 17.5v55.9h-9.8V90.6h9.8zm29.1 8.1c1.2-1.3 2.5-2.6 3.9-3.7 1.3-1.1 2.8-2 4.3-2.8s3.2-1.4 4.8-1.8c1.8-.4 3.7-.6 5.5-.6 2.8-.1 5.5.5 8.1 1.5 2.3 1 4.3 2.4 5.8 4.3 1.6 2 2.8 4.2 3.6 6.7.8 2.8 1.3 5.7 1.2 8.7v35.5h-9.9v-35.6c0-4.2-1-7.5-2.9-9.9-1.9-2.3-4.9-3.5-8.8-3.5-2.8 0-5.7.7-8.1 2.1-2.6 1.5-5 3.4-7 5.7v41.2h-9.9V90.6h5.9c1.3-.1 2.4.8 2.6 2l.9 6.1zm101.2-5.9v3.7c0 1.2-.8 2-2.3 2.3l-6.3.8c2.4 4.9 2.5 10.5.3 15.5-1 2.2-2.5 4.1-4.3 5.7-1.9 1.6-4.2 2.9-6.6 3.6-2.7.9-5.5 1.3-8.4 1.3-2.5 0-5-.3-7.4-.9-1 .6-1.9 1.4-2.7 2.4-.6.7-.9 1.6-.9 2.5 0 1.2.6 2.4 1.6 3 1.3.8 2.8 1.3 4.3 1.5 2 .3 4 .5 6 .6 2.3.1 4.6.2 7 .4 2.3.2 4.6.5 7 .9 2.1.4 4.1 1 6 2 1.7.9 3.2 2.2 4.3 3.8 1.2 1.9 1.7 4.1 1.6 6.3 0 2.4-.6 4.8-1.8 7-1.3 2.3-3 4.4-5.2 6-2.5 1.9-5.3 3.3-8.3 4.2-3.6 1.1-7.3 1.6-11 1.6-3.6.1-7.2-.4-10.7-1.2-2.7-.7-5.3-1.8-7.6-3.3-1.9-1.2-3.4-2.8-4.5-4.7-1-1.7-1.5-3.6-1.5-5.6-.1-2.6.9-5.1 2.6-7 2-2.1 4.4-3.6 7.1-4.6-1.5-.6-2.9-1.7-3.9-3-1.5-2.2-1.8-5-1-7.5.3-.9.8-1.8 1.3-2.6.6-.9 1.4-1.7 2.2-2.5.9-.8 2-1.5 3.1-2-2.7-1.4-4.9-3.6-6.5-6.1-1.6-2.7-2.4-5.8-2.3-8.9 0-2.6.5-5.1 1.6-7.4 1-2.2 2.5-4.1 4.4-5.7 2-1.6 4.3-2.8 6.7-3.6 2.8-.9 5.6-1.3 8.5-1.3 2.3 0 4.6.3 6.8.8 2 .5 3.9 1.3 5.7 2.3l15.1-.3zm-10 56.7c.1-1.2-.4-2.4-1.2-3.3-.9-.9-1.9-1.6-3.1-2-1.5-.5-3-.8-4.5-1-1.7-.2-3.6-.4-5.5-.5l-5.9-.3c-2-.1-3.9-.3-5.7-.5-1.9.9-3.6 2.1-5 3.6-1.3 1.4-2 3.2-2 5.1 0 1.2.4 2.4 1 3.5.7 1.2 1.7 2.1 3 2.8 1.6.9 3.2 1.5 5 1.9 4.7.9 9.5.9 14.2 0 1.9-.4 3.7-1.1 5.3-2 1.3-.8 2.5-1.8 3.3-3.1.8-1.3 1.2-2.7 1.1-4.2zm-17.7-30.3c1.8 0 3.6-.2 5.2-.8 1.4-.5 2.7-1.3 3.8-2.3 1-1 1.8-2.2 2.3-3.6.5-1.5.8-3 .8-4.5.1-3-1-6-3.1-8.2-2.1-2-5.1-3-9-3s-7 1-9.1 3c-2.1 2.2-3.3 5.1-3.1 8.2 0 1.6.3 3.1.9 4.6.5 1.3 1.3 2.6 2.3 3.6 1.1 1 2.4 1.8 3.8 2.3 1.7.4 3.5.7 5.2.7zm57.8-21.1c1.5-2.8 3.6-5.3 6.1-7.3 2.3-1.8 5.1-2.7 7.9-2.6 2.2-.1 4.4.5 6.3 1.8l-1.1 12.6c-.1.6-.4 1.2-.9 1.6-.5.3-1.1.5-1.7.4h-1.2c-.5 0-1-.1-1.5-.1l-1.6-.2c-.5-.1-1-.1-1.5-.1-2.2-.1-4.3.6-6 2-1.6 1.5-2.9 3.4-3.8 5.5v34.8h-17.1V89.3H578c.7 0 1.4.1 2.1.2.5.1 1 .4 1.4.7.4.3.7.8.9 1.3.2.6.4 1.2.5 1.9l1 4.7zm26.7-.9c3.4-3 7.3-5.3 11.5-6.8 4.4-1.5 8.9-2.3 13.5-2.2 3.2 0 6.4.5 9.3 1.7 5.4 2.1 9.6 6.4 11.5 11.8 1 2.9 1.6 5.9 1.5 9v35.8h-7.8c-1.3.1-2.5-.2-3.7-.7-1-.6-1.7-1.6-2.1-2.8l-1.2-3.1c-1.4 1.2-2.8 2.3-4.1 3.2-1.3.9-2.7 1.7-4.1 2.3-1.4.7-3 1.1-4.5 1.4-1.8.3-3.5.5-5.3.5-2.4 0-4.8-.3-7.1-1-2-.6-3.9-1.6-5.4-3s-2.7-3-3.5-4.9c-.9-2.2-1.3-4.5-1.2-6.8 0-2.2.6-4.3 1.5-6.3 1.3-2.4 3.1-4.4 5.3-5.8 3.2-2 6.6-3.5 10.3-4.4 5.3-1.3 10.8-2 16.3-2v-2.4c0-3.3-.7-5.8-2.1-7.3-1.5-1.6-3.7-2.4-5.9-2.2-1.7-.1-3.4.2-5 .7-1.2.4-2.3.9-3.4 1.5l-3 1.5c-1.1.5-2.2.7-3.4.7-1.1 0-2.1-.3-3-.9-.8-.6-1.5-1.3-2-2.1l-2.9-5.4zm30.8 26c-2.8.1-5.7.4-8.4.9-1.8.3-3.6.9-5.2 1.7-1.1.5-2 1.3-2.7 2.3-.5.8-.8 1.8-.8 2.8 0 2 .5 3.3 1.6 4.1 1.4.9 3 1.3 4.7 1.2 2 0 4-.4 5.8-1.2 1.9-.9 3.6-2.2 5-3.8v-8zm72.9-20.3c-.4.6-.9 1.1-1.5 1.5s-1.3.6-2 .5c-.8 0-1.6-.2-2.3-.6s-1.4-.9-2.3-1.4c-1-.5-2-1-3-1.4-1.4-.4-2.8-.6-4.2-.6-1.9-.1-3.7.3-5.4 1.2-1.5.8-2.8 1.9-3.8 3.4-1.1 1.6-1.8 3.4-2.2 5.3-.5 2.3-.7 4.6-.7 7 0 5.5 1.1 9.7 3.2 12.6 2 2.9 5.3 4.5 8.8 4.4 1.6.1 3.2-.2 4.7-.7 1.1-.4 2.1-1 3-1.7l2.2-1.7c.7-.5 1.6-.8 2.6-.8 1.2-.1 2.4.5 3.1 1.5l5 6.1c-1.6 1.9-3.5 3.6-5.6 4.9-1.9 1.2-3.9 2.2-6 3-2 .7-4.1 1.2-6.2 1.5-2 .3-4 .4-6 .4-3.4 0-6.8-.7-10-2s-6-3.3-8.4-5.8c-2.5-2.7-4.5-5.8-5.7-9.3-1.5-4-2.2-8.3-2.1-12.6 0-3.9.6-7.8 1.8-11.6 1.2-3.5 3-6.6 5.5-9.3 2.5-2.7 5.5-4.8 8.9-6.2 3.9-1.6 8.1-2.3 12.3-2.3 4-.1 8.1.6 11.8 2.1 3.4 1.5 6.5 3.6 9.2 6.3l-4.7 6.3zm39.3-14.5c4-.1 8.1.6 11.9 2 3.4 1.3 6.6 3.3 9.2 5.9 2.6 2.6 4.7 5.8 6 9.2 1.5 3.9 2.2 8.1 2.1 12.3.1 4.2-.7 8.4-2.1 12.3-1.3 3.5-3.4 6.7-6 9.3-2.6 2.6-5.7 4.6-9.2 5.9-7.7 2.8-16.1 2.8-23.8 0-3.5-1.3-6.6-3.3-9.3-5.9-2.6-2.6-4.7-5.8-6-9.3-1.5-3.9-2.2-8.1-2.1-12.3-.1-4.2.6-8.3 2.1-12.3 1.3-3.5 3.4-6.6 6-9.2s5.8-4.6 9.3-5.9c3.8-1.4 7.9-2.1 11.9-2zm0 46.3c3.9 0 6.8-1.4 8.7-4.2 1.9-2.8 2.8-7 2.8-12.7s-.9-9.9-2.8-12.6-4.8-4.1-8.7-4.1c-4.1 0-7 1.4-8.9 4.1-1.9 2.8-2.8 7-2.8 12.6 0 5.7.9 9.9 2.8 12.7 1.9 2.8 4.9 4.2 8.9 4.2zm66.9-46.3c4-.1 8.1.6 11.9 2 3.4 1.3 6.6 3.3 9.2 5.9 2.6 2.6 4.6 5.8 6 9.2 1.5 3.9 2.2 8 2.1 12.2.1 4.2-.7 8.4-2.1 12.3-1.3 3.5-3.3 6.7-6 9.3-2.6 2.6-5.7 4.6-9.2 5.9-3.8 1.4-7.8 2.1-11.9 2.1-4.1.1-8.1-.6-11.9-2.1-3.5-1.3-6.6-3.3-9.3-5.9-2.6-2.6-4.7-5.8-6-9.3-1.5-3.9-2.2-8.1-2.1-12.3-.1-4.2.6-8.3 2.1-12.2 1.3-3.5 3.4-6.6 6-9.2s5.8-4.6 9.3-5.9c3.8-1.4 7.8-2.1 11.9-2zm0 46.3c3.9 0 6.8-1.4 8.7-4.2 1.9-2.8 2.8-7 2.8-12.7s-.9-9.9-2.8-12.6c-1.9-2.8-4.8-4.1-8.7-4.1-4 0-7 1.4-8.9 4.1s-2.8 7-2.8 12.6c0 5.7.9 9.9 2.8 12.7 1.9 2.8 4.8 4.2 8.9 4.2zm56.2-39.2c1.1-1 2.2-2 3.4-2.9 1.2-.9 2.4-1.6 3.8-2.2s2.9-1.1 4.4-1.4c1.7-.4 3.4-.5 5.1-.5 2.9-.1 5.7.5 8.3 1.6 2.3 1 4.4 2.6 6.1 4.5 1.7 2 3 4.4 3.8 6.9.9 2.8 1.3 5.7 1.3 8.7v36.3h-17.1v-36.4c.1-2.3-.5-4.6-1.9-6.5-1.4-1.6-3.5-2.5-5.7-2.4-1.8 0-3.6.4-5.3 1.2-1.7.9-3.3 1.9-4.8 3.2v40.9H861V89.3h10.6c1.9-.2 3.7 1 4.2 2.9l.9 3.3zM714 187.2h-40c-.5 0-.7.1-.8.2-.2.2-.2.5-.2.7v4.2c0 .3 0 .5.2.8.2.1.5.2.8.2h40c.5 0 .7-.1.8-.2.2-.2.2-.5.2-.7v-4.2c0-.5-.1-.6-.2-.7-.2-.3-.5-.3-.8-.3zm-36.1 25.5c.8.6 1.6 1 2.6 1.2 1.2.3 2.5.4 3.7.4h7.9c2.5 0 4.7-.1 6.8-.2s4.3-.2 6.3-.3 4.2-.3 6.3-.5c.3 0 .6-.1.9-.2.1-.1.2-.2.1-.5l-.4-3.6c0-.4-.1-.5-.2-.6s-.1-.1-.6-.1c-1.8.2-3.7.3-5.6.4s-3.9.2-5.8.2-4.1.1-6.4.1h-7.3c-.6 0-1.2 0-1.8-.2-.5-.2-.8-.6-.8-1.2v-1h27.3c.3 0 .6 0 .8-.2s.2-.5.2-.7v-9.4c0-.5-.1-.6-.2-.7s-.3-.2-.8-.2h-34c-.3 0-.6 0-.8.2-.1.1-.2.3-.2.8v2.6c0 .8.3 1.1 1 1.1h27.3v1.9h-27.4c-.5 0-.6.1-.8.2-.2.2-.2.4-.2.7v4.3c0 1.1.1 2.3.5 3.3.5.9 1 1.6 1.6 2.2zm33.3-43h-34.4c-.3 0-.5 0-.8.2-.1.1-.2.3-.2.8v3.9c0 .3 0 .5.2.8.1.1.3.2.8.2h4.9v3.9h-5.1c-.5 0-.7.1-.8.2-.2.2-.2.5-.2.7v3.9c0 .3 0 .5.2.7.1.1.3.2.8.2h34.9c.5 0 .7-.1.8-.2.2-.2.2-.5.2-.7v-3.9c0-.3 0-.5-.2-.7s-.5-.2-.8-.2h-5.1v-4h4.8c.3 0 .6 0 .8-.2s.2-.5.2-.7v-3.9c0-.3-.1-.5-.2-.7-.1-.2-.3-.3-.8-.3zm-13.4 9.6h-7.5v-3.8h7.5v3.8zm64.5-9.4c-.1-.1-.3-.2-.8-.2h-6.6c-.5 0-.7.1-.8.2-.2.2-.2.5-.2.7v41.7c0 .5.1.6.2.8.2.2.5.2.8.2h6.6c.3 0 .6 0 .8-.2.1-.1.2-.2.2-.7v-19.2h4.6c.5 0 .7-.1.8-.2.2-.2.3-.5.2-.7v-5.5c0-.3 0-.5-.2-.7s-.5-.2-.8-.2h-4.6v-15.2c0-.3 0-.6-.2-.8zm-11.9 39.9c.1-.2.2-.4.2-.6l-.5-5.5c-.1-.5-.2-.7-.3-.8-.2-.1-.4-.2-.7-.1-2.4.2-4.6.4-6.8.5s-4.4.2-6.7.3c-1 .1-2-.2-2.8-.8-.6-.8-.8-1.7-.8-2.7V195c-.1-.4.1-.8.4-1.1.3-.2.7-.3 1.1-.3h14.1c.3 0 .6-.1.8-.3.2-.2.3-.4.2-.7v-15c0-1.2-.1-2.5-.3-3.7-.2-.9-.6-1.7-1.1-2.4-.5-.6-1.2-1.1-2-1.3-1-.3-2-.4-3-.4h-17.8c-.5 0-.6.1-.8.2-.2.2-.2.5-.2.7v5.3c0 .3 0 .5.2.8.1.1.3.2.8.2h12.9c.7-.1 1.4.1 2 .5.5.4.7 1.3.7 2.5v4.9c.1.4-.1.8-.4 1.1-.3.2-.7.3-1.1.3h-14.1c-.3 0-.6 0-.8.2-.1.1-.2.3-.2.7v13.6c0 3.5.7 6.1 1.9 7.6s3.4 2.4 6.3 2.4 6-.1 8.9-.2 5.9-.3 9-.6c.4.1.7 0 .9-.2zM860 169.9c-.1-.1-.3-.2-.8-.2h-6.6c-.5 0-.7.1-.8.2-.2.2-.2.5-.2.7v41.7c0 .5.1.6.2.8.2.2.5.2.8.2h6.6c.5 0 .6-.1.8-.2s.2-.2.2-.7v-19.2h4.6c.5 0 .7-.1.8-.2s.2-.4.2-.7v-5.5c0-.3 0-.5-.2-.7s-.5-.2-.8-.2h-4.6v-15.2c0-.3 0-.6-.2-.8zm-11.9 39.9c.1-.2.2-.4.2-.6l-.5-5.5c-.1-.5-.2-.7-.3-.8-.2-.1-.4-.2-.7-.1-2.3.2-4.6.4-6.8.5s-4.4.2-6.7.3c-1 .1-2-.2-2.8-.8-.6-.8-.8-1.7-.8-2.7V195c-.1-.4.1-.8.4-1.1.3-.2.7-.3 1.1-.3h14.1c.3 0 .6-.1.8-.3.2-.2.3-.4.2-.7v-15c0-1.2-.1-2.5-.3-3.7-.2-.9-.6-1.7-1.1-2.4-.5-.6-1.2-1.1-1.9-1.3-1-.3-2-.4-3-.4h-17.8c-.5 0-.6.1-.8.2-.2.2-.2.5-.2.7v5.3c0 .3 0 .5.2.8.1.1.3.2.8.2h12.9c.7-.1 1.4.1 2 .5.5.4.7 1.3.7 2.5v4.9c.1.4-.1.8-.4 1.1-.3.2-.7.3-1.1.3h-14.1c-.3 0-.5 0-.8.2-.1.1-.2.3-.2.7v13.6c0 3.5.6 6.1 1.9 7.6s3.4 2.4 6.3 2.4 6-.1 8.9-.2 5.9-.3 9-.6c.3.1.6 0 .8-.2zm-63.8 3c1.4 1 3 1.8 4.7 2.2 4.6 1.1 9.4 1.1 13.9 0 1.7-.4 3.3-1.2 4.7-2.2 1.1-.8 2-1.9 2.6-3.2.5-1.2.8-2.6.8-3.9s-.3-2.7-.8-3.9c-.6-1.3-1.5-2.3-2.6-3.2-1.4-1-3-1.7-4.6-2.1-4.5-1.1-9.3-1.1-13.8 0-1.7.4-3.3 1.2-4.7 2.2-1.1.8-2 1.9-2.6 3.2-.6 1.2-.8 2.6-.8 3.9s.3 2.7.8 3.9c.4 1.2 1.3 2.3 2.4 3.1zm5.6-8.7c.4-.4.9-.8 1.5-1 .7-.3 1.4-.4 2.1-.5 1.6-.2 3.2-.2 4.8 0 .7.1 1.4.2 2.1.5.6.2 1.1.6 1.5 1s.6 1 .6 1.6-.2 1.2-.6 1.6c-.4.4-.9.8-1.5 1-.7.2-1.4.4-2.1.5-1.6.2-3.2.2-4.8 0-.7-.1-1.4-.2-2.1-.5-.6-.2-1.1-.6-1.5-1s-.6-1-.6-1.6.2-1.2.6-1.6zm6.4-30.6c-1.2-1.3-2.6-2.3-4.2-2.9-4.3-1.5-9.1-1.5-13.4 0-1.6.6-3 1.6-4.2 2.9-1 1.1-1.7 2.4-2.2 3.8-.4 1.3-.6 2.7-.6 4.1s.2 2.8.6 4.1c.4 1.4 1.1 2.7 2.1 3.9 1.2 1.3 2.6 2.3 4.2 2.9 4.4 1.5 9.1 1.5 13.5 0 1.6-.6 3-1.6 4.2-2.9 1-1.1 1.7-2.4 2.1-3.9.4-1.3.6-2.7.6-4.1s-.2-2.7-.6-4.1c-.3-1.4-1.1-2.7-2.1-3.8zm-6 10c-.3.6-.8 1.1-1.3 1.5s-1.1.7-1.7.8c-1.2.4-2.5.4-3.7 0-.6-.2-1.2-.5-1.7-.8-.5-.4-1-.9-1.3-1.5-.4-.7-.5-1.4-.5-2.2 0-.8.2-1.5.5-2.2.3-.6.8-1.1 1.3-1.5s1.1-.6 1.7-.8c1.2-.4 2.5-.4 3.7 0 .6.2 1.2.5 1.7.8.5.4 1 .9 1.3 1.5.7 1.4.7 3.1 0 4.4zm21.7-12.8c0-.3 0-.5-.2-.7-.1-.1-.3-.2-.8-.2h-6.6c-.3 0-.5 0-.8.2-.2.2-.2.5-.2.8v22.5c0 .3 0 .5.2.7s.5.2.8.2h6.6c.5 0 .6-.1.8-.2s.2-.4.2-.7v-22.6zm97.7 42.8c.6-.1.8-.2.9-.3.1-.2.2-.5.1-.7l-.5-5.4c-.1-.6-.2-.7-.3-.8-.2-.1-.5-.2-.8-.1-3.9.3-7.8.6-11.6.7s-7.6.1-11.4 0c-1.6.3-3.2-.7-3.6-2.3-.1-.4-.1-.8 0-1.2v-2.3c0-.3 0-.5-.2-.7-.2-.1-.3-.2-.8-.2h-6.6c-.3 0-.6 0-.8.2s-.2.5-.2.7v3.2c0 3.5.6 6 1.9 7.6s3.4 2.3 6.3 2.4c4.7.1 9.3.1 13.9 0s9.2-.3 13.7-.8z"/><path class="st0" d="M912.6 197.3c.2-.2.3-.5.2-.7v-5.5c0-.3 0-.5-.2-.7-.1-.1-.3-.2-.8-.2h-3v-.3c.2-2.7.3-5.4.4-8s.2-4.8.2-6.7c.1-1.5-.3-3-1.2-4.1-1-.9-2.3-1.4-3.7-1.3h-29.3c-.5 0-.7.1-.8.2-.2.2-.2.5-.2.7v4.9c0 .3.1.5.2.8.2.1.3.2.8.2h23.7c.5 0 1.1.1 1.5.5.4.5.6 1.1.5 1.8v1.2h-26.2c-.5 0-.6.1-.8.2-.2.2-.3.5-.2.7v4.9c0 .5.1.6.2.7.2.2.5.2.8.2h26l-.2 3.3h-28.7c-.3 0-.6 0-.8.2-.2.1-.2.4-.2.7v5.5c0 .3 0 .5.2.7.1.1.3.2.8.2H888v5.5c0 .3 0 .5.2.7s.5.3.8.2h6.6c.3 0 .6 0 .8-.2.2-.1.2-.3.2-.7v-5.4h15.2c.5 0 .7-.1.8-.2z"/></svg>