<svg xmlns="http://www.w3.org/2000/svg" width="70" height="70">
    <path fill="#010101"
          d="M28.957 40.926a1.916 1.916 0 0 0 1.179-1.769 2.259 2.259 0 0 0-.382-1.262c-.83-1.129-2.441-1.129-3.379-1.129h-3.114V45.9h2.906a7.054 7.054 0 0 0 2.998-.423 2.572 2.572 0 0 0 1.262-1.295c.135-.321.205-.665.208-1.013a2.303 2.303 0 0 0-1.678-2.243zm-3.321-2.408h.83c.905 0 1.345.224 1.345.83s-.598.83-1.362.83h-.83v-1.661h.017zm1.071 5.622h-1.063v-2.092h.988c.938 0 1.661.058 1.661.996s-.681 1.104-1.586 1.104v-.008zm10.936-7.382v5.397c.048.493-.041.991-.257 1.436a1.663 1.663 0 0 1-1.337.565 1.561 1.561 0 0 1-1.395-.565 2.835 2.835 0 0 1-.232-1.436v-5.397h-2.408v5.53a4.64 4.64 0 0 0 .241 1.661c.515 1.329 1.893 2.084 3.778 2.084s3.321-.83 3.836-2.175a4.33 4.33 0 0 0 .199-1.478v-5.621h-2.425zm10.395 4.343a10.468 10.468 0 0 0-2.134-.905l-.722-.257c-.548-.191-1.005-.374-1.005-.722a.99.99 0 0 1 1.113-.756c.384-.036.767.084 1.063.332.215.22.319.525.282.83h2.234a3.064 3.064 0 0 0-.307-1.329 3.529 3.529 0 0 0-3.23-1.661c-1.661 0-3.529.83-3.529 2.782-.006.812.4 1.572 1.079 2.018a9.964 9.964 0 0 0 2.159.988l.498.183c.414.118.795.331 1.113.623.057.077.089.17.091.266 0 .548-.83.731-1.246.747a1.72 1.72 0 0 1-1.661-.83 1.37 1.37 0 0 1-.133-.498h-2.2c.01.312.058.621.141.922.482 1.42 1.843 2.25 3.803 2.25a3.667 3.667 0 0 0 3.321-1.495c.263-.427.401-.919.399-1.42a2.33 2.33 0 0 0-1.129-2.068zm7.557-4.343h-2.391L49.7 45.892h2.491l.614-1.843h3.164l.614 1.843h2.491l-3.479-9.134zm-2.118 5.422l.922-2.74.93 2.707h-1.852v.033zm12.605-5.422v5.621l-3.479-5.621h-2.417v9.15h2.367v-5.754l3.603 5.754h2.292v-9.15zm-56.148 0h1.063V45.9H9.934zm7.905 9.15l-2.283-3.911h-1.578v3.911h-1.055v-9.134h1.968a6.293 6.293 0 0 1 2.092.249 2.365 2.365 0 0 1 1.569 2.35 2.49 2.49 0 0 1-1.877 2.491l2.408 4.077h-1.246l.002-.033zm-3.878-8.303v3.496h1.262a2.109 2.109 0 0 0 2.043-.88c.136-.256.207-.541.208-.83 0-1.578-1.295-1.727-2.533-1.727h-.988l.008-.059zm-8.203-.847h-.939l-3.13 9.134h1.063l.83-2.416h3.421l.83 2.416h1.079l-3.154-9.134zm-1.91 5.812l1.436-4.567 1.445 4.567H3.848zM68.44 28.737a.77.77 0 0 0-.423.257c-7.913 6.883-15.154.98-20.551-.158a15.374 15.374 0 0 0-7.83.365 6.766 6.766 0 0 1-4.575-.365c-2.068-.922-3.313-2.358-5.389-3.139a7.106 7.106 0 0 0-5.223.332c-.731.282-2.533-.457-3.255-.05-.216.125-1.055.673-.83.888.151.025.306.025.457 0a8.744 8.744 0 0 1 2.914.457c2.682 1.021 3.687 3.645 4.384 5.322a11.32 11.32 0 0 0-10.504-2.259c-3.371.905-7.872 3.371-11.982 1.27a2.705 2.705 0 0 0-.731-.365.83.83 0 0 0 .332.54c1.154 1.071 4.384 2.782 10.23.656s11.625-1.661 13.95 2.441c0 0 .149-6.045-3.936-7.93a4.083 4.083 0 0 1 2.533-.482c.918.102 1.805.4 2.599.872 1.611.971 3.222 2.491 5.19 3.072.272.078.55.136.83.174a11.936 11.936 0 0 0-4.6 5.181 14.058 14.058 0 0 1 9.142-5.513l.955-.141c2.69-.232 5.239.399 10.371 2.059 10.163 3.321 14.049-.83 15.652-2.798a.904.904 0 0 0 .29-.686z"/>
</svg>