<svg xmlns="http://www.w3.org/2000/svg" viewBox="0 0 70 70"><path d="M26.2 38.3c0 .6-.5 1.1-1.1 1.1H7.9c-.6 0-1.1-.5-1.1-1.1V25.7c0-.6-.5-1.1-1.1-1.1H2.2c-.6 0-1.1.5-1.1 1.1v33.9c0 .6.5 1.1 1.1 1.1h3.6c.6 0 1.1-.5 1.1-1.1V45.8c0-.6.5-1.1 1.1-1.1h17.2c.6 0 1.1.5 1.1 1.1v13.7c0 .6.5 1.1 1.1 1.1H31c.6 0 1.1-.5 1.1-1.1V6c0-.6-.5-1.1-1.1-1.1h-3.6c-.6 0-1.1.5-1.1 1.1l-.1 32.3zm43-13.1c.3-.5.1-.9-.5-.9h-4.3c-.6 0-1.3.4-1.6.9l-8.2 13.3c-.3.5-1 .9-1.6.9h-8.2c-.6 0-1.1-.5-1.1-1.1V13.8c0-.6-.5-1.1-1.1-1.1H39c-.6 0-1.1.5-1.1 1.1v45.7c0 .6.5 1.1 1.1 1.1h3.6c.6 0 1.1-.5 1.1-1.1V45.8c0-.6.5-1.1 1.1-1.1h7.8c.6 0 1.3.4 1.6.9l8.6 14.1c.3.5 1 .9 1.6.9h4.3c.6 0 .8-.4.5-.9L59.1 43.3c-.3-.5-.3-1.3 0-1.8l10.1-16.3zM56.7 42.3c.1 0 .1.1 0 .2-.1 0-.1 0-.1-.1s0-.1.1-.1z" fill="#742a90"/><path fill="none" d="M0 0h70v70H0z"/></svg>