<svg xmlns="http://www.w3.org/2000/svg" width="70" height="70"><path fill="none" d="M0 0h70v70H0z"/><path fill="#E01E37" d="M49.3 15.2c10.1 3.1 17.5 12.5 17.5 23.5 0 1.6-.2 3.2-.5 4.7v.2c-.8 4.3-2.5 8.3-5.1 11.8 4.4-5.6 7.1-12.7 7.1-20.4C68.3 16.8 53.4 2 35 2c-8.4 0-16 3.1-21.9 8.1l-.1.1c-4.6 4.2-7.5 10.2-7.5 16.9 0 2.8.5 5.4 1.4 7.9v.1c2.3 5 7.4 8.5 13.4 8.5C28.4 43.6 35 37.1 35 29v-6.3c0-2.9 1.6-5.4 4-6.7 1.9-1 4-1.6 6.3-1.6 1.3.2 2.7.4 4 .8"/><path fill="#21579E" d="M20.8 54.6C10.6 51.5 3.3 42.1 3.3 31.1c0-1.6.2-3.2.5-4.7v-.2c.8-4.3 2.5-8.3 5.1-11.8C4.4 19.9 1.8 27 1.8 34.7c0 18.2 14.9 33 33.3 33 8.4 0 16-3.101 21.9-8.101l.1-.101c4.602-4.2 7.5-10.2 7.5-16.899 0-2.801-.5-5.399-1.398-7.899v-.1c-2.301-5-7.4-8.5-13.4-8.5-8.1 0-14.7 6.5-14.7 14.6V47c0 2.9-1.6 5.4-4 6.7-1.9 1-4 1.6-6.3 1.6C23.4 55.2 22 55 20.8 54.6"/></svg>