<svg xmlns="http://www.w3.org/2000/svg" viewBox="0 0 70 70"><path d="M33.9 44.2v1l.4 1.2h12l-5-13.2c-4.5 1.9-7.4 6.2-7.4 11zm3.6-21.1L29.9 2.8H17.5L.8 46.4h12l10.9-30.2 4.6 13c2.5-2.7 5.7-4.8 9.2-6.1z" fill="#18b898"/><path d="M45.9 21.7c-2.8 0-5.7.5-8.3 1.4l3.8 10.1c1.4-.6 3-.9 4.5-.9 6.7 0 12.1 5.3 12.2 12 0 6.7-5.3 12.1-12 12.2-6.4 0-11.7-4.9-12.1-11.3l-5.6-16c-3.7 4.1-5.8 9.5-5.7 15 0 13.5 9.4 22.9 23.3 22.9s23.3-9.5 23.3-22.9c-.1-12.8-10.5-22.5-23.4-22.5z" fill="#b4baae"/><path d="M33.9 44.2c0-4.8 3-9.2 7.5-11l-3.8-10.1c-3.5 1.3-6.7 3.4-9.3 6.1l5.6 16v-1z" fill="#008a7c"/></svg>