<svg xmlns="http://www.w3.org/2000/svg" xmlns:xlink="http://www.w3.org/1999/xlink" width="70" height="70">
    <path fill="none" d="M0 0h70v70H0z"/>
    <path fill="#B10A32"
          d="M9.9 49.9c.7 3.1.6 8.199-1.5 10.8-3 3.7-5.9-.4-6.6-3.4-.8-3.3-.7-9 1.7-11.7.8-1 2.2-1.699 3.4-.8 1.9 1.3 2.3 3 3 5.1"/>
    <path fill="#FFF"
          d="M7.1 54c.1.4-.2.9.4 1 .4.3 1.3.2 1.2.8-.7 0-1.3-.7-2.1-.5-.4.101-.8.3-1.3.5-.1-.1-.1-.1-.1-.2.4-.3 1.1-.3 1.5-.699V53.8c.2-.3.4-.1.4.2m.7 2.4c.4.4.1.9.2 1.4 0 1.1 0 2.1.3 3.2 0 .1-.1.3-.2.4-.1 0-.2-.101-.2-.2-.1-1.5-.2-2.9-.3-4.4-.1-.399-.7-.1-.9-.2-.1 0-.3.101-.4.2-.1 1.5 0 3-.2 4.5 0 .1-.1.1-.2.1l-.1-.1c.1-1.5.1-3.2.2-4.6.2-.2.5-.4.9-.4.2-.2.6-.1.9.1m-3.3 2.4v.9c.1.3-.1.7-.1 1 0 .2-.1.3-.1.5h.2c.3-.101.3-.5.3-.8.1-.301 0-.601.1-.9 0-.7 0-1.2.1-1.8v-.4c.1-.6 0-1.2 0-1.8-.2-.6-.8-.6-1.3-.7-.1-.1-.2-.3-.2-.399.1-.201.4-.301.7-.401.1 0 .2 0 .2-.1.1.1.2.1.3.1.1 0 .1-.1.1-.2-.2-.3-.5 0-.8 0-.3.1-1 .1-1 .7 0 .2.1.4.2.5.1.1.2.2.4.2.3.1.7.1.9.5v1c.1.2 0 .399 0 .7-.1.2-.4.1-.5.1-.1-.1-.3 0-.5-.1-.1-.2-.1-.4 0-.601.3-.1.5-.1.8-.3V56.3l-.1-.1c-.2-.2-.2 0-.5 0h-.2c-.4 0-.1-.5-.3-.7-.1 0-.1-.2-.2-.1-.3.199 0 .5 0 .8.1.7.1 1.5-.1 2.3.3.3.1.7.1 1.1v.5c0 .2-.2.4 0 .601.1-.101.2-.101.2-.201.1-.5.2-1 .2-1.5 0-.1.1-.2.2-.1.2 0 .3.199.5.199.3-.099.1-.299.1-.399-.3 0-.2-.101-.5-.2-.1 0-.2 0-.2-.1 0-.2 0-.4.1-.601.2-.1.4 0 .7 0 .1 0 .3 0 .3.101 0 .2 0 .7-.1.9M8.8 50h-.3c-.1-.1-.3-.2-.4-.3-.3-.2-.8-.4-1.1-.7-.3 0-.4.3-.7.5 0 0-.1.1-.1 0 .1-.2.4-.4.5-.5.1-.1.2-.1.3-.2.2.1.3.2.5.3.3.1.4.3.6.3l.6.3s.3 0 .1.3z"/>
    <path fill="#FFF"
          d="M8.2 46.5c0 .1-.2.2-.4.2s-.3.1-.4.2c0 .1-.1.1-.1.2 0 .2.3.2.4.301.1 0 .1.1.1.1h-.3c-.3.1-.6-.1-.8 0-.1 0-.1 0-.3.1h-.2c-.2.101-.5 0-.5.2s-.1.399-.1.599c0 .1 0 .199-.1.3 0 .3.1.7.1 1.1v.3c.4 0 .7-.1.8-.1h.5c.2 0 .4 0 .5.1 0 0 .1 0 .1.101 0 .1-.1.1-.2.1h-.5c-.4 0-.7.101-1.2 0H4.2c-.1 0-.2 0-.2-.1 0-.101.1-.101.1-.101h.7c.3 0 .4 0 .6-.1v-.2c0-.3-.1-.6 0-1v-.7c0-.199 0-.6.2-.699l.6-.2h.6c.1 0 .3-.101.3-.2S7 46.8 6.9 46.7h-.3c-.1 0-.2 0-.3-.101-.2-.3-.3-.6-.2-1 0-.1.1-.1.2-.1.1.1 0 .3 0 .4 0 .3.2.5.3.6s.2 0 .3 0C7.1 46.4 7 46.2 7 46c0-.3 0-.4.1-.6.1 0 .1.1.1.199v.101c0 .2 0 .5.1.7.1.1.1.1.2.1.3 0 .5-.1.5-.3.1-.2-.1-.5.2-.5.1 0 .1 0 .1.1l-.1.7z"/>
    <path fill="#FFF"
          d="M8.2 48.7c-.1 0-.2 0-.2-.101-.2-.199-.7-.3-.9-.5-.3-.1-.3 0-.4.101-.1.1-.2.2-.4.2-.1.1-.1.1-.2.1l-.1-.1.3-.3c.2-.1.4-.3.6-.4.2.1.6.2.8.3.2.4.5.4.5.7.1 0 .1 0 0 0M7.3 52c.1.3 0 .8-.1.9-.2.1-.3.1-.4.1-.4 0-.3.1-.6.1l-.6.1h-1c-.2 0-.4-.1-.6-.1 0-.1-.1-.1-.1-.2s.2-.1.4-.1c.3 0 .7.101 1 0h.9c.1 0 .3-.1.3-.1.3-.1.3-.1.4-.4 0-.3 0-.399-.3-.399-.4-.101-.6 0-.8-.2-.2-.2 0-.5-.3-.7-.3 0-.5.1-.8 0h-1c-.1 0-.2 0-.1-.1.1-.101.2 0 .3 0h3.4c.3 0 .4-.101.6 0C8 50.9 8 51 8 51s0 .1-.1.1c-.2.101-.4 0-.6 0h-.6c-.1 0-.3 0-.5-.1h-.4c0 .2 0 .3.2.4.1.1.4.1.6.1.3.2.6.3.7.5m-1.7-6.3c0 .3 0 .8-.2 1.1-.2.101-.6 0-.7.2-.1.2 0 .4 0 .6 0 .3.3.4.4.6.1.1.1.2.2.3-.1 0-.1.1-.2 0l-.1-.1v-.1c-.1-.1-.2-.2-.3-.2-.4 0-.6.4-.9.601-.1.1-.2.2-.3.2-.1.099-.2.099-.3.199-.1.1-.2.2-.4.2v-.1c0-.1.2-.2.3-.2.2-.2.4-.5.8-.7.1-.2.5-.3.6-.6 0-.101-.1-.2-.1-.3 0-.2.1-.4-.1-.5-.2 0-.5-.101-.6-.2-.3-.3-.4-.8-.2-1.3.2 0 .1.3.1.399 0 .2.1.5.2.601.1.1.2.2.3.2s.2-.1.2-.199c.1-.301-.1-.601.1-.901 0-.1 0-.2.1-.3h.2c0 .2-.1.399-.1.6s0 .4.1.5c.1.1.2.1.2.1.2 0 .4-.2.4-.4s.1-.5 0-.6v-.1c.3.2.3.3.3.4m-.5 3.9c-.1 0-.1-.2-.1-.2-.1-.1-.2-.3-.5-.2-.1.1-.2.1-.3.2-.3.399-.6.5-1 .899-.1 0-.1 0-.1-.1.1-.099.2-.199.4-.299l.3-.3.2-.2c.2-.2.3-.2.5-.4.1-.1.2-.1.3 0 0 0 .2.1.3.2.1.1.2.3 0 .4"/>
    <path fill="#E0596D"
          d="M40 6.9c.7 0 1.1.3 1.5.5.8.4 1.4.8 2.5.8.6 0 1.2.1 1.7.3 1.899.9 3 4.2 3.3 6 .1.6.1 1.3 0 1.9s-.1 1.2 0 1.7c.2.9.6.9.8.9.2 0 .5-.1.8-.1.2 0 .4-.1.7-.1.5-.1 1.101-.1 1.601-.1.699 0 1.5.1 2.1.3.7.2 1.4.2 2.1.3.5 0 1.101.1 1.7.2.601.1 2.5.5 3.7.9.6.3 1.1.7 1.6 1.1.4.4.801.7 1.301 1 2.8 1.5 3.6 3.2 2.8 6-.102.3-.202.6-.202.9-.3.9-.5 1.9-.9 2.8-.399 1.2-1 1.6-1.699 2.2-.2.2-.4.4-.7.6-.7.6-1.2 1.4-1.7 2.2-.7 1.1-1.5 2.3-2.7 3.1-1.001.6-1.901.7-2.901.7h-.2c-.5.2 0 1.2.399 1.8.2.3.4.7.601 1.2.1.3.1.7.1 1.1 0 .301 0 .601.101.801 0 .1.199.199.3.399.3.2.6.5.7.9.3 1.1.199 3.3-.101 4.2-.1.2-.3.5-.5.7-.2.2-.399.5-.5.601-.1.2-.1.399-.2.7-.1.399-.2.799-.4 1.199-1.1 1.6-3.4 2.4-5.3 3.1-.5.2-.9.3-1.301.5-.5.2-.899.3-1.3.3-.5 0-1-.2-1.399-.4-.2-.1-.5-.2-.8-.4-.8-.3-1.5-.4-2.399-.4-.4 0-.8-.1-1.3-.1-.9-.101-1.5-.5-2-.9l-.2-.2H41.6c-.8 0-1.399-.199-1.8-.5-.899 1.301-2.2 2.2-4.2 3-1.3.7-2.7 1-3.8 1.2-.3.1-.6.2-.8.3-1.1.301-2.2.5-3.4.5-.4 0-.9 0-1.3-.1-1.5 0-2.7-.4-3.7-1.1-1-.5-1.9-1.2-2.7-1.9-1.1-.7-2.3-1.6-2.8-2.8-.7-1.4-.3-2 .1-2.9.1-.2.2-.5.4-.7 0-.1.1-.1.1-.199.8-1.801 1-2.601 1.1-2.9-.9-.3-1.7-1.1-2.4-2.4-.4-.701-.8-1.401-1.1-1.701-.2-.2-.4-.4-.6-.7-.2-.2-.4-.3-.4-.4-.8-.8-1.8-1.3-2.8-1.7-.9-.4-1.8-.9-2.5-1.5-.5-.399-.9-1-1.3-1.699C6.6 36.1 5.4 34.3 5.1 32.4c-.3-1.8.1-2.9.7-4 .2-.4.4-.8.6-1.1l.3-.6c.1-.5.2-.7.3-.9.2-.5.3-.9.9-1.5.7-.8 1.3-1.2 2.1-1.6.9-.4 1.9-.7 2.7-.8.1 0 .6-.1.8 0 .2 0 .4.1.5.1h.1c.2 0 .4-.1.5-.2.2-.1.5-.2.9-.2h.1c.9 0 3.9 1.6 4.7 1.6h.3c.1 0 .2-.1.2-.1.4-.3.7-.7.9-1.3 0 0 0-.1.1-.1 0-.1.1-.2.1-.3 0-.1.1-.2.1-.3.2-.6.3-1.2.4-1.8 0-.2.1-.3.1-.5v-1.2s0-.1.1-.1c0-.1 0-.1.1-.1 0 0 0-.1.1-.1 0 0 0-.1.1-.1.3-.6.5-1.4.7-2.1.4-1.6.9-3.2 2.3-4.1.6-.4 1.3-.4 1.9-.5.5 0 1-.1 1.5-.3.4-.2.7-.5 1-.8.5-.4 1-.8 1.7-1 .1 0 .1 0 .2-.1h4.1c.6 0 1.1-.1 1.7-.2.9-1 1.6-1.2 2-1.2"/>
    <defs>
        <path id="a"
              d="M39.1 7.4c-1.3.2-1.9.5-3.2.3-1.101-.1-2.2-.2-3.4.2-1.1.3-1.7 1.3-2.7 1.8-1.1.6-2.3.2-3.3.8-1.9 1.2-1.9 4.2-2.8 6.1-1 2.1-.6 5.3-2.6 6.9 0 0-.1.1-.3.1h-.4c-.9 0-3.6-1.6-4.8-1.6-.6 0-.9.3-1.5.4h-1.4c-.8.1-1.8.4-2.5.8-.8.4-1.4.8-2 1.5-.8.9-.7 1.2-1.2 2.1-1 2.1-2 3-1.5 5.5.4 2.1 1.8 4.3 3 6.101 1.4 2.1 4.2 2.3 6.1 4.199.7.7 1.5 1.4 2.1 2.2.5.601 2.3 2.4 2.5 3.101.1.6-.9 2.899-1.2 3.5-.6 1.3-1.2 1.699-.5 3.3.9 1.899 3.6 3.1 5.1 4.399 2.1 1.801 5.2 1.101 7.7.7 2.6-.399 5-.8 7.101-2.899 1.1-1.101 1.5-2.2 3.3-1.601 1.3.4 1.8 1.4 3.3 1.601 1.4.199 2.5.1 3.8.6 1.4.5 1.7 1.1 3.3.5 1.9-.7 5.2-1.5 6.4-3.4.4-.6.3-1.3.6-1.899.2-.4.9-1 1-1.3.301-.7.4-2.9.101-3.9-.2-.6-.8-.9-1-1.3-.2-.601 0-1.3-.2-1.9-.5-1.399-1.8-2.8-.9-3.5.2-.1 2.101 0 3.2-.7C62.4 38.9 63 36.4 64.6 34.9c1-.9 1.801-1.3 2.301-2.7.399-1.2.699-2.4 1.099-3.7.8-2.8-.2-4.3-2.6-5.6-1.1-.6-1.8-1.6-2.8-2.1-1-.4-2.6-.8-3.6-.9-1.4-.2-2.6-.2-3.9-.5-1.1-.3-2.3-.3-3.6-.1-1.3.2-2.3.8-2.7-1-.2-1.1.2-2.5 0-3.6-.3-1.8-1.4-4.9-3.2-5.7-1-.5-2.199-.1-3.399-.8-1-.6-1.5-.8-2.4-.8a.857.857 0 0 0-.701 0"/>
    </defs>
    <clipPath id="b">
        <use xlink:href="#a" overflow="visible"/>
    </clipPath>
    <radialGradient id="c" cx="-130.834" cy="-133.116" r="1.02"
                    gradientTransform="translate(3755.995 3817.745) scale(28.427)" gradientUnits="userSpaceOnUse">
        <stop offset="0" stop-color="#fff"/>
        <stop offset=".068" stop-color="#fff"/>
        <stop offset=".38" stop-color="#f8d6dd"/>
        <stop offset="1" stop-color="#e0596d"/>
    </radialGradient>
    <path clip-path="url(#b)" fill="url(#c)" d="M5 7.3h63.7v53.3H5z"/>
    <defs>
        <path id="d"
              d="M39.6 7.3c-.199 0-.3 0-.5.1-1.3.2-1.9.4-3.1.3-.2 0-.9-.1-1.2-.1-.7 0-1.4 0-2.2.3-1.1.3-1.7 1.3-2.7 1.8-1.1.6-2.3.2-3.3.8-1.9 1.2-1.9 4.2-2.8 6.1-.8 1.5-.7 3.7-1.5 5.4l.3 1.8c.3.9 2.1.9 1.8 2.7l.1.3c1.4 4.8 10.1 3.6 12.5 1.7 1.2-1 3.6-1.7 4.6-2.9.801-1.1 3.601-1.9 4.2-3.1 1.101-1.8 2.4-4.2 2.3-5.8-.399-5-3.399-7.4-5.8-8.4-1.1-.5-1.5-.9-2.399-.9-.201-.1-.201-.1-.301-.1"/>
    </defs>
    <clipPath id="e">
        <use xlink:href="#d" overflow="visible"/>
    </clipPath>
    <radialGradient id="f" cx="-126.428" cy="-129.387" r="1.02"
                    gradientTransform="translate(2795.67 2836.901) scale(21.8418)" gradientUnits="userSpaceOnUse">
        <stop offset="0" stop-color="#e0596d"/>
        <stop offset=".209" stop-color="#e0596d"/>
        <stop offset=".289" stop-color="#e16172"/>
        <stop offset=".42" stop-color="#e47580"/>
        <stop offset=".584" stop-color="#e99299"/>
        <stop offset=".773" stop-color="#f2bcc2"/>
        <stop offset=".871" stop-color="#f8d6dd"/>
        <stop offset="1" stop-color="#f8d6dd"/>
    </radialGradient>
    <path clip-path="url(#e)" fill="url(#f)" d="M22.2 7.3h26v24.2h-26z"/>
    <defs>
        <path id="g"
              d="M40.5 7.9c-.2 0-.4 0-.6.1-1.301.2-2 .5-3.301.3-.199 0-1-.1-1.3-.1-.7 0-1.5 0-2.3.3-1.1.3-1.7 1.3-2.8 1.8-1.1.6-2.4.2-3.5.8-1.1.7-2.4 3-2.8 6-.1 1 .5 1.9.4 3-.6 4.8.8 3.7 1.8 5.7 1.9 3.6 1.7 4.8.8 4.6 1.1 1.3 2 2.9 1.3 4 3.3.7 7.5-.2 9.1-1.4 1.3-1 3.101-2 4.101-3.3.899-1.1 2.5-4.6 3.199-5.8 1.101-1.8 2.301-2.2 3.2-5.6 1.5-5.7-1.399-8.1-4.5-9.4-.799-.4-2.099-1-2.799-1 .1 0 0 0 0 0"/>
    </defs>
    <clipPath id="h">
        <use xlink:href="#g" overflow="visible"/>
    </clipPath>
    <radialGradient id="i" cx="-128.398" cy="-130.305" r="1.02"
                    gradientTransform="matrix(24.3395 0 0 23.1736 3162.185 3034.794)" gradientUnits="userSpaceOnUse">
        <stop offset="0" stop-color="#e0596d"/>
        <stop offset=".08" stop-color="#e05f70"/>
        <stop offset=".19" stop-color="#e36e7b"/>
        <stop offset=".318" stop-color="#e7848d"/>
        <stop offset=".458" stop-color="#eda2a9"/>
        <stop offset=".607" stop-color="#f5ccd2"/>
        <stop offset=".638" stop-color="#f8d6dd"/>
        <stop offset=".738" stop-color="#f9dce1"/>
        <stop offset=".887" stop-color="#fcecee"/>
        <stop offset="1" stop-color="#fff"/>
    </radialGradient>
    <path clip-path="url(#h)" fill="url(#i)" d="M23.9 7.9h25.5v27.2H23.9z"/>
    <defs>
        <path id="j"
              d="M35.6 38.2c-2 .5-5.7 0-7.399 1.3-1.6 1.1-3 2.6-3.8 4.3-1.8 2-3.8 3.8-5 5.4-1.2 1.7-1.5 4.5-.7 6.1 2.2 4.4 7.8 5.8 12.1 4.5 4.1-.899 9.2-2.1 9.8-7.6.301-2.7 1-5.5.101-8-.7-1.8-.8-5.9-4-5.9-.302-.3-.702-.2-1.102-.1"/>
    </defs>
    <clipPath id="k">
        <use xlink:href="#j" overflow="visible"/>
    </clipPath>
    <radialGradient id="l" cx="-119.178" cy="-123.16" r="1.02"
                    gradientTransform="translate(1910.792 1988.579) scale(15.8035)" gradientUnits="userSpaceOnUse">
        <stop offset="0" stop-color="#fff"/>
        <stop offset=".411" stop-color="#f8d6dd"/>
        <stop offset="1" stop-color="#e0596d"/>
    </radialGradient>
    <path clip-path="url(#k)" fill="url(#l)" d="M18 38h23.7v22.9H18z"/>
    <defs>
        <path id="m"
              d="M5.5 31.4c0 2 1.6 4.2 2.4 5.9 1.3 2.5 2.4 2.601 4.7 3.8 1.9 1 3.1 2.2 4.1 4.2 2.8 5.3 5.7.4 8.1-1.6 1.8-1.4 2.8-4.601 2.3-6.9-.3-1.5-1.6-3.8-2.9-4.7l.8.5c-1-1-.2-2.3-.7-3.5-.4-1.1-1-2.4-1.6-3.6-.9-1.8-1.8-1.3-2.7-.9-.5.2-.9.5-1.3.4-1.1-.3-2.8-.7-3.8-1.1-.7-.3-1.5-.4-2.2-.4-3.7.1-7.1 3.8-7.2 7.9"/>
    </defs>
    <clipPath id="n">
        <use xlink:href="#m" overflow="visible"/>
    </clipPath>
    <radialGradient id="o" cx="-124.771" cy="-127.962" r="1.019"
                    gradientTransform="translate(2534.437 2608.74) scale(20.093)" gradientUnits="userSpaceOnUse">
        <stop offset="0" stop-color="#fff"/>
        <stop offset=".068" stop-color="#fff"/>
        <stop offset=".429" stop-color="#f8d6dd"/>
        <stop offset="1" stop-color="#e0596d"/>
    </radialGradient>
    <path clip-path="url(#n)" fill="url(#o)" d="M5.4 23.6h22.3v27H5.4z"/>
    <defs>
        <path id="p"
              d="M50.3 19.9c-1.1.2-2.3 1-3.2 1.6-.9.7-1.5 2.5-2.4 3.1-2.101 1-2.2 1.5-3.3 3.3-.9 1.5-2.101 3.6-3.101 5.3 0 .6 0 1.3.2 1.9.2 1 1.4 2.7 1.3 3.6v-.4c1 5.2 11.601 6.8 9.601 4.3-5.1-6.6 2.8-9.8 3.8-8.6 6.2 7.7 8.7 3.2 9.3 2.4 1.3-1.7 2.3-3.5 2.6-5.2 2-10.9-4.1-9.4-7.6-10.9h-.6c-1.301.1-2 .2-3.301-.1-.199 0-.399-.1-.6-.1S52.6 20 52.4 20c-.4-.1-.801-.1-1.2-.1-.2-.1-.5-.1-.9 0"/>
    </defs>
    <clipPath id="q">
        <use xlink:href="#p" overflow="visible"/>
    </clipPath>
    <radialGradient id="r" cx="-135.192" cy="-136.816" r="1.021"
                    gradientTransform="translate(5555.013 5563.68) scale(40.5253)" gradientUnits="userSpaceOnUse">
        <stop offset="0" stop-color="#e0596d"/>
        <stop offset=".307" stop-color="#e0596d"/>
        <stop offset=".4" stop-color="#e3707d"/>
        <stop offset=".6" stop-color="#eda4ab"/>
        <stop offset=".761" stop-color="#f8d6dd"/>
        <stop offset="1" stop-color="#f8d6dd"/>
    </radialGradient>
    <path clip-path="url(#q)" fill="url(#r)" d="M38.4 19.8h28.8V45H38.4z"/>
    <defs>
        <path id="s"
              d="M49.2 41.6c.1 0 .1 0 0 0m-2.1-20.1c-.3.3-.699.7-.8 1-.5.8-.7 1.2-1.5 1.6-.6.3-1 .5-1.5 1-.399.5-.7 1-1.1 1.5-.7 1-2.101 1.2-3.3 1.2H38c-1.7 1.1-3.4 1.7-5.1 1.3-1-.2-2.2-2-3.2-1.9-.9.1.5.6-.2 1.4-.8.9-1.8.2-2.5-.6-.5-.5-.8-1-.9-1-.2.1 0 .6 0 .8 0 .5-.5.8-.6 1.4-.1.5 0 .8.1 1.1.1.3.2.7.2 1.3 0 .9 0 .6-.1 1.6-.1 1.8-.8 2.6-1.3 4.399-.5 2 1.6 3-.9 6.7-.8 1.2-4.5 2.9-4.3 4.4 1-.2 1.6-1.3 2.4-2.101 1.8-1.8 6.6-3.699 9.4-3.8 3-.1.1 3.101 1 3.8.8.601-.8 2.4.1 1.9s2.2-4.8 2.8-5.8c.3-.7 5-11.6 5.2 4.8 0 1.6.9 2.3.5 3.8-.2.702-3 4.602 1.6 4.202.6-3.4-2-5.8-.601-7.5.7-.9 3.2-1 3.2-2.2C44.7 43.3 45.9 43.3 47 43.4c.7 0 1.3.1 1.6-.5.4-.9.6-1.2.7-1.3 0 0-.1-.1-.1-.399C49 40.1 50 40.1 49.5 39c1.1.3 1.4-.8 2.3-1 .601-.2 1.8-.1 2.5 0 1.5.2 2.2 2.7 2.5 2.5.3-.5-.5-1.8-1.3-2.5-.6-.6-1.4-1.7-1.9-2.4-.8-1-.3-2.3-1.399-2.899-.3-.2-.601-.1-.9-.1-.5.1-1.1.2-2.2-.5C43.2 36.3 48.2 30 47.8 28.4c-.7-2-2.3-2.6-.7-6.9 0 0 0-.1 0 0 0-.1 0 0 0 0"/>
    </defs>
    <clipPath id="t">
        <use xlink:href="#s" overflow="visible"/>
    </clipPath>
    <radialGradient id="u" cx="-125.704" cy="-128.746" r="1.02"
                    gradientTransform="translate(2683.68 2748.142) scale(21.0463)" gradientUnits="userSpaceOnUse">
        <stop offset="0" stop-color="#fff"/>
        <stop offset=".092" stop-color="#fff"/>
        <stop offset=".374" stop-color="#f8d6dd"/>
        <stop offset=".375" stop-color="#f8d5dc"/>
        <stop offset=".496" stop-color="#eea8ae"/>
        <stop offset=".609" stop-color="#e78790"/>
        <stop offset=".709" stop-color="#e36f7c"/>
        <stop offset=".794" stop-color="#e05f71"/>
        <stop offset=".853" stop-color="#e0596d"/>
        <stop offset="1" stop-color="#e0596d"/>
    </radialGradient>
    <path clip-path="url(#t)" fill="url(#u)" d="M19.2 21.4h37.899V56H19.2z"/>
    <path fill="#FFF"
          d="M28.5 42.4c-.6-.4 0-2 .7-2.801.7-.8 1.9-2 1.6-2.199-.3-.101-1.6.1-1.9 0-.4-.101 2.2-1.2 2.5-1.301.3-.1-1.9-.7-2.6-.8-.8-.1-2.4.1-2.2-.2.1-.3 1.1-.8 1.3-1 .2-.2-1.2-.9-1.3-1.3-.1-.3.3-.7 1.8-.3 1.5.3 2.7.2 3.3.3.6.1 1 .3 1.2.4.2.1.4-.4.6-.3s.7.4.7.1-.2-.8-.6-1.2c-.4-.4-1-1.1-1.1-1.3-.1-.3-.4-.9 0-1s.7 0 .9-.1c.2-.1.6-.6 1.1-.4s.8.4.9.5c.2.1.5.2.7.1.2-.1.601-.6 1.101-.3s1.3.9 2 .8c.7-.2 1.2-.5 1.399-1 .2-.4.801-1.8 1.101-2.1s.899-.8.8-.6c-.1.2-.8 1.7-.7 2.4 0 .7-.1.9.101 1.1.199.2.5.1.8 0s.7-.4.7-.2c.1.2-1.5 1.2-1.9 1.7-.5.4-.9 1.3-.7 1.7s1.101.2 1.5.2c.4 0 1.4.1 1.3.3-.1.2-1.699 1.3-1.699 1.5 0 .2 1 .5 1.5.5s1.8.2 2.3.301c.5.1.899.1 1 .399.1.3.3.5.1.5s-1.3-.1-1.6-.3c-.4-.1-2.2-.6-2.7-.5-.4 0-1.7 0-1.9.4-.203.401.697.701.897.901s.9 1 .5 1c-.5.1-.8-.3-1-.3-.2-.1-.9-.6-1.1-.7-.2-.1-1-1-1.301-.899C38.2 36.4 37.4 36.6 37 36.9c-.4.3-.9.8-1.2 1.1s-1.3 1-1.8 1.3c-.4.4-2.9 2.3-3.3 2.601-.6.399-1.7.899-2.2.499"/>
    <path fill="#B10A32"
          d="M35.5 28c-.2-.3-.1-.9 0-1.3.1-.3 1.2-2.2 2.2-1.9.399.1.7.3.899.8.2.8.2 1.9-.3 2.5-.899.9-2.299.6-2.799-.1m-5.1 2.3c.3-.1.7-.4.8-.7.1-.4.9-.4.9-.6s-.8-2.3-1.3-2.5c-.6-.2-.7.1-1.2.1-.4 0-.7-.2-1 .2-.4.6-1 1.5-.5 2.2.6.8 1.4 1.5 2.3 1.3M42.5 32c-.1.2-.5.3-.7.1.601-.8 1.2-1 2-1.6.3-.3 0-1.6.2-2 .1-.4 1.5-1.3 2-1 .3.2.6.2.7.5.3.5.3 1.3.3 1.7 0 .5-.3.9-.4 1.4-.1.5-1 .4-1.399.4-.5 0-1-.3-1.5 0-.201.1-1.001.3-1.201.5m-5.8 1.8c.2-.3 0-.8 0-1.1 0-.3.1-.7-.2-.8-.1.6-.2 1.4 0 2 .1 0 .1-.1.2-.1m-11.9 1.7c.7-1 1.4-1.3 2.3-1.5 0-.1-.2-.2-.3-.2-.6-.1-1.1-.5-1.5-1-.8-.9-1.2-1.7-2.4-1.3-1.3.4-1.4 2.6-1 3.6.4 1.4 2.1 1.5 2.9.4m26.1-1.6c1.399-.5 2.5.2 1.8 1.3-.3.6-.2 1.2-.601 1.8-.3.5-1.1.7-1.6.5s-1.2-.5-1.6-.9c-.4-.399-.5-.8-1.2-1-1.101-.3-2.3 0-3.4-.399 1.2-.6 2.601.1 3.9 0C48.8 35.2 49.2 34.2 50.9 33.9m-6.7 1.3c-.3-.2-.7-.2-1 0 .3.1.8.1 1 0m-16.7 4c-1.2-1.5-3.9 1.3-4 1.5-.2.2-.7.6-.7.7-.2.6 1.2 1.4 1.6 1.6.6.3 1 1.1 1.8.6.7-.6.8-1.1 1-2 .2-.8.5-1.6 1.1-2.1.6-.6 1.3-1 1.8-1.6-1.3-.1-1.7.9-2.6 1.3M46 32.8c-.2-.9-1.9 0-2.3 0 .5.1 1.2.1 1.8.2.1 0 .5 0 .5-.2m-7.2 5.4c.5.3.601.899 1.101 1.2.399.2.999.6 1.399.9.2.2.5 1 .101 1.101-.5.3-.7-.801-1 .1-.301.9-1.301 1.3-1.5 2.2-.101.6-.601 1.5-.2 2.2.1.199.3.3.6.3.5.1.601 0 1 .3.5.3 1 .5 1.5.2.601-.3 1-.7 1.101-1.3C42.8 44.7 42.6 44 42.6 43.3s.301-1.1 0-1.8c-.3-.6-.5-.8-1-1.2-.399-.3-.5-.8-.8-1.2-.5-.6-1.3-1.399-1.5-1.699C39 37.2 38.7 37 38.2 37s-1.2.5-1.5.9c-.4.5-1.101.8-1.5 1.3-.5.5-.4 1.2-.6 1.8-.2.5-.6 1.1-.7 1.7.3-.2.6-.7.8-1 .2-.2.3-.5.5-.7.2-.2.5-.2.7-.4.6-.6.699-1.3 1.1-2 .2-.5 1.3-.6 1.8-.4m11.3 5.9c0-.4-.2-.7-.1-1.1.1-.5 0-.8-.3-1.3s-1-1.7-1.8-1.4c-.2.101-.5.4-.801.2-.399-.2-.499-.5-.899-.7l-1.2-.3c-.3-.1-.5-.1-.9-.2.301.601 1.2.9 1.7 1.3 1 .801.5 1.801.5 2.801 0 .3-.1.8.101 1.1.199.3 1.1.4 1.3.5.1.1 1.1.4 1.6.2.399-.101.799-.801.799-1.101m-11.2 9.7c.3-.1.699.3 1.399.5.7.3 1.2.4 1.7.4s1.5.6 1.7 1c.2.399.3 1.3 0 1.899C43.4 58.2 42.9 58.9 43.1 60.1c.3 1.2.8 1.7-.1 1.6-.9-.101-1.6-.4-2.1-.5-.5-.2-1.2-.2-1.8-.9-.6-.7-.899-.6-1.8-1.1-.899-.601-1.5-1.7-1-2.2s1.9-1.8 2-2c.2-.3.5-1.1.6-1.2m18.2-7.1c0-.3.7-.7.7-.9s.101-1.3-.1-1.7c-.101-.5-.2-1 .1-1.199.3-.2 1.3-.5 1.8-.301.601.2 1 .5 1.5.7s1.9.9 2.101 1.4.6 1 .2 1.6c-.401.5-.401.9-.601 1.2-.3.2-1 .7-1.3 1.2-.4.5-.7 1.5-1.1 1.7-.5.2-1.4.5-1.6.2-.3-.3-.399-1-.3-1.3s.7-.8.5-1.3-.6-.5-1.1-.7-.8-.4-.8-.6m-42.8 4c-.2-.3-.5-.5-.4-.8.1-.3.4-.8.5-1.3s0-1.5 0-1.8.2-.8.2-1.1c.1-.3 0-.8.5-1s1.1-.101 1.6 0c.5.1 1.4.3 1.7.8.3.5.4 1.1.7 1.3.3.2 1.2.601 1.3.8 0 .101-.2.301-.5.9-.3.6-.3 2-.3 2.3s0 1.4-.4 1.601c-.4.199-1 0-1.5-.301-.5-.3-1.3-.6-1.6-.8-.3-.2-.3-.6-.5-.7-.1.1-1 .4-1.3.1m20-5.3c.2.199.3.899.3 1.1 0 .4-.1 1-.3 1.3-.2.3-1 .7-1.2.7-.2.1-.9.3-1.3 0-.2-.1-.7-.5-.9-.9-.2-.4-.4-1.7.3-2.4.3-.4.9-.4 1.3-.7.3-.3.6-.6 1-.8 0 .399-.3.8 0 1.1.2.3.5.4.8.6m8.3-8.3c-.5-.1-.7-.2-1.2-.2.3.399 1 .399 1.5.5.199.1.399.199.5.3.5.3 1.5.6 1.6.8s1.1.6 1.5.4c.2-.101.6-.2.5-.4-.4-.8-1.5-.5-2.1-.9-.2-.1-.2-.3-.5-.3-.301-.1-.601 0-.801-.1-.199-.2-.699-.1-.999-.1m-5.5-7.3s0 .1-.1.5c-.1.3-.2 1.1.1 1.7 0 0 .2-.2.101-.7v-.8c.099-.2-.101-.7-.101-.7"/>
    <path fill="#B10A32"
          d="M35.1 36.2c.2.3-.1.7-.2.899-.2.2-.5.4-1.1 1-.6.601-1.2 1.4-1.4 1.601-.2.2-.5.8-.7.7-.1-.1.3-.9.4-1.1s.7-1.1 1-1.2c.2-.1 1.4-1.1 1.3-1.199 0-.101-.4-.101-.6-.101-.2 0-1 .3-1.3.4-.2.1-.5-.101-.2-.4.3-.3.4-.3.6-.399.2 0 .7-.101.8-.2.1-.101.1-.5 0-.5-.1-.101-.3 0-.4 0-.1 0-1.9-.3-2.2-.4-.3-.1-2-.5-2.2-.5-.3-.1-.3-.3.1-.3.5 0 1.3.2 1.6.2.3 0 .7-.1 1 0 .3 0 1.3.2 1.5.1.3-.1.7-.3.7-.4.1-.2.1-.4-.1-.6-.2-.2-.9-.7-1.1-1-.2-.4-.4-.8-.6-.9s-.5-.2-.7-.4c-.1-.2-.2-.7 0-.6.3.1.9.5 1.1.6.1.1.3.5.5.8.2.3.7.7.9.8.2.1.7.5.8.7h1.3c.5 0 1.199.1 1.3.2.1.1.6.3.8.1.2-.2.6-1.1.8-1.4.2-.2 1-1.3 1.2-1.5.2-.3 1.2-1.1 1.2-1 .1.1.3.2-.101.5C40.7 31 39.7 32 39.6 32.3c-.1.3-.699 1.2-.8 1.4-.1.2-.399.4-.3.5.1.1.7.3.8.4.101.1.5.8.2 1-.3.2-.6 0-.8-.2-.2-.3-.4-.5-.601-.7-.3-.2-.6-.3-1-.4-.5-.2-1.5-.2-1.8-.1-.3.1-.9.3-.9.6.001.3.101.7.701 1.4"/>
    <path fill="#B10A32"
          d="M35.9 33.2c-.2 0-.7-.5-.9-.9-.2-.4-.6-1.1-.7-1.2-.1-.2-.2-.5-.3-.6s-.7-.8-.5-.9.8.5.8.7c.1.2.7 1 .8 1.2s.6.9.7 1.1c.1.1.2.6.1.6"/>
    <path fill="none" d="M0 0h70v70H0z"/>
</svg>