<svg xmlns="http://www.w3.org/2000/svg" viewBox="-105 197 400 400">
    <path d="M-58.7 369l4.3-9.1h-37.5s.9 1.9 2.2 4.7c.9 2 1.3 3.3.7 6.5 0 .1-5.6 31.6-6 34-.4 2.5 1.1 3.7 3 3.7h31.6l-2.1-9.1h-20.2l2-11.1H-62l1.6-9.2H-79l1.8-10.2 18.5-.2zm298.7 0l4.3-9.1h-35.7s.9 1.9 2.2 4.7c.9 2 1.3 3.3.7 6.5 0 .1-5.6 31.6-6 34-.4 2.5 1.1 3.7 3 3.7h29.8l-2.1-9.1h-18.5l2-11.1h16.9l1.6-9.2h-16.9l1.8-10.2 16.9-.2zM8.9 372.2c.8-2.6 3.7-3.2 7.9-3.2h7.6l3.3-9.1h-13c-4.7 0-15.4-.4-17.8 10-3.2 14.6 15.7 18.8 14.8 25.4-.6 3.9-4.3 4.2-9.4 4.2H-9l2.1 9.1H6c6.6 0 15.9-1.2 18.1-9.5 3.9-14.8-17.3-19.6-15.2-26.9zm141.6 2c.6-8-4.4-14.4-16.9-14.4h-18.3l2.2 4.7c.9 2 1.3 3.3.7 6.5l-6.6 37.7h11l3.2-18.3s.8-.1 3.1 0c3 .2 3.5 2.3 9.6 18.3h12c-6.5-16.1-7.6-19.1-9.6-21.1 4.9-2 9.1-6.7 9.6-13.4zm-11 1c-.7 4-4.2 7-8.5 7h-3.7l2.3-13.2h4.2c4.1 0 6.3 2.6 5.7 6.2zM29.9 359.8l3.3 9.2h11.4l-7 39.7h11.5l7-39.7h12.7l3.4-9.2zm215.4 0l3.3 9.2h9.6l-7 39.7h11.5l7-39.7h12l3.3-9.2zm-60.2-10c-.4 0-1.1-.1-1.6-.1-13.9-1.5-17.5-2.5-18.5-20.3 0 0-.1-.9-.8-.9-.8 0-.8.9-.8.9-1 17.8-4.5 18.8-18.5 20.3-.5.1-1.2.1-1.6.1-.4 0-.9.2-.9.5 0 .4.4.5.9.6 15.4 1.9 18.8 3.2 20.1 25.4 0 .5.2 1 .8 1 .5 0 .8-.5.8-1 1.3-22.1 4.8-23.5 20.1-25.4.5-.1.9-.2.9-.6 0-.3-.5-.5-.9-.5zm1 10l2.2 4.7c.9 2 1.3 3.3.7 6.5l-3.3 18.6c-3.2 18.1-12.4 18.1-18.2 18.1-1.1 1.7 11 4.4 18.8.7 6.1-2.9 9.1-8.1 10.6-16.9.4-2.4 5.6-31.8 5.6-31.8l-16.4.1zM97 363.5c-.5-2.1-2.1-3.7-4.5-3.7H78.4l2.3 4.9c1 2.1.8 3.5-.4 5.9l-20.1 38h11.6l5.9-11.6h16.2l2.2 11.6h11.4c0 .1-10-43-10.5-45.1zM82.3 388l7.2-14.3 2.7 14.3h-9.9zm-103.7-24.5c-.5-2.1-2.1-3.7-4.5-3.7H-40l2.3 4.9c1 2.1.8 3.5-.4 5.9l-20.1 38h11.6l5.9-11.6h16.2l2.2 11.6h11.4c0 .1-10-43-10.5-45.1zM-36.2 388l7.2-14.3 2.7 14.3h-9.9z"
          fill="#d12149"/>
    <path d="M19.5 433.4c5.1 0 9.2 4.2 9.2 9.5s-4.1 9.5-9.2 9.5-9.3-4.2-9.3-9.5c.1-5.3 4.2-9.5 9.3-9.5zm-4.9 9.5c0 3.2 2.1 6.3 4.9 6.3 2.8 0 4.9-2.9 4.9-6.2s-2.1-6.3-4.9-6.3c-2.7 0-4.9 2.9-4.9 6.2zm28.1 14.9h32.1v3.3H42.7v-3.3zM56.5 436c0-2.8-.9-3.5-.9-3.5h5.7v6c0 7.2 5.8 10.3 11.6 10.3.3 0 .3.2.1.3l-2.4 2.9c-3.8 0-9.3-2.2-11.4-6.4-.3-.5-.4-.5-.6 0-2.1 4.2-7.7 6.3-11.4 6.3l-2.4-2.9c-.1-.2-.2-.3.1-.3 5.7 0 11.7-3.1 11.7-11l-.1-1.7zm0 0c0-2.8-.9-3.5-.9-3.5h5.7v6c0 7.2 5.8 10.3 11.6 10.3.3 0 .3.2.1.3l-2.4 2.9c-3.8 0-9.3-2.2-11.4-6.4-.3-.5-.4-.5-.6 0-2.1 4.2-7.7 6.3-11.4 6.3l-2.4-2.9c-.1-.2-.2-.3.1-.3 5.7 0 11.7-3.1 11.7-11l-.1-1.7zm25.8 14.5c0 .5.3.8.7.8h11.4c2.9 0 4.4-.6 5.4-1.4v-15.8c0-2.8-.9-3.4-.9-3.4h5.1v11.1h4.6v3.3H104v19.7h-4.2v-11.6c-1.5 1.1-3.2 1.3-6.8 1.3H82.3c-2.8 0-4.2-1.4-4.2-4.6v-13.6c0-2.6-.9-3.4-.9-3.4h16.9v3.3H82.3v5.6h11.1v3.3H82.3v5.4zm34.3-12.8h-3.7v-3.3h7.8v-.9c0-2.7-.9-3.4-.9-3.4h5.4v4.3h7.8v3.3h-3.8c.8 1.2 1.3 2.6 1.3 4.2 0 4.1-3.4 7.5-7.6 7.5-4.1 0-7.6-3.4-7.6-7.5 0-1.6.5-3 1.3-4.2zm3 4.2c0 2.3 1.5 4.2 3.3 4.2 1.7 0 3.3-1.9 3.3-4.1 0-2.3-1.3-4.2-3.3-4.2-1.7-.1-3.3 1.8-3.3 4.1zm11.7 7.9c4.6 0 8.3 3.5 8.3 7.9 0 4.3-3.7 7.8-8.3 7.8-4.5 0-8.2-3.5-8.2-7.8-.1-4.4 3.6-7.9 8.2-7.9zm0 3.4c-2.1 0-3.9 1.9-3.9 4.5 0 2.5 1.8 4.4 3.9 4.4 2.1 0 4-1.9 4-4.4-.1-2.5-1.9-4.5-4-4.5zm14.4-15.5v3.7h-4.6v8.6h-4.2v-15.9c0-2.7-.9-3.4-.9-3.4h5.1v7h4.6zm34.1 7.3v3.4h-31V445h11.8v-3.4c0-2.5-.9-3.2-.9-3.2h5.3v6.6h14.8zm-7.8-9c0-.5-.1-.7-.7-.7h-19v-3.4H176c.3 0 .3.2.3.4v5.1c0 3.6-.5 4.5-1.5 5.9h-4.2c1.1-1.5 1.4-3.1 1.4-6.3v-1zm-7.7 13.9c4.5 0 8.2 3.6 8.2 7.9 0 4.3-3.7 7.8-8.2 7.8-4.5 0-8.2-3.5-8.2-7.8-.1-4.4 3.6-7.9 8.2-7.9zm0 3.4c-2.1 0-4 2-4 4.5s1.9 4.4 4 4.4c2.2 0 4-2 4-4.4 0-2.6-1.9-4.5-4-4.5zM33.6 464.8v-30.7c0-2.9-.9-3.5-.9-3.5h5.1v34.2h-4.2z"
          fill="#4c5c65"/>
</svg>