<svg xmlns="http://www.w3.org/2000/svg" width="70" height="70">
    <path fill="#EA5506" d="M0 0h70v70H0z"/>
    <path fill="#FFF"
          d="M34 20.6l1.5-3.8H23.2l-6.7 17.9h12.8l1.5-3.8h-7.3l1.2-3.2h6.6l1.4-3.6h-6.6l1.4-3.5zm-1.1 10.3l-1.5 3.9c3.4.3 6.3 0 6.3 0 2-.2 5.4-.9 7.2-5.2l5-12.7H44l-4.4 11s-.7 2.4-3.2 3c-.9.1-2.6 0-3.5 0m-29.3 0l-1.5 3.9c3.4.3 6.3 0 6.3 0 2-.2 5.4-.9 7.2-5.2l5-12.7h-5.8l-4.4 11s-.7 2.4-3.2 3c-1 .1-2.6 0-3.6 0m58.6-14.1L58 28.3c-1 2.5-1.9 2.7-3.4 2.7-1.6 0-1.2-1.3-1-2.1l4.5-12.1h-5.7l-4.7 12.6c-1.6 4.5 2.1 5.4 3.9 5.4h3c1.6 0 6.8-.5 8.4-4.7l5-13.3h-5.8zM37.5 43.2l8.6-4.5-6.7-.1zm-6 16h5.8l5.8-15.6h-5.7zm24.4-15.6c-3.1 0-4.9 1.7-5.8 2.9l1.2-2.9h-5.7l-5.9 15.6h5.7l2.8-7.4c1.4-3.3 4.5-3.5 5-3.5h2.1l1.7-4.7h-1.1zm-34.6 6.8c-3.7.4-6.5 2-6.9 5.2-.2 1.6.6 3.7 4.6 3.7 0 0 3.1.1 5-1.2l-.5 1.2h5.6l3.8-10.5.2-.5c.5-1.4.5-4.6-6.2-4.8-2.8-.1-7.5.5-10.2 5.3h5.6s.8-2 3.4-2c0 0 1.6-.1 1.7 1 0 0 .2 1.6-2.1 2.1-1.5.2-4 .5-4 .5m4.3 3.1s-.8 2.3-4 2.3c-.5 0-1.2-.3-1-1.2.1-1 .8-1.3 1.6-1.5l3.9-.8-.5 1.2z"/>
</svg>