<svg xmlns="http://www.w3.org/2000/svg" width="313.67" height="275.544" viewBox="978.841 38.171 313.67 275.544"><path fill="#FFF" d="M1081.109 313.715c-7.397 0-14.306-3.41-18.912-9.567-5.625-7.53-6.334-17.362-1.816-25.6l40.969-74.852h-69.316c-23.12 0-42.918-17.274-46.063-40.172l-6.954-50.581a18.725 18.725 0 0 1 6.599-17.008c5.005-4.208 11.693-5.448 17.894-3.455 4.562 1.462 8.327 4.606 10.63 8.814l17.008 30.871h225.62c19.71 0 35.743 16.033 35.743 35.743s-16.033 35.743-35.743 35.743h-61.033l-97.264 102.623c-3.322 3.499-7.53 5.846-12.224 6.865-1.727.354-3.455.576-5.138.576zm-83.445-208.878c-1.727 0-2.968.842-3.499 1.284a5.494 5.494 0 0 0-1.949 5.005l6.909 50.536c2.259 16.343 16.388 28.701 32.908 28.701h91.771l-51.732 94.518c-2.037 3.676-1.727 7.928.797 11.294 2.525 3.366 6.467 4.872 10.586 3.986a10.6 10.6 0 0 0 5.404-3.012l101.161-106.742h66.791c12.402 0 22.456-10.098 22.456-22.456 0-12.357-10.098-22.456-22.456-22.456h-233.459l-20.817-37.736a5.204 5.204 0 0 0-3.145-2.569 4.316 4.316 0 0 0-1.726-.353z"/><path d="M1189.047 145.452c-1.905 0-3.853-.842-5.138-2.436l-72.771-89.025c-.886-1.107-2.082-1.86-3.41-2.259-2.525-.709-5.138 0-6.954 1.993-1.816 1.993-2.259 4.651-1.284 7.131l30.118 75.472c1.373 3.41-.31 7.264-3.72 8.637-3.41 1.329-7.264-.31-8.637-3.72l-30.118-75.472c-2.879-7.175-1.417-15.192 3.765-20.95 5.182-5.714 13.022-7.972 20.418-5.891 3.986 1.107 7.441 3.41 10.054 6.599l72.771 89.025c2.303 2.835 1.905 7.042-.93 9.345-1.197 1.064-2.702 1.551-4.164 1.551z"/><path fill="#FFF" d="M1189.047 145.452c-1.905 0-3.853-.842-5.138-2.436l-72.771-89.025c-.886-1.107-2.082-1.86-3.41-2.259-2.525-.709-5.138 0-6.954 1.993-1.816 1.993-2.259 4.651-1.284 7.131l30.118 75.472c1.373 3.41-.31 7.264-3.72 8.637-3.41 1.329-7.264-.31-8.637-3.72l-30.118-75.472c-2.879-7.175-1.417-15.192 3.765-20.95 5.182-5.714 13.022-7.972 20.418-5.891 3.986 1.107 7.441 3.41 10.054 6.599l72.771 89.025c2.303 2.835 1.905 7.042-.93 9.345-1.197 1.064-2.702 1.551-4.164 1.551z"/><path fill="none" d="M956.695 0h354.33v354.33h-354.33z"/><path d="M1124.515 173.489h-10.896c-3.676 0-6.644-2.968-6.644-6.644s2.968-6.644 6.644-6.644h10.896c3.676 0 6.644 2.968 6.644 6.644s-2.968 6.644-6.644 6.644zm37.249 0h-10.896c-3.676 0-6.644-2.968-6.644-6.644s2.968-6.644 6.644-6.644h10.896c3.676 0 6.644 2.968 6.644 6.644s-2.968 6.644-6.644 6.644zm37.204 0h-10.896c-3.676 0-6.644-2.968-6.644-6.644s2.968-6.644 6.644-6.644h10.896c3.676 0 6.644 2.968 6.644 6.644s-2.968 6.644-6.644 6.644z" fill="#FFF"/></svg>