<svg version="1.1" id="Layer_1" xmlns="http://www.w3.org/2000/svg" x="0" y="0" viewBox="0 0 48.6 66.7" xml:space="preserve"><style>.st1{fill:#ffe155}.st4{fill:#fff}.st6{fill:none;stroke:#000;stroke-width:3;stroke-miterlimit:10}</style><path fill="none" d="M-16.7-6.6h80v80h-80z"/><g id="XMLID_2_"><path class="st1" d="M47.1 45.7v4H22.5c-2.4 0-4.2-1.1-4.5-3.5l-.3-2.8h27.2c1.2.1 2.2 1.1 2.2 2.3z"/><path d="M15.3 21.6l.9 7.6h-2.7c-1 0-2 .4-2.6 1.1-.1.1-.2.2-.2.3-.1.2-.3.4-.4.6l-.3.7c-.1.2-.1.5-.2.7v.8c0 .3.1.5.2.7s.2.5.3.7c.1.2.3.4.4.6.1.1.2.2.2.3l.5.5c.6.4 1.3.6 2.1.6H17l.3 3 .4 3.8.3 2.7c.3 2.4 2.1 3.5 4.5 3.5h24.7v2.4c0 3.3-2.7 6-6 6H16.8c-.7 0-1.4-.1-2.1-.2-5.1-.9-9.1-5.1-9.7-10.4L1.5 16.9V4.3c0-1.5 1.2-2.6 2.6-2.6h4.6c3.6 0 6 1.1 6 6v9.2l.6 4.7z" fill="#00a64e"/><path d="M40 29.3c2 0 3.7 1.7 3.7 3.7 0 1-.4 2-1.1 2.6-.7.7-1.6 1.1-2.6 1.1H13.5c2.1 0 3.7-1.7 3.7-3.7 0-2.1-1.7-3.7-3.7-3.7H40zm-.9 28.8l1.1 7.1h-29l3.5-7.3c.7.1 1.4.2 2.1.2h22.3z" fill="#0b6f55"/><path class="st1" d="M20.2 7.4v9.3c0 2.7-2.2 5-4.9 5l-.5-4.9V7.6c0-4.9-2.4-6-6-6h5.7c3.1 0 5.7 2.6 5.7 5.8z"/><path class="st4" d="M13.5 29.3c2.1 0 3.7 1.7 3.7 3.7 0 2.1-1.7 3.7-3.7 3.7-.8 0-1.5-.2-2.1-.6-.2-.1-.4-.3-.5-.5-.1-.1-.2-.2-.2-.3-.1-.2-.3-.4-.4-.6-.1-.2-.2-.4-.3-.7-.1-.2-.1-.5-.2-.7v-.8c0-.3.1-.5.2-.7l.3-.7c.1-.2.3-.4.4-.6.1-.1.2-.2.2-.3.6-.5 1.5-.9 2.6-.9z"/><path class="st4" d="M10.8 35.6c.2.2.4.3.5.5l-.5-.5zm-.2-5c-.1.2-.3.4-.4.6.1-.2.2-.4.4-.6zm-.4 4.2c.1.2.3.4.4.6-.2-.2-.3-.4-.4-.6zm-.3-2.9c-.1.2-.1.5-.2.7.1-.2.1-.5.2-.7zm-.1 1.5c0 .3.1.5.2.7-.2-.2-.2-.5-.2-.7z"/><path fill="none" stroke="#000" stroke-width="3" stroke-linecap="round" stroke-miterlimit="10" d="M14.7 57.9l-3.5 7.3h29l-1.1-7.1"/><path class="st6" d="M17.3 39.7l-.3-3M7.6 1.6H4.1c-1.5 0-2.6 1.2-2.6 2.6v12.5L5 47.4c.6 5.3 4.6 9.5 9.7 10.4.7.1 1.4.2 2.1.2h24.3c3.3 0 6-2.7 6-6v-6.4c0-1.3-1-2.3-2.3-2.3H17.6"/><path class="st6" d="M16.1 29.3l-.8-7.7-.5-4.9V7.5c0-4.9-2.4-6-6-6m4.7 27.8H40c2 0 3.7 1.7 3.7 3.7 0 1-.4 2-1.1 2.6-.7.7-1.6 1.1-2.6 1.1H13.5m3.8 3l.4 3.8.3 2.7c.3 2.4 2.1 3.5 4.5 3.5h24.7"/><path class="st6" d="M7.6 1.6h6.8c3.2 0 5.8 2.6 5.8 5.8v9.3c0 2.7-2.2 5-4.9 5h-.1m-1.7 7.6c2.1 0 3.7 1.7 3.7 3.7 0 2.1-1.7 3.7-3.7 3.7-.8 0-1.5-.2-2.1-.6-.2-.1-.4-.3-.5-.5-.1-.1-.2-.2-.2-.3-.1-.2-.3-.4-.4-.6-.1-.2-.2-.4-.3-.7-.1-.2-.1-.5-.2-.7v-.8c0-.3.1-.5.2-.7l.3-.7c.1-.2.3-.4.4-.6.1-.1.2-.2.2-.3.6-.5 1.5-.9 2.6-.9z"/></g></svg>