<svg version="1.1" id="Layer_1" xmlns="http://www.w3.org/2000/svg" x="0" y="0" viewBox="0 0 138.2 72.1" xml:space="preserve"><style>.st0{fill:none}.st1{fill:#fff}.st2{fill:#ffe155}.st3{fill:#0b6f55}</style><path class="st0" d="M-16.3-4h80v80h-80z"/><path class="st1" d="M39.8 67.1H7.5c-4.1 0-7.5-3.4-7.5-7.5v-43c0-4.1 3.4-7.5 7.5-7.5h32.3c4.1 0 7.5 3.4 7.5 7.5v43c0 4.2-3.3 7.5-7.5 7.5zm-32.3-55c-2.5 0-4.5 2-4.5 4.5v43c0 2.5 2 4.5 4.5 4.5h32.3c2.5 0 4.5-2 4.5-4.5v-43c0-2.5-2-4.5-4.5-4.5H7.5z"/><path class="st1" d="M35.1 10.6h-3V4.5c0-.8-.7-1.5-1.5-1.5H16.7c-.8 0-1.5.7-1.5 1.5v6.1h-3V4.5c0-2.5 2-4.5 4.5-4.5h13.9c2.5 0 4.5 2 4.5 4.5v6.1zM8.4 72.1c-2.8 0-5.1-2.3-5.1-5.1 0-.8.2-1.5.5-2.3L6.5 66c-.1.3-.2.6-.2.9 0 1.1.9 2.1 2 2.1s2-.9 2-2.1c0-.3-.1-.6-.2-.8l2.8-1.2c.3.6.4 1.3.4 2 .2 2.9-2.1 5.2-4.9 5.2zm30.5 0c-2.8 0-5-2.3-5-5.1 0-.7.1-1.3.4-2l2.8 1.2c-.1.3-.2.5-.2.8 0 1.1.9 2.1 2 2.1s2-.9 2-2.1c0-.3-.1-.6-.2-.9l2.7-1.3c.3.7.5 1.5.5 2.3 0 2.7-2.2 5-5 5zM1.5 17.2h44.3v3H1.5zm0 38.8h44.3v3H1.5z"/><path class="st2" d="M37.3 41.7l-5.6-1.4c-.2 0-.4 0-.6.1l-4.3 3.8c-.4.4-1.1.1-1.1-.5l-.4-5.7c0-.2-.1-.4-.3-.5l-5-3c-.5-.3-.4-1 .1-1.2l5.4-2.1c.2-.1.3-.3.4-.5l1.3-5.6c.1-.5.8-.7 1.2-.3l3.7 4.4c.1.2.3.3.6.2l5.7-.5c.5 0 .9.5.6 1l-3.1 4.9c-.1.2-.1.4 0 .6l2.3 5.3c.1.6-.3 1.2-.9 1z"/><path class="st2" d="M26.4 46.1c-.3 0-.6-.1-.9-.2-.8-.3-1.4-1.1-1.4-2l-.3-5.2-4.6-2.7c-.8-.5-1.2-1.3-1.1-2.2.1-.9.6-1.6 1.5-2l4.9-1.9 1.2-5.1c.2-.9.8-1.5 1.7-1.7.9-.2 1.8.1 2.3.8l3.4 4 5.2-.5c.9-.1 1.7.3 2.2 1.1.5.8.5 1.7 0 2.4l-2.8 4.4 2.1 4.8c.3.8.2 1.7-.4 2.4-.6.7-1.5 1-2.3.7L31.9 42l-4 3.5c-.4.4-1 .6-1.5.6zm-3.8-11.9l3.2 1.9c.7.4 1.1 1.1 1.1 1.8l.3 3.8 2.8-2.5c.6-.5 1.3-.7 2.1-.5l3.7.9-1.5-3.5c-.3-.7-.2-1.5.2-2.2l2-3.2-3.8.3c-.8.1-1.5-.2-2-.8l-2.4-2.9-.8 3.7c-.2.7-.7 1.3-1.4 1.6l-3.5 1.6zm9.6 7.5zm-8-2.8zm13.1-3.1zm-4-7.6zm-.8-.3zm-3.7-2.4z"/><circle class="st3" cx="12.9" cy="46" r="4.7"/><path class="st3" d="M12.9 52.2c-3.4 0-6.2-2.8-6.2-6.2s2.8-6.2 6.2-6.2 6.2 2.8 6.2 6.2-2.7 6.2-6.2 6.2zm0-9.5c-1.8 0-3.2 1.5-3.2 3.2s1.5 3.2 3.2 3.2 3.2-1.5 3.2-3.2-1.4-3.2-3.2-3.2z"/><path class="st0" d="M62.2-4.4h80v80h-80z"/><path class="st1" d="M70.1 31.4c-3.4 0-6.1-2.6-6.1-5.8v-8.4c0-.8.7-1.5 1.5-1.5s1.5.7 1.5 1.5v8.4c0 1.6 1.4 2.8 3.1 2.8 1.7 0 3.1-1.3 3.1-2.8v-8.4c0-.8.7-1.5 1.5-1.5s1.5.7 1.5 1.5v8.4c0 3.2-2.8 5.8-6.1 5.8z"/><path class="st1" d="M70.1 55.8c-.8 0-1.5-.7-1.5-1.5V17.1c0-.8.7-1.5 1.5-1.5s1.5.7 1.5 1.5v37.2c0 .8-.7 1.5-1.5 1.5zm66.6 0c-.8 0-1.5-.7-1.5-1.5V17.4c0-.8.7-1.5 1.5-1.5s1.5.7 1.5 1.5v36.9c0 .8-.7 1.5-1.5 1.5z"/><path class="st1" d="M138.2 40.6H130V21.4c0-3.2 2.6-5.8 5.8-5.8h2.4v25zm-5.2-3h2.3V18.7c-1.3.3-2.3 1.4-2.3 2.7v16.2zm-12.2 18.1H83.9c-3 0-5.5-2.5-5.5-5.5v-29c0-3 2.5-5.5 5.5-5.5h36.9c3 0 5.5 2.5 5.5 5.5v29c0 3-2.5 5.5-5.5 5.5zM83.9 18.6c-1.4 0-2.5 1.1-2.5 2.5v29c0 1.4 1.1 2.5 2.5 2.5h36.9c1.4 0 2.5-1.1 2.5-2.5v-29c0-1.4-1.1-2.5-2.5-2.5H83.9z"/><path class="st2" d="M86.2 23.4h15v24.4h-15z"/><path class="st2" d="M102.7 49.3h-18V21.9h18v27.4zm-15-3h12V24.9h-12v21.4z"/><path class="st1" d="M118.3 33.6c-.4 0-.9-.2-1.2-.5l-8.7-8.1c-.5-.5-.7-1.3-.4-2 .3-.7.9-1.1 1.7-1.1h7c1.9 0 3.5 1.6 3.5 3.5v6.4c0 .7-.4 1.3-1.1 1.6-.3.2-.6.2-.8.2zm-5.6-8.7l4.4 4.1v-3.6c0-.3-.2-.5-.5-.5h-3.9z"/><circle class="st3" cx="112.6" cy="42.3" r="6"/><path class="st3" d="M112.6 49.8c-4.2 0-7.5-3.4-7.5-7.5s3.4-7.5 7.5-7.5 7.5 3.4 7.5 7.5-3.4 7.5-7.5 7.5zm0-12c-2.5 0-4.5 2-4.5 4.5s2 4.5 4.5 4.5 4.5-2 4.5-4.5-2-4.5-4.5-4.5z"/></svg>