<svg version="1.1" id="Layer_1" xmlns="http://www.w3.org/2000/svg" x="0" y="0" viewBox="0 0 67 59.9" xml:space="preserve"><style>.st1{fill:#1fb164}</style><path fill="none" d="M-7.4-11.1h80v80h-80z"/><path class="st1" d="M58.9 45.3c-.7 0-1.4-.1-2.1-.3l-49-13.1c-5-1.3-8.4-6.3-7.7-11.5L1.5 9.1C1.7 7.6 2.6 6.3 4 5.7s2.8-.5 4.1.3c.9.6 1.5 1.5 1.8 2.6l1.9 7.7 20.1 5.4c.8.2 1.3 1 1.1 1.8s-1 1.3-1.8 1.1L9.3 18.7 7 9.3c-.1-.3-.3-.6-.6-.8-.5-.3-1-.2-1.2-.1-.2.1-.6.4-.7 1L3.1 20.9C2.6 24.6 5 28.1 8.6 29l49 13.1c2.7.7 5.5-.9 6.2-3.6.7-2.7-.9-5.5-3.6-6.2l-14.8-4c-.8-.2-1.3-1-1.1-1.8s1-1.3 1.8-1.1l14.8 4c2.1.6 3.8 1.9 4.9 3.8 1.1 1.9 1.4 4 .8 6.1-.9 3.7-4.1 6-7.7 6z"/><path class="st1" d="M45.8 28.5c-.6 0-1.1-.3-1.4-.9L33.8 3.9c-.1-.3-.3-.5-.6-.7-.5-.3-1.1-.3-1.6 0s-.8.9-.7 1.5L33 23c.1.8-.5 1.6-1.3 1.7-.8.1-1.6-.5-1.7-1.3L27.9 5.1c-.2-1.7.6-3.4 2-4.4 1.5-.9 3.3-1 4.8-.1.8.5 1.4 1.2 1.8 2l10.7 23.7c.3.8 0 1.6-.8 2-.2.1-.4.2-.6.2z"/><path class="st1" d="M45.8 28.5c-.6 0-1.1-.3-1.4-.9L33.8 3.9c-.1-.3-.3-.5-.6-.7-.5-.3-1.1-.3-1.6 0s-.8.9-.7 1.5L33 23c.1.8-.5 1.6-1.3 1.7-.8.1-1.6-.5-1.7-1.3L27.9 5.1c-.2-1.7.6-3.4 2-4.4 1.5-.9 3.3-1 4.8-.1.8.5 1.4 1.2 1.8 2l10.7 23.7c.3.8 0 1.6-.8 2-.2.1-.4.2-.6.2zm16.8 31.4h-60c-.8 0-1.5-.7-1.5-1.5s.7-1.5 1.5-1.5h60c.8 0 1.5.7 1.5 1.5s-.7 1.5-1.5 1.5z"/></svg>