<svg xmlns="http://www.w3.org/2000/svg" width="209.586" height="319.251"><path fill="none" d="M-71.966-17.539h354.33v354.33h-354.33z"/><path fill="#010101" d="M73.929 125.655c3.986 0 7.574.576 10.807 1.683 3.189 1.152 5.935 2.702 8.238 4.739s4.031 4.385 5.226 7.087c1.196 2.702 1.816 5.625 1.816 8.77 0 2.746-.31 5.182-.93 7.264s-1.506 3.898-2.702 5.448-2.613 2.879-4.296 3.942-3.632 1.993-5.758 2.702c5.182 1.639 9.035 4.119 11.604 7.485s3.809 7.574 3.809 12.623c0 4.296-.797 8.105-2.392 11.427-1.594 3.322-3.765 6.112-6.467 8.327-2.702 2.259-5.846 3.942-9.434 5.094s-7.352 1.727-11.339 1.727c-4.341 0-8.15-.487-11.339-1.506-3.233-1.019-6.024-2.48-8.415-4.429s-4.429-4.341-6.112-7.175c-1.683-2.835-3.1-6.112-4.296-9.788l6.511-2.702a8.414 8.414 0 0 1 3.41-.709c1.019 0 1.949.221 2.79.664.797.443 1.462 1.063 1.86 1.905a47.119 47.119 0 0 0 2.348 4.119 17.31 17.31 0 0 0 3.1 3.632c1.196 1.063 2.613 1.905 4.208 2.569 1.594.664 3.543.974 5.758.974 2.525 0 4.695-.399 6.555-1.24 1.86-.797 3.455-1.86 4.695-3.189s2.17-2.79 2.79-4.385.93-3.233.93-4.872c0-2.082-.222-3.942-.664-5.669-.443-1.683-1.373-3.145-2.746-4.341-1.417-1.196-3.41-2.126-6.024-2.79-2.613-.664-6.112-1.019-10.497-1.019v-10.586c3.632 0 6.644-.31 9.035-.974 2.392-.62 4.296-1.506 5.714-2.657s2.392-2.48 2.968-4.075c.576-1.594.842-3.366.842-5.271 0-4.119-1.107-7.219-3.366-9.301-2.214-2.082-5.271-3.145-9.168-3.145-3.499 0-6.422.93-8.725 2.79s-3.942 4.252-4.828 7.131c-.487 1.506-1.152 2.613-1.993 3.278-.842.664-1.949.974-3.278.974-.62 0-1.329-.044-2.037-.177l-7.751-1.373c.576-4.163 1.772-7.795 3.455-10.896 1.727-3.145 3.853-5.758 6.422-7.84s5.536-3.676 8.858-4.739c3.367-.975 6.955-1.506 10.808-1.506z"/><g fill="#010101"><path d="M176.774 297.283H33.625c-18.337 0-33.218-14.882-33.218-33.218V73.435c0-18.337 14.882-33.218 33.218-33.218h143.149c18.337 0 33.218 14.882 33.218 33.218v190.63c0 18.336-14.882 33.218-33.218 33.218zM33.624 53.504c-10.984 0-19.931 8.947-19.931 19.931v190.63c0 10.984 8.947 19.931 19.931 19.931h143.149c10.984 0 19.931-8.947 19.931-19.931V73.435c0-10.984-8.947-19.931-19.931-19.931H33.624z"/><path d="M155.824 46.86h-13.287V19.931a6.636 6.636 0 0 0-6.644-6.644H74.505a6.636 6.636 0 0 0-6.644 6.644V46.86H54.574V19.931C54.574 8.947 63.521 0 74.505 0h61.432c10.984 0 19.931 8.947 19.931 19.931V46.86h-.044zM37.788 319.252c-12.313 0-22.367-10.054-22.367-22.367 0-3.499.797-6.821 2.347-9.966l11.914 5.935a8.977 8.977 0 0 0-.93 4.031c0 5.005 4.075 9.08 9.08 9.08s9.08-4.075 9.08-9.08c0-1.24-.266-2.436-.753-3.588l12.224-5.226a22.265 22.265 0 0 1 1.816 8.814c-.044 12.313-10.054 22.367-22.411 22.367zm134.822 0c-12.313 0-22.367-10.054-22.367-22.367 0-3.012.576-5.935 1.772-8.725l12.224 5.182c-.487 1.107-.709 2.303-.709 3.543 0 5.005 4.075 9.08 9.08 9.08s9.08-4.075 9.08-9.08c0-1.417-.31-2.79-.93-4.031l11.914-5.935a22.137 22.137 0 0 1 2.347 9.966c-.045 12.313-10.098 22.367-22.411 22.367zM7.05 76.004h196.299v13.287H7.05zm0 172.249h196.299v13.287H7.05z"/></g><path d="M169.576 169.836c0 7.53-.797 14.085-2.436 19.621-1.595 5.581-3.853 10.143-6.688 13.775-2.835 3.632-6.201 6.334-10.098 8.105-3.898 1.772-8.061 2.657-12.579 2.657s-8.681-.886-12.534-2.657c-3.853-1.772-7.175-4.473-10.01-8.105-2.835-3.632-5.049-8.238-6.644-13.775s-2.392-12.092-2.392-19.621c0-7.574.797-14.129 2.392-19.665s3.809-10.143 6.644-13.775c2.835-3.632 6.156-6.334 10.01-8.105 3.853-1.772 8.017-2.657 12.534-2.657s8.681.886 12.579 2.657c3.898 1.772 7.264 4.473 10.098 8.105 2.835 3.632 5.094 8.194 6.688 13.775s2.436 12.091 2.436 19.665zm-15.281 0c0-6.245-.443-11.427-1.373-15.546s-2.126-7.397-3.676-9.788c-1.55-2.436-3.277-4.119-5.271-5.093-1.993-.974-4.075-1.462-6.201-1.462-2.126 0-4.163.487-6.112 1.462-1.993.974-3.72 2.702-5.226 5.093-1.506 2.436-2.702 5.714-3.632 9.788-.886 4.119-1.329 9.301-1.329 15.546 0 6.245.443 11.427 1.329 15.546s2.082 7.397 3.632 9.788c1.506 2.436 3.278 4.119 5.226 5.093 1.993.974 4.031 1.462 6.112 1.462 2.17 0 4.208-.487 6.201-1.462 1.993-.974 3.765-2.702 5.271-5.093 1.55-2.436 2.746-5.714 3.676-9.788.93-4.119 1.373-9.301 1.373-15.546z"/></svg>