<svg version="1.1" id="Layer_1" xmlns="http://www.w3.org/2000/svg" x="0" y="0" viewBox="0 0 63.8 57.2" xml:space="preserve"><style>.st0{fill:#2fb66f}</style><path class="st0" d="M35.4 25.5c-7 0-12.8-5.7-12.8-12.8S28.4 0 35.4 0s12.8 5.7 12.8 12.8-5.8 12.7-12.8 12.7zm0-22.5c-5.4 0-9.8 4.4-9.8 9.8s4.4 9.8 9.8 9.8 9.8-4.4 9.8-9.8S40.8 3 35.4 3zm23.7 54.2H11.9c-1.4 0-2.8-.6-3.7-1.6-.8-.9-1.1-2-1-3.2 1.7-12.7 13.3-21.6 28.3-21.6s26.6 8.9 28.3 21.6c.2 1.2-.2 2.3-1 3.2-1 1-2.3 1.6-3.7 1.6zM35.5 33.8c-11 0-23.6 5.9-25.3 19 0 .4.1.6.3.8.3.4.9.6 1.4.6h47.2c.6 0 1.1-.2 1.4-.6.2-.2.3-.5.3-.8-1.8-13.1-14.3-19-25.3-19zm-16.3-9.3H1.5C.7 24.5 0 23.8 0 23s.7-1.5 1.5-1.5h17.7c.8 0 1.5.7 1.5 1.5s-.6 1.5-1.5 1.5z"/><path class="st0" d="M10.4 33.3c-.8 0-1.5-.7-1.5-1.5V14.1c0-.8.7-1.5 1.5-1.5s1.5.7 1.5 1.5v17.7c0 .9-.7 1.5-1.5 1.5z"/><path fill="none" d="M-6.9-10.8h80v80h-80z"/></svg>