<svg xmlns="http://www.w3.org/2000/svg" viewBox="0 0 74.3 40.3"><path fill="none" d="M-1.7-20h80v80h-80z"/><path d="M6.1 15.8C2.7 15.8 0 13.2 0 10V1.6C0 .8.7.1 1.5.1S3 .8 3 1.6V10c0 1.6 1.4 2.8 3.1 2.8s3.1-1.3 3.1-2.8V1.6c0-.8.7-1.5 1.5-1.5s1.5.7 1.5 1.5V10c0 3.2-2.7 5.8-6.1 5.8z"/><path d="M6.1 40.3c-.8 0-1.5-.7-1.5-1.5V1.5C4.6.7 5.3 0 6.1 0s1.5.7 1.5 1.5v37.2c0 .9-.6 1.6-1.5 1.6zm66.7 0c-.8 0-1.5-.7-1.5-1.5V1.9c0-.8.7-1.5 1.5-1.5s1.5.7 1.5 1.5v36.9c0 .8-.7 1.5-1.5 1.5z"/><path d="M74.3 25H66V5.9C66 2.7 68.6.1 71.8.1h2.5V25zM69 22h2.3V3.1C70 3.4 69 4.5 69 5.8V22z"/><path d="M20 3c-1.4 0-2.5 1.1-2.5 2.5v29c0 1.4 1.1 2.5 2.5 2.5h36.9c1.4 0 2.5-1.1 2.5-2.5v-29c0-1.4-1.1-2.5-2.5-2.5H20z" fill="#00a64e"/><path d="M56.8 40.1H20c-3 0-5.5-2.5-5.5-5.5v-29c0-3 2.5-5.5 5.5-5.5h36.9c3 0 5.5 2.5 5.5 5.5v29c0 3-2.5 5.5-5.6 5.5zM20 3c-1.4 0-2.5 1.1-2.5 2.5v29c0 1.4 1.1 2.5 2.5 2.5h36.9c1.4 0 2.5-1.1 2.5-2.5v-29c0-1.4-1.1-2.5-2.5-2.5H20z"/><path fill="#0b6f55" d="M22.3 7.8h15v24.4h-15z"/><path d="M38.8 33.8h-18V6.3h18v27.5zm-15-3h12V9.3h-12v21.5zm30.6-12.7c-.4 0-.9-.2-1.2-.5l-8.7-8.1c-.5-.5-.7-1.3-.5-2 .3-.7.9-1.1 1.7-1.1h7c1.9 0 3.5 1.6 3.5 3.5v6.4c0 .7-.4 1.3-1.1 1.6-.3.1-.5.2-.7.2zm-5.7-8.7l4.4 4.1V9.9c0-.3-.2-.5-.5-.5h-3.9z"/><circle cx="48.6" cy="26.7" r="6" fill="#ffe155"/><path d="M48.6 34.2c-4.2 0-7.5-3.4-7.5-7.5s3.4-7.5 7.5-7.5 7.5 3.4 7.5 7.5-3.3 7.5-7.5 7.5zm0-12c-2.5 0-4.5 2-4.5 4.5s2 4.5 4.5 4.5 4.5-2 4.5-4.5-2-4.5-4.5-4.5z"/><path d="M48.7 9.4l4.4 4.1V9.9c0-.3-.2-.5-.5-.5h-3.9zM69 22h2.3V3.1C70 3.4 69 4.5 69 5.8V22z" fill="#fff"/></svg>