<svg xmlns="http://www.w3.org/2000/svg" width="209.586" height="319.251"><path fill="none" d="M-72.372-17.539h354.33v354.33h-354.33z"/><path d="M176.368 297.283H33.219c-18.337 0-33.218-14.882-33.218-33.218V73.435c0-18.337 14.882-33.218 33.218-33.218h143.149c18.337 0 33.218 14.882 33.218 33.218v190.63c0 18.336-14.882 33.218-33.218 33.218zM33.218 53.504c-10.984 0-19.931 8.947-19.931 19.931v190.63c0 10.984 8.947 19.931 19.931 19.931h143.149c10.984 0 19.931-8.947 19.931-19.931V73.435c0-10.984-8.947-19.931-19.931-19.931H33.218z"/><path d="M155.418 46.86h-13.287V19.931a6.636 6.636 0 0 0-6.644-6.644H74.099a6.636 6.636 0 0 0-6.644 6.644V46.86H54.168V19.931C54.168 8.947 63.115 0 74.099 0h61.432c10.984 0 19.931 8.947 19.931 19.931V46.86h-.044zM37.382 319.252c-12.313 0-22.367-10.054-22.367-22.367 0-3.499.797-6.821 2.347-9.966l11.914 5.935a8.977 8.977 0 0 0-.93 4.031c0 5.005 4.075 9.08 9.08 9.08s9.08-4.075 9.08-9.08c0-1.24-.266-2.436-.753-3.588l12.224-5.226a22.265 22.265 0 0 1 1.816 8.814c-.044 12.313-10.054 22.367-22.411 22.367zm134.822 0c-12.313 0-22.367-10.054-22.367-22.367 0-3.012.576-5.935 1.772-8.725l12.224 5.182c-.487 1.107-.709 2.303-.709 3.543 0 5.005 4.075 9.08 9.08 9.08s9.08-4.075 9.08-9.08c0-1.417-.31-2.79-.93-4.031l11.914-5.935a22.137 22.137 0 0 1 2.347 9.966c-.044 12.313-10.098 22.367-22.411 22.367zM6.644 76.004h196.299v13.287H6.644zm0 172.249h196.299v13.287H6.644z"/></svg>