<svg xmlns="http://www.w3.org/2000/svg" width="270.088" height="283.198" viewBox="998.816 33.218 270.088 283.198"><path d="M998.816 152.893h13.287v43.228h-13.287z"/><path d="M1133.86 273.808c-74.454 0-135.044-53.947-135.044-120.295s60.59-120.295 135.044-120.295 135.044 53.947 135.044 120.295c0 66.304-60.59 120.295-135.044 120.295zm0-227.302c-67.146 0-121.757 48.012-121.757 107.008s54.611 107.008 121.757 107.008 121.757-48.012 121.757-107.008-54.612-107.008-121.757-107.008z"/><path d="M1133.86 316.417c-74.454 0-135.044-53.947-135.044-120.295h13.287c0 58.996 54.611 107.008 121.757 107.008s121.757-48.012 121.757-107.008h13.287c0 66.304-60.59 120.295-135.044 120.295z"/><path d="M1026.985 224.512h13.287v42.608h-13.287zm33.396 26.044h13.287v42.608h-13.287zm33.44 12.711h13.287v42.608h-13.287zm33.395 3.898h13.287v42.608h-13.287zm33.396-3.898h13.287v42.608h-13.287zm33.44-12.711h13.287v42.608h-13.287zm33.395-25.999h13.287v42.608h-13.287zm28.17-71.664h13.287v43.228h-13.287zm-129.774 20.286v39.419h-20.861V100.541h36.496c7.485 0 13.996.886 19.444 2.613 5.492 1.772 10.01 4.208 13.553 7.352s6.201 6.909 7.928 11.294c1.683 4.385 2.569 9.213 2.569 14.395 0 5.404-.886 10.408-2.702 14.926-1.816 4.518-4.518 8.415-8.15 11.649-3.632 3.233-8.15 5.802-13.553 7.574-5.404 1.816-11.781 2.702-19.045 2.702h-15.679v.133zm0-16.299h15.679c3.809 0 7.175-.487 10.01-1.417 2.835-.974 5.182-2.303 7.042-4.119 1.86-1.772 3.278-3.942 4.208-6.511.93-2.569 1.417-5.404 1.417-8.548 0-3.012-.487-5.714-1.417-8.15s-2.348-4.473-4.208-6.201-4.208-3.012-7.042-3.898c-2.835-.886-6.156-1.373-10.01-1.373h-15.679v40.217z"/><path fill="none" d="M956.695 0h354.33v354.33h-354.33z"/></svg>