<svg xmlns="http://www.w3.org/2000/svg" viewBox="0 0 61.6 63.9"><path d="M30.5 30.4c.2.4.3.7.5 1.1.2-.4.3-.8.5-1.1.2-.4.3-.7.5-1.1l6.9-12.8c.1-.2.2-.3.3-.4.1-.1.2-.2.3-.2s.2-.1.4-.1h3.7V39h-3.8V23.1c0-.3 0-.7.1-1l-7 13.1c-.2.3-.4.5-.6.7-.3.2-.6.2-.9.2h-.6c-.3 0-.6-.1-.9-.2s-.5-.4-.6-.7L22 22.1c0 .4.1.7.1 1V39h-3.8V15.8H22c.1 0 .3 0 .4.1s.2.1.3.2c.1.1.2.2.3.4l7 12.9c.2.3.3.7.5 1zM.6 27h3v9.8h-3V27z"/><path d="M31.1 54.3C14.3 54.3.6 42.1.6 27.1S14.3 0 31.1 0s30.5 12.2 30.5 27.2c0 14.9-13.7 27.1-30.5 27.1zm0-51.3C15.9 3 3.6 13.8 3.6 27.2s12.3 24.2 27.5 24.2 27.5-10.8 27.5-24.2S46.3 3 31.1 3z"/><path d="M31.1 63.9C14.3 63.9.6 51.7.6 36.7h3c0 13.3 12.3 24.2 27.5 24.2s27.5-10.8 27.5-24.2h3c0 15.1-13.7 27.2-30.5 27.2z"/><path d="M7 43.2h3v9.6H7v-9.6zm7.5 5.9h3v9.6h-3v-9.6zm7.6 2.8h3v9.6h-3v-9.6zm7.5.9h3v9.6h-3v-9.6zm7.5-.9h3v9.6h-3v-9.6zm7.6-2.8h3v9.6h-3v-9.6zm7.5-5.9h3v9.6h-3v-9.6zM58.6 27h3v9.8h-3V27z"/><path d="M-8.9-7.5h80v80h-80v-80z" fill="none"/></svg>