<svg version="1.1" id="Layer_1" xmlns="http://www.w3.org/2000/svg" x="0" y="0" viewBox="-196.8 306.8 180 180" xml:space="preserve"><style>.st1{fill:#7c174a}.st2{fill:#29abe2}</style><path fill="#bdd531" d="M-196.8 306.8h180v180h-180z"/><path class="st1" d="M-166.9 426v20.5h-14.9c-.6 0-1-.5-1-1v-5h-6.1v9c0 1.7 1.4 3.1 3.1 3.1h25.1V426h-6.2zm14 0h6.1v26.6h-6.1z"/><path class="st2" d="M-66.7 426h6.1v26.6h-6.1z"/><path class="st1" d="M-113.9 426h-25v26.6h6.1v-20.5h14.9c.6 0 1 .5 1 1v19.4h6.1v-23.4c.1-1.7-1.3-3.1-3.1-3.1"/><path class="st2" d="M-99.7 426c-1.7 0-3.1 1.4-3.1 3.1v23.4h6.1v-8.3h16v8.3h6.1V426h-25.1zm18.9 6.1v6.1h-16v-5c0-.6.5-1 1.1-1h14.9zm53.1-6.1h-25.1v26.6h6.1v-20.5h14.9c.6 0 1 .5 1 1v5h6.1v-9c.2-1.7-1.2-3.1-3-3.1m-90.8-48.8l2.1-1.5 6-4.2v-2.2c0-3.2.3-6.3.8-9.3.1-.3.1-.6.2-.9.1-.3.1-.6.2-1l-1.2-.9c-7.8-5.8-16.5-10.5-25.8-13.9l-.9-.3c-.1-.1-.3-.1-.4-.1-3-1-6.1-1.7-9.4-1.8h-.4c-3.6 0-6.6 2.6-7.2 6.1 0 .2-.1.3-.1.5-.3 2.6-.5 5.3-.5 8 0 5.1.6 10.1 1.8 14.9v.3c1.3 5.2 4.5 9.8 8.8 12.8 3.2 2.3 7.1 3.8 11.2 4.1l14.8-10.6zm5.2 21.9l4.9-3.3.2-.1-.1-1-.8-5.6-.1-.5-1.1-7.7-2.6 1.1-5.5 2.3-2.3.9-11.6 4.8c-2 1.8-3.6 4.1-4.6 6.7 0 .1-.1.2-.1.3 0 .1-.1.1-.1.2-.1.2-.2.5-.2.7-.1.3-.2.7-.3 1.1-.3 1.4-.3 2.8-.2 4.2.2 1.2.5 2.5 1.1 3.6 2.7 5.8 9.3 8.5 15.2 6.4.1 0 .1 0 .2-.1.1 0 .2-.1.3-.1.1 0 .1 0 .2-.1.6-.2 1.2-.5 1.8-.8 4.5-2.4 7.9-6.4 9.5-11.1l-3.7.6-1.4.2v-1.9l1.3-.8z"/><path class="st1" d="M-94.9 377.2l-2.1-1.5-6-4.2v-2.2c0-3.2-.3-6.3-.8-9.3-.1-.3-.1-.6-.2-.9-.1-.3-.1-.6-.2-1l1.2-.9c7.8-5.8 16.5-10.5 25.8-13.9l.9-.3c.1-.1.3-.1.4-.1 3-1 6.1-1.7 9.4-1.8h.4c3.6 0 6.6 2.6 7.2 6.1 0 .2.1.3.1.5.3 2.6.5 5.3.5 8 0 5.1-.6 10.1-1.8 14.9v.3c-1.3 5.2-4.5 9.8-8.8 12.8-3.2 2.3-7.1 3.8-11.2 4.1l-14.8-10.6zm-5.2 21.9l-4.9-3.3-.2-.1.1-1 .8-5.6.1-.5 1.1-7.7 2.6 1.1 5.5 2.3 2.3.9 11.6 4.8c2 1.8 3.6 4.1 4.6 6.7 0 .1.1.2.1.3 0 .1.1.1.1.2.1.2.2.5.2.7.1.3.2.7.3 1.1.3 1.4.3 2.8.2 4.2-.2 1.2-.5 2.5-1.1 3.6-2.7 5.8-9.3 8.5-15.2 6.4-.1 0-.1 0-.2-.1-.1 0-.2-.1-.3-.1-.1 0-.1 0-.2-.1-.6-.2-1.2-.5-1.8-.8-4.5-2.4-7.9-6.4-9.5-11.1l3.7.6 1.4.2v-1.9l-1.3-.8z"/></svg>